G04 EAGLE Gerber RS-274X export*
G75*
%MOMM*%
%FSLAX34Y34*%
%LPD*%
%INBottom Copper*%
%IPPOS*%
%AMOC8*
5,1,8,0,0,1.08239X$1,22.5*%
G01*
%ADD10C,1.000000*%

G36*
X278630Y195708D02*
X278630Y195708D01*
X278658Y195706D01*
X278726Y195728D01*
X278797Y195742D01*
X278820Y195758D01*
X278847Y195767D01*
X278902Y195814D01*
X278961Y195855D01*
X278976Y195879D01*
X278998Y195897D01*
X279029Y195962D01*
X279068Y196022D01*
X279073Y196050D01*
X279085Y196076D01*
X279094Y196177D01*
X279101Y196219D01*
X279099Y196229D01*
X279100Y196242D01*
X279043Y196957D01*
X320561Y196957D01*
X320573Y196967D01*
X320572Y196968D01*
X320573Y196969D01*
X320573Y197918D01*
X320713Y198257D01*
X320713Y198259D01*
X320714Y198260D01*
X320753Y198729D01*
X320752Y198731D01*
X320753Y198732D01*
X320648Y199454D01*
X320893Y200424D01*
X320893Y200426D01*
X320894Y200426D01*
X320976Y201423D01*
X321310Y202072D01*
X321310Y202074D01*
X321311Y202075D01*
X321516Y202884D01*
X321515Y202886D01*
X321517Y202887D01*
X321532Y203616D01*
X321934Y204532D01*
X321933Y204534D01*
X321934Y204534D01*
X322180Y205504D01*
X322616Y206089D01*
X322616Y206091D01*
X322617Y206091D01*
X322953Y206856D01*
X322952Y206858D01*
X322954Y206858D01*
X323089Y207576D01*
X323636Y208413D01*
X323636Y208415D01*
X323637Y208415D01*
X324038Y209331D01*
X324565Y209836D01*
X324565Y209838D01*
X324567Y209838D01*
X325023Y210537D01*
X325023Y210539D01*
X325025Y210540D01*
X325276Y211225D01*
X325953Y211961D01*
X325953Y211962D01*
X325955Y211962D01*
X326502Y212800D01*
X327104Y213212D01*
X327105Y213214D01*
X327106Y213213D01*
X327672Y213828D01*
X327672Y213829D01*
X327673Y213830D01*
X328034Y214464D01*
X328823Y215079D01*
X328824Y215080D01*
X328825Y215080D01*
X329502Y215816D01*
X330164Y216123D01*
X330165Y216125D01*
X330167Y216124D01*
X330826Y216637D01*
X330826Y216639D01*
X330827Y216639D01*
X331288Y217206D01*
X332167Y217682D01*
X332168Y217683D01*
X332169Y217683D01*
X332958Y218297D01*
X333662Y218491D01*
X333663Y218493D01*
X333665Y218492D01*
X334399Y218889D01*
X334399Y218891D01*
X334401Y218891D01*
X334948Y219374D01*
X335894Y219699D01*
X335895Y219700D01*
X335896Y219700D01*
X336776Y220176D01*
X337502Y220251D01*
X337503Y220252D01*
X337505Y220252D01*
X338294Y220523D01*
X338295Y220524D01*
X338296Y220524D01*
X338916Y220910D01*
X339902Y221075D01*
X339903Y221076D01*
X339904Y221075D01*
X340850Y221400D01*
X341579Y221355D01*
X341580Y221356D01*
X341582Y221355D01*
X342405Y221493D01*
X342406Y221494D01*
X342408Y221493D01*
X343082Y221773D01*
X344082Y221773D01*
X344083Y221774D01*
X344084Y221773D01*
X345071Y221937D01*
X345782Y221773D01*
X345784Y221774D01*
X345785Y221773D01*
X346619Y221773D01*
X346621Y221774D01*
X346622Y221773D01*
X347333Y221937D01*
X348320Y221773D01*
X348321Y221774D01*
X348322Y221773D01*
X349322Y221773D01*
X349996Y221493D01*
X349998Y221494D01*
X349999Y221493D01*
X350822Y221355D01*
X350824Y221356D01*
X350825Y221355D01*
X351554Y221400D01*
X352500Y221075D01*
X352501Y221076D01*
X352502Y221075D01*
X353488Y220910D01*
X354108Y220524D01*
X354109Y220524D01*
X354110Y220523D01*
X354899Y220252D01*
X354901Y220252D01*
X354902Y220251D01*
X355628Y220176D01*
X356508Y219700D01*
X356509Y219700D01*
X356510Y219699D01*
X357456Y219374D01*
X358003Y218891D01*
X358005Y218891D01*
X358005Y218889D01*
X358739Y218492D01*
X358741Y218492D01*
X358742Y218491D01*
X359446Y218297D01*
X360235Y217683D01*
X360236Y217683D01*
X360237Y217682D01*
X361116Y217206D01*
X361577Y216639D01*
X361578Y216639D01*
X361578Y216637D01*
X362237Y216124D01*
X362239Y216125D01*
X362240Y216123D01*
X362902Y215816D01*
X363579Y215080D01*
X363581Y215080D01*
X363581Y215079D01*
X364370Y214464D01*
X364731Y213830D01*
X364732Y213829D01*
X364732Y213828D01*
X365298Y213213D01*
X365299Y213213D01*
X365300Y213212D01*
X365902Y212800D01*
X366449Y211962D01*
X366451Y211962D01*
X366451Y211961D01*
X367128Y211225D01*
X367379Y210540D01*
X367381Y210539D01*
X367381Y210537D01*
X367837Y209838D01*
X367839Y209838D01*
X367839Y209836D01*
X368366Y209331D01*
X368767Y208415D01*
X368769Y208414D01*
X368768Y208413D01*
X369315Y207576D01*
X369450Y206858D01*
X369452Y206857D01*
X369451Y206856D01*
X369787Y206091D01*
X369788Y206091D01*
X369788Y206089D01*
X370224Y205504D01*
X370470Y204534D01*
X370471Y204533D01*
X370470Y204532D01*
X370872Y203616D01*
X370887Y202887D01*
X370889Y202885D01*
X370888Y202884D01*
X371093Y202075D01*
X371094Y202073D01*
X371094Y202072D01*
X371428Y201423D01*
X371510Y200426D01*
X371511Y200425D01*
X371511Y200424D01*
X371756Y199454D01*
X371651Y198732D01*
X371652Y198731D01*
X371651Y198729D01*
X371690Y198260D01*
X371692Y198258D01*
X371691Y198257D01*
X371831Y197918D01*
X371831Y196969D01*
X371841Y196957D01*
X371842Y196958D01*
X371843Y196957D01*
X413361Y196957D01*
X413304Y196242D01*
X413308Y196213D01*
X413303Y196185D01*
X413320Y196116D01*
X413328Y196044D01*
X413343Y196020D01*
X413349Y195992D01*
X413392Y195934D01*
X413428Y195872D01*
X413450Y195855D01*
X413467Y195832D01*
X413529Y195795D01*
X413586Y195752D01*
X413614Y195745D01*
X413638Y195730D01*
X413738Y195714D01*
X413779Y195703D01*
X413789Y195705D01*
X413802Y195703D01*
X432802Y195703D01*
X432878Y195718D01*
X432956Y195727D01*
X432975Y195738D01*
X432997Y195742D01*
X433061Y195786D01*
X433129Y195825D01*
X433145Y195844D01*
X433161Y195855D01*
X433185Y195893D01*
X433235Y195953D01*
X442735Y212453D01*
X442744Y212480D01*
X442760Y212504D01*
X442775Y212574D01*
X442798Y212642D01*
X442795Y212670D01*
X442801Y212698D01*
X442788Y212769D01*
X442782Y212840D01*
X442769Y212865D01*
X442763Y212893D01*
X442723Y212953D01*
X442690Y213016D01*
X442668Y213034D01*
X442652Y213058D01*
X442569Y213116D01*
X442537Y213143D01*
X442526Y213146D01*
X442516Y213153D01*
X441888Y213450D01*
X462638Y249391D01*
X462637Y249396D01*
X462638Y249397D01*
X462637Y249398D01*
X462635Y249407D01*
X462634Y249406D01*
X462634Y249407D01*
X461797Y249891D01*
X461574Y250182D01*
X461572Y250182D01*
X461572Y250184D01*
X461187Y250451D01*
X461185Y250451D01*
X461185Y250453D01*
X460507Y250723D01*
X459790Y251421D01*
X459789Y251421D01*
X459789Y251422D01*
X458967Y251993D01*
X458573Y252607D01*
X458571Y252607D01*
X458571Y252609D01*
X457975Y253189D01*
X457973Y253189D01*
X457973Y253191D01*
X457349Y253569D01*
X456757Y254376D01*
X456756Y254376D01*
X456756Y254377D01*
X456039Y255075D01*
X455751Y255746D01*
X455749Y255747D01*
X455750Y255748D01*
X455258Y256418D01*
X455256Y256419D01*
X455256Y256420D01*
X454702Y256896D01*
X454251Y257789D01*
X454250Y257790D01*
X454250Y257791D01*
X453658Y258597D01*
X453485Y259306D01*
X453483Y259307D01*
X453484Y259309D01*
X453109Y260051D01*
X453107Y260052D01*
X453107Y260053D01*
X452640Y260614D01*
X452342Y261569D01*
X452341Y261569D01*
X452341Y261570D01*
X451890Y262463D01*
X451835Y263191D01*
X451834Y263193D01*
X451834Y263194D01*
X451587Y263988D01*
X451585Y263989D01*
X451586Y263990D01*
X451217Y264620D01*
X451080Y265611D01*
X451079Y265612D01*
X451080Y265613D01*
X450782Y266568D01*
X450847Y267295D01*
X450846Y267296D01*
X450847Y267297D01*
X450734Y268121D01*
X450732Y268122D01*
X450733Y268124D01*
X450473Y268806D01*
X450501Y269806D01*
X450500Y269807D01*
X450501Y269807D01*
X450364Y270798D01*
X450549Y271505D01*
X450548Y271506D01*
X450549Y271507D01*
X450573Y272339D01*
X450571Y272340D01*
X450572Y272341D01*
X450428Y273057D01*
X450620Y274038D01*
X450620Y274040D01*
X450621Y274040D01*
X450649Y275040D01*
X450947Y275706D01*
X450947Y275708D01*
X450948Y275709D01*
X451108Y276525D01*
X451107Y276527D01*
X451108Y276528D01*
X451083Y277257D01*
X451435Y278194D01*
X451434Y278195D01*
X451435Y278196D01*
X451628Y279177D01*
X452032Y279785D01*
X452031Y279787D01*
X452033Y279788D01*
X452325Y280566D01*
X452324Y280568D01*
X452326Y280569D01*
X452328Y280589D01*
X452342Y280697D01*
X452346Y280721D01*
X452360Y280828D01*
X452363Y280852D01*
X452374Y280935D01*
X452374Y280936D01*
X452377Y280959D01*
X452380Y280983D01*
X452391Y281067D01*
X452395Y281091D01*
X452398Y281115D01*
X452409Y281198D01*
X452412Y281222D01*
X452421Y281293D01*
X452922Y282159D01*
X452922Y282160D01*
X452923Y282160D01*
X453274Y283097D01*
X453773Y283630D01*
X453773Y283632D01*
X453774Y283632D01*
X454190Y284352D01*
X454190Y284354D01*
X454192Y284355D01*
X454405Y285053D01*
X455042Y285824D01*
X455042Y285826D01*
X455043Y285826D01*
X455543Y286692D01*
X456123Y287136D01*
X456123Y287138D01*
X456125Y287138D01*
X456654Y287779D01*
X456654Y287781D01*
X456655Y287782D01*
X456981Y288435D01*
X457736Y289091D01*
X457736Y289093D01*
X457737Y289093D01*
X458373Y289865D01*
X459018Y290207D01*
X459019Y290209D01*
X459020Y290209D01*
X459648Y290754D01*
X459648Y290756D01*
X459649Y290756D01*
X460078Y291347D01*
X460931Y291870D01*
X460931Y291872D01*
X460932Y291872D01*
X461687Y292528D01*
X462379Y292760D01*
X462380Y292761D01*
X462382Y292761D01*
X463090Y293196D01*
X463091Y293198D01*
X463092Y293198D01*
X463612Y293710D01*
X464539Y294086D01*
X464540Y294087D01*
X464541Y294087D01*
X465394Y294610D01*
X466115Y294725D01*
X466116Y294726D01*
X466117Y294725D01*
X466888Y295038D01*
X466889Y295039D01*
X466890Y295039D01*
X467487Y295459D01*
X468464Y295677D01*
X468464Y295678D01*
X468465Y295677D01*
X469393Y296053D01*
X470123Y296048D01*
X470124Y296049D01*
X470125Y296048D01*
X470937Y296229D01*
X470938Y296231D01*
X470939Y296230D01*
X471597Y296546D01*
X472596Y296600D01*
X472597Y296601D01*
X472598Y296600D01*
X473574Y296819D01*
X474293Y296693D01*
X474295Y296694D01*
X474296Y296693D01*
X475126Y296738D01*
X475128Y296739D01*
X475129Y296739D01*
X475830Y296941D01*
X476824Y296831D01*
X476826Y296832D01*
X476826Y296831D01*
X477825Y296885D01*
X478514Y296643D01*
X478515Y296644D01*
X478516Y296642D01*
X479343Y296550D01*
X479344Y296551D01*
X479345Y296551D01*
X479346Y296550D01*
X480071Y296635D01*
X481033Y296362D01*
X481034Y296363D01*
X481035Y296362D01*
X482029Y296251D01*
X482668Y295899D01*
X482670Y295899D01*
X482671Y295898D01*
X483471Y295671D01*
X483473Y295672D01*
X483474Y295671D01*
X484202Y295635D01*
X485107Y295208D01*
X485108Y295208D01*
X485109Y295207D01*
X486071Y294934D01*
X486644Y294481D01*
X486646Y294481D01*
X486646Y294480D01*
X487069Y294280D01*
X487071Y294281D01*
X487072Y294279D01*
X487435Y294231D01*
X488243Y293764D01*
X488258Y293767D01*
X488258Y293768D01*
X488259Y293769D01*
X509010Y329711D01*
X509618Y329291D01*
X509645Y329280D01*
X509667Y329261D01*
X509736Y329241D01*
X509801Y329213D01*
X509830Y329213D01*
X509858Y329205D01*
X509929Y329213D01*
X510000Y329213D01*
X510027Y329224D01*
X510056Y329227D01*
X510118Y329262D01*
X510183Y329290D01*
X510204Y329310D01*
X510229Y329325D01*
X510292Y329402D01*
X510322Y329432D01*
X510326Y329442D01*
X510335Y329453D01*
X519835Y345953D01*
X519845Y345985D01*
X519854Y345998D01*
X519858Y346022D01*
X519859Y346026D01*
X519890Y346096D01*
X519890Y346120D01*
X519898Y346142D01*
X519892Y346218D01*
X519893Y346295D01*
X519883Y346319D01*
X519882Y346340D01*
X519861Y346379D01*
X519835Y346451D01*
X510335Y362951D01*
X510316Y362973D01*
X510303Y362999D01*
X510250Y363047D01*
X510203Y363100D01*
X510177Y363113D01*
X510156Y363132D01*
X510088Y363155D01*
X510024Y363186D01*
X509995Y363188D01*
X509968Y363197D01*
X509896Y363192D01*
X509825Y363195D01*
X509798Y363185D01*
X509769Y363183D01*
X509679Y363141D01*
X509639Y363126D01*
X509631Y363119D01*
X509618Y363113D01*
X509010Y362693D01*
X488259Y398635D01*
X488251Y398638D01*
X488249Y398641D01*
X488248Y398641D01*
X488246Y398640D01*
X488244Y398640D01*
X488244Y398639D01*
X488243Y398640D01*
X487435Y398173D01*
X487072Y398125D01*
X487071Y398123D01*
X487069Y398124D01*
X486646Y397924D01*
X486645Y397922D01*
X486644Y397923D01*
X486071Y397470D01*
X485109Y397197D01*
X485108Y397196D01*
X485107Y397196D01*
X484202Y396769D01*
X484156Y396767D01*
X483912Y396755D01*
X483668Y396743D01*
X483473Y396733D01*
X483472Y396732D01*
X483471Y396733D01*
X482671Y396506D01*
X482670Y396504D01*
X482668Y396505D01*
X482029Y396153D01*
X481035Y396042D01*
X481034Y396041D01*
X481033Y396042D01*
X480071Y395769D01*
X479346Y395854D01*
X479344Y395853D01*
X479343Y395854D01*
X478516Y395762D01*
X478515Y395760D01*
X478514Y395761D01*
X477825Y395519D01*
X476826Y395573D01*
X476825Y395573D01*
X476824Y395573D01*
X475830Y395463D01*
X475129Y395666D01*
X475127Y395665D01*
X475126Y395666D01*
X474296Y395711D01*
X474295Y395710D01*
X474293Y395711D01*
X473574Y395585D01*
X472598Y395804D01*
X472597Y395803D01*
X472596Y395804D01*
X471597Y395858D01*
X470939Y396174D01*
X470937Y396173D01*
X470937Y396175D01*
X470125Y396356D01*
X470124Y396355D01*
X470123Y396356D01*
X469393Y396351D01*
X468465Y396727D01*
X468464Y396726D01*
X468464Y396727D01*
X467487Y396945D01*
X466890Y397365D01*
X466888Y397365D01*
X466888Y397366D01*
X466117Y397679D01*
X466115Y397678D01*
X466115Y397679D01*
X465394Y397794D01*
X464541Y398317D01*
X464540Y398317D01*
X464539Y398318D01*
X463612Y398694D01*
X463092Y399206D01*
X463091Y399206D01*
X463090Y399208D01*
X462382Y399643D01*
X462380Y399643D01*
X462379Y399644D01*
X461687Y399876D01*
X460932Y400532D01*
X460931Y400532D01*
X460931Y400534D01*
X460078Y401057D01*
X459649Y401648D01*
X459648Y401648D01*
X459648Y401650D01*
X459020Y402195D01*
X459018Y402195D01*
X459018Y402197D01*
X458373Y402539D01*
X457737Y403311D01*
X457736Y403311D01*
X457736Y403313D01*
X456981Y403969D01*
X456655Y404622D01*
X456654Y404623D01*
X456654Y404625D01*
X456125Y405266D01*
X456123Y405266D01*
X456123Y405268D01*
X455543Y405712D01*
X455043Y406578D01*
X455041Y406578D01*
X455042Y406580D01*
X454405Y407351D01*
X454192Y408049D01*
X454190Y408050D01*
X454191Y408052D01*
X453774Y408772D01*
X453772Y408772D01*
X453773Y408774D01*
X453274Y409307D01*
X452923Y410244D01*
X452922Y410244D01*
X452922Y410245D01*
X452421Y411111D01*
X452326Y411835D01*
X452324Y411836D01*
X452325Y411838D01*
X452033Y412616D01*
X452031Y412617D01*
X452032Y412619D01*
X451628Y413227D01*
X451435Y414208D01*
X451434Y414209D01*
X451435Y414210D01*
X451083Y415147D01*
X451108Y415876D01*
X451108Y415877D01*
X451107Y415878D01*
X451108Y415879D01*
X450948Y416695D01*
X450946Y416696D01*
X450947Y416698D01*
X450649Y417364D01*
X450621Y418364D01*
X450620Y418365D01*
X450620Y418366D01*
X450428Y419347D01*
X450572Y420063D01*
X450571Y420064D01*
X450573Y420065D01*
X450549Y420897D01*
X450548Y420898D01*
X450549Y420899D01*
X450364Y421606D01*
X450501Y422597D01*
X450500Y422597D01*
X450501Y422598D01*
X450473Y423598D01*
X450733Y424280D01*
X450733Y424281D01*
X450732Y424282D01*
X450734Y424283D01*
X450847Y425107D01*
X450846Y425108D01*
X450847Y425109D01*
X450782Y425836D01*
X451080Y426791D01*
X451079Y426792D01*
X451080Y426793D01*
X451217Y427784D01*
X451586Y428414D01*
X451585Y428416D01*
X451587Y428416D01*
X451835Y429210D01*
X451834Y429211D01*
X451835Y429211D01*
X451834Y429212D01*
X451835Y429213D01*
X451890Y429941D01*
X452341Y430834D01*
X452341Y430835D01*
X452342Y430835D01*
X452640Y431790D01*
X453107Y432351D01*
X453107Y432353D01*
X453109Y432353D01*
X453484Y433095D01*
X453483Y433097D01*
X453485Y433098D01*
X453658Y433807D01*
X454250Y434613D01*
X454250Y434615D01*
X454251Y434615D01*
X454702Y435508D01*
X455256Y435984D01*
X455256Y435985D01*
X455258Y435986D01*
X455750Y436656D01*
X455749Y436658D01*
X455751Y436658D01*
X456039Y437329D01*
X456756Y438027D01*
X456756Y438028D01*
X456757Y438028D01*
X457349Y438835D01*
X457973Y439213D01*
X457974Y439215D01*
X457975Y439215D01*
X458571Y439795D01*
X458571Y439797D01*
X458573Y439797D01*
X458967Y440411D01*
X459789Y440982D01*
X459789Y440983D01*
X459790Y440983D01*
X460507Y441681D01*
X461185Y441951D01*
X461186Y441953D01*
X461187Y441953D01*
X461572Y442220D01*
X461572Y442222D01*
X461574Y442222D01*
X461797Y442513D01*
X462634Y442997D01*
X462639Y443012D01*
X462638Y443012D01*
X462638Y443013D01*
X441888Y478954D01*
X442516Y479251D01*
X442538Y479268D01*
X442565Y479278D01*
X442617Y479327D01*
X442675Y479370D01*
X442689Y479395D01*
X442710Y479414D01*
X442739Y479480D01*
X442775Y479542D01*
X442778Y479570D01*
X442790Y479596D01*
X442791Y479668D01*
X442800Y479739D01*
X442792Y479766D01*
X442793Y479795D01*
X442757Y479890D01*
X442746Y479930D01*
X442739Y479939D01*
X442735Y479951D01*
X433235Y496451D01*
X433183Y496510D01*
X433137Y496572D01*
X433118Y496583D01*
X433103Y496600D01*
X433033Y496634D01*
X432966Y496674D01*
X432942Y496678D01*
X432924Y496686D01*
X432879Y496688D01*
X432802Y496701D01*
X413802Y496701D01*
X413774Y496696D01*
X413746Y496698D01*
X413678Y496676D01*
X413607Y496662D01*
X413584Y496646D01*
X413557Y496637D01*
X413502Y496590D01*
X413443Y496549D01*
X413428Y496525D01*
X413407Y496507D01*
X413375Y496442D01*
X413336Y496382D01*
X413331Y496354D01*
X413319Y496328D01*
X413310Y496227D01*
X413303Y496185D01*
X413305Y496175D01*
X413304Y496162D01*
X413361Y495447D01*
X371843Y495447D01*
X371831Y495437D01*
X371832Y495436D01*
X371831Y495435D01*
X371831Y494486D01*
X371691Y494147D01*
X371691Y494145D01*
X371690Y494144D01*
X371651Y493675D01*
X371652Y493673D01*
X371651Y493672D01*
X371756Y492950D01*
X371511Y491980D01*
X371511Y491978D01*
X371510Y491978D01*
X371428Y490981D01*
X371094Y490332D01*
X371094Y490330D01*
X371093Y490329D01*
X370888Y489520D01*
X370889Y489518D01*
X370887Y489517D01*
X370872Y488788D01*
X370470Y487872D01*
X370471Y487870D01*
X370470Y487870D01*
X370224Y486900D01*
X369788Y486315D01*
X369788Y486313D01*
X369787Y486313D01*
X369451Y485548D01*
X369452Y485547D01*
X369451Y485547D01*
X369452Y485547D01*
X369452Y485546D01*
X369450Y485546D01*
X369315Y484828D01*
X368768Y483991D01*
X368768Y483989D01*
X368767Y483989D01*
X368366Y483073D01*
X367839Y482568D01*
X367839Y482566D01*
X367837Y482566D01*
X367381Y481867D01*
X367381Y481865D01*
X367379Y481864D01*
X367128Y481179D01*
X366451Y480443D01*
X366451Y480442D01*
X366449Y480442D01*
X365902Y479604D01*
X365300Y479192D01*
X365299Y479190D01*
X365298Y479190D01*
X364732Y478576D01*
X364732Y478575D01*
X364731Y478574D01*
X364370Y477940D01*
X363581Y477325D01*
X363580Y477324D01*
X363579Y477324D01*
X362902Y476588D01*
X362240Y476281D01*
X362239Y476279D01*
X362237Y476280D01*
X361578Y475767D01*
X361578Y475765D01*
X361577Y475765D01*
X361116Y475198D01*
X360237Y474722D01*
X360236Y474721D01*
X360235Y474721D01*
X359446Y474107D01*
X358742Y473913D01*
X358741Y473911D01*
X358739Y473912D01*
X358005Y473515D01*
X358005Y473513D01*
X358003Y473513D01*
X357456Y473030D01*
X356510Y472705D01*
X356509Y472704D01*
X356508Y472704D01*
X355628Y472228D01*
X354902Y472153D01*
X354901Y472152D01*
X354900Y472152D01*
X354899Y472152D01*
X354110Y471881D01*
X354109Y471880D01*
X354108Y471880D01*
X353488Y471494D01*
X352502Y471329D01*
X352501Y471328D01*
X352500Y471329D01*
X351554Y471004D01*
X350825Y471049D01*
X350824Y471048D01*
X350822Y471049D01*
X349999Y470911D01*
X349998Y470910D01*
X349996Y470911D01*
X349322Y470631D01*
X348322Y470631D01*
X348321Y470630D01*
X348320Y470631D01*
X347333Y470467D01*
X346622Y470631D01*
X346620Y470630D01*
X346619Y470631D01*
X345785Y470631D01*
X345783Y470630D01*
X345782Y470631D01*
X345071Y470467D01*
X344084Y470631D01*
X344083Y470630D01*
X344082Y470631D01*
X343082Y470631D01*
X342408Y470911D01*
X342406Y470910D01*
X342405Y470911D01*
X341582Y471049D01*
X341580Y471048D01*
X341579Y471049D01*
X340850Y471004D01*
X339904Y471329D01*
X339903Y471328D01*
X339902Y471329D01*
X338916Y471494D01*
X338296Y471880D01*
X338295Y471880D01*
X338294Y471881D01*
X337505Y472152D01*
X337504Y472152D01*
X337503Y472152D01*
X337502Y472153D01*
X336776Y472228D01*
X335896Y472704D01*
X335895Y472704D01*
X335894Y472705D01*
X334948Y473030D01*
X334401Y473513D01*
X334399Y473513D01*
X334399Y473515D01*
X333665Y473912D01*
X333663Y473912D01*
X333662Y473913D01*
X332958Y474107D01*
X332169Y474721D01*
X332168Y474721D01*
X332167Y474722D01*
X331288Y475198D01*
X330827Y475765D01*
X330826Y475765D01*
X330826Y475767D01*
X330167Y476280D01*
X330165Y476279D01*
X330164Y476281D01*
X329502Y476588D01*
X328825Y477324D01*
X328823Y477324D01*
X328823Y477325D01*
X328034Y477940D01*
X327673Y478574D01*
X327672Y478575D01*
X327672Y478576D01*
X327106Y479191D01*
X327105Y479191D01*
X327104Y479192D01*
X326502Y479604D01*
X325955Y480442D01*
X325953Y480442D01*
X325953Y480443D01*
X325276Y481179D01*
X325025Y481864D01*
X325023Y481865D01*
X325023Y481867D01*
X324567Y482566D01*
X324565Y482566D01*
X324565Y482568D01*
X324038Y483073D01*
X323637Y483989D01*
X323635Y483990D01*
X323636Y483991D01*
X323089Y484828D01*
X322954Y485546D01*
X322952Y485547D01*
X322953Y485548D01*
X322617Y486313D01*
X322616Y486313D01*
X322616Y486315D01*
X322180Y486900D01*
X321934Y487870D01*
X321933Y487871D01*
X321934Y487872D01*
X321532Y488788D01*
X321517Y489517D01*
X321515Y489519D01*
X321516Y489520D01*
X321311Y490329D01*
X321310Y490331D01*
X321310Y490332D01*
X320976Y490981D01*
X320894Y491978D01*
X320893Y491979D01*
X320893Y491980D01*
X320648Y492950D01*
X320753Y493672D01*
X320752Y493673D01*
X320753Y493674D01*
X320753Y493675D01*
X320714Y494144D01*
X320712Y494146D01*
X320713Y494147D01*
X320573Y494486D01*
X320573Y495435D01*
X320563Y495447D01*
X320562Y495446D01*
X320561Y495447D01*
X279043Y495447D01*
X279100Y496162D01*
X279096Y496191D01*
X279101Y496219D01*
X279084Y496288D01*
X279076Y496360D01*
X279062Y496384D01*
X279055Y496412D01*
X279012Y496470D01*
X278977Y496532D01*
X278954Y496549D01*
X278937Y496572D01*
X278875Y496609D01*
X278818Y496652D01*
X278790Y496659D01*
X278766Y496674D01*
X278666Y496690D01*
X278625Y496701D01*
X278615Y496699D01*
X278602Y496701D01*
X259602Y496701D01*
X259526Y496686D01*
X259448Y496677D01*
X259429Y496666D01*
X259407Y496662D01*
X259343Y496618D01*
X259275Y496579D01*
X259259Y496560D01*
X259243Y496549D01*
X259219Y496511D01*
X259169Y496451D01*
X249669Y479951D01*
X249660Y479924D01*
X249644Y479900D01*
X249629Y479830D01*
X249606Y479762D01*
X249609Y479734D01*
X249603Y479706D01*
X249617Y479636D01*
X249622Y479564D01*
X249635Y479539D01*
X249641Y479511D01*
X249681Y479451D01*
X249714Y479388D01*
X249736Y479370D01*
X249752Y479346D01*
X249835Y479288D01*
X249867Y479261D01*
X249878Y479258D01*
X249889Y479251D01*
X250516Y478954D01*
X229766Y443013D01*
X229769Y442998D01*
X229770Y442998D01*
X229770Y442997D01*
X230607Y442513D01*
X230830Y442222D01*
X230832Y442222D01*
X230832Y442220D01*
X231217Y441953D01*
X231219Y441953D01*
X231219Y441951D01*
X231897Y441681D01*
X232614Y440983D01*
X232615Y440983D01*
X232615Y440982D01*
X233437Y440411D01*
X233831Y439797D01*
X233833Y439797D01*
X233833Y439795D01*
X234429Y439215D01*
X234431Y439215D01*
X234431Y439213D01*
X235055Y438835D01*
X235647Y438028D01*
X235648Y438028D01*
X235648Y438027D01*
X236365Y437329D01*
X236653Y436658D01*
X236655Y436657D01*
X236654Y436656D01*
X237146Y435986D01*
X237148Y435985D01*
X237148Y435984D01*
X237702Y435508D01*
X238153Y434615D01*
X238154Y434614D01*
X238154Y434613D01*
X238746Y433807D01*
X238919Y433098D01*
X238921Y433097D01*
X238920Y433095D01*
X239295Y432353D01*
X239297Y432352D01*
X239297Y432351D01*
X239764Y431790D01*
X240062Y430835D01*
X240063Y430835D01*
X240063Y430834D01*
X240514Y429941D01*
X240569Y429213D01*
X240570Y429211D01*
X240569Y429210D01*
X240817Y428416D01*
X240819Y428415D01*
X240818Y428414D01*
X241187Y427784D01*
X241324Y426793D01*
X241325Y426792D01*
X241324Y426791D01*
X241622Y425836D01*
X241557Y425109D01*
X241557Y425108D01*
X241557Y425107D01*
X241670Y424283D01*
X241672Y424282D01*
X241671Y424280D01*
X241931Y423598D01*
X241903Y422598D01*
X241904Y422597D01*
X241903Y422597D01*
X242040Y421606D01*
X241855Y420899D01*
X241856Y420898D01*
X241855Y420897D01*
X241831Y420065D01*
X241833Y420064D01*
X241832Y420063D01*
X241976Y419347D01*
X241784Y418366D01*
X241784Y418364D01*
X241783Y418364D01*
X241755Y417364D01*
X241457Y416698D01*
X241457Y416696D01*
X241456Y416695D01*
X241296Y415879D01*
X241297Y415877D01*
X241296Y415876D01*
X241321Y415147D01*
X240969Y414210D01*
X240970Y414209D01*
X240969Y414209D01*
X240969Y414208D01*
X240776Y413227D01*
X240372Y412619D01*
X240373Y412617D01*
X240371Y412616D01*
X240079Y411838D01*
X240080Y411836D01*
X240078Y411835D01*
X240069Y411762D01*
X240066Y411738D01*
X240051Y411630D01*
X240048Y411606D01*
X240034Y411499D01*
X240031Y411475D01*
X240017Y411368D01*
X240013Y411344D01*
X239999Y411236D01*
X239996Y411212D01*
X239983Y411111D01*
X239482Y410245D01*
X239482Y410244D01*
X239481Y410244D01*
X239130Y409307D01*
X238631Y408774D01*
X238631Y408772D01*
X238630Y408772D01*
X238214Y408052D01*
X238214Y408050D01*
X238212Y408049D01*
X237999Y407351D01*
X237362Y406580D01*
X237362Y406578D01*
X237361Y406578D01*
X236861Y405712D01*
X236281Y405268D01*
X236281Y405266D01*
X236279Y405266D01*
X235750Y404625D01*
X235750Y404623D01*
X235749Y404622D01*
X235423Y403969D01*
X234668Y403313D01*
X234668Y403311D01*
X234667Y403311D01*
X234031Y402539D01*
X233386Y402197D01*
X233385Y402195D01*
X233384Y402195D01*
X232756Y401650D01*
X232756Y401648D01*
X232755Y401648D01*
X232326Y401057D01*
X231473Y400534D01*
X231473Y400532D01*
X231472Y400532D01*
X230717Y399876D01*
X230025Y399644D01*
X230024Y399643D01*
X230022Y399643D01*
X229314Y399208D01*
X229313Y399206D01*
X229312Y399206D01*
X228792Y398694D01*
X227865Y398318D01*
X227864Y398317D01*
X227863Y398317D01*
X227010Y397794D01*
X226289Y397679D01*
X226288Y397678D01*
X226287Y397679D01*
X225516Y397366D01*
X225515Y397365D01*
X225514Y397365D01*
X224917Y396945D01*
X223940Y396727D01*
X223940Y396726D01*
X223939Y396727D01*
X223011Y396351D01*
X222281Y396356D01*
X222280Y396355D01*
X222279Y396356D01*
X221467Y396175D01*
X221466Y396173D01*
X221465Y396174D01*
X220807Y395858D01*
X219808Y395804D01*
X219807Y395803D01*
X219806Y395804D01*
X218830Y395585D01*
X218111Y395711D01*
X218109Y395710D01*
X218108Y395711D01*
X217278Y395666D01*
X217276Y395665D01*
X217275Y395665D01*
X216574Y395463D01*
X215580Y395573D01*
X215579Y395573D01*
X215578Y395573D01*
X214579Y395519D01*
X213890Y395761D01*
X213889Y395760D01*
X213888Y395762D01*
X213061Y395854D01*
X213060Y395853D01*
X213058Y395854D01*
X212333Y395769D01*
X211371Y396042D01*
X211370Y396041D01*
X211369Y396042D01*
X210375Y396153D01*
X209736Y396505D01*
X209734Y396505D01*
X209733Y396506D01*
X208933Y396733D01*
X208931Y396732D01*
X208930Y396733D01*
X208736Y396743D01*
X208492Y396755D01*
X208248Y396767D01*
X208202Y396769D01*
X207297Y397196D01*
X207296Y397196D01*
X207295Y397197D01*
X206333Y397470D01*
X205760Y397923D01*
X205758Y397923D01*
X205758Y397924D01*
X205335Y398124D01*
X205333Y398123D01*
X205332Y398125D01*
X204969Y398173D01*
X204161Y398640D01*
X204158Y398639D01*
X204156Y398641D01*
X204155Y398641D01*
X204152Y398638D01*
X204146Y398637D01*
X204146Y398636D01*
X204145Y398635D01*
X183394Y362693D01*
X182786Y363113D01*
X182759Y363124D01*
X182737Y363143D01*
X182668Y363163D01*
X182603Y363191D01*
X182574Y363191D01*
X182546Y363199D01*
X182475Y363191D01*
X182404Y363192D01*
X182377Y363180D01*
X182348Y363177D01*
X182286Y363142D01*
X182221Y363114D01*
X182200Y363094D01*
X182175Y363079D01*
X182112Y363002D01*
X182082Y362972D01*
X182078Y362962D01*
X182069Y362951D01*
X172569Y346451D01*
X172545Y346378D01*
X172514Y346308D01*
X172514Y346284D01*
X172506Y346262D01*
X172513Y346186D01*
X172512Y346109D01*
X172521Y346085D01*
X172522Y346064D01*
X172543Y346025D01*
X172562Y345973D01*
X172563Y345967D01*
X172565Y345965D01*
X172569Y345953D01*
X182069Y329453D01*
X182088Y329431D01*
X182101Y329405D01*
X182154Y329357D01*
X182201Y329304D01*
X182227Y329291D01*
X182249Y329272D01*
X182316Y329249D01*
X182380Y329218D01*
X182409Y329217D01*
X182436Y329207D01*
X182508Y329212D01*
X182579Y329209D01*
X182606Y329219D01*
X182635Y329221D01*
X182725Y329263D01*
X182765Y329278D01*
X182773Y329285D01*
X182786Y329291D01*
X183394Y329711D01*
X204145Y293769D01*
X204160Y293764D01*
X204160Y293765D01*
X204161Y293764D01*
X204969Y294231D01*
X205332Y294279D01*
X205333Y294281D01*
X205335Y294280D01*
X205758Y294480D01*
X205759Y294482D01*
X205760Y294481D01*
X206333Y294934D01*
X207295Y295207D01*
X207296Y295208D01*
X207297Y295208D01*
X208202Y295635D01*
X208930Y295671D01*
X208932Y295672D01*
X208933Y295671D01*
X209733Y295898D01*
X209734Y295900D01*
X209736Y295899D01*
X210375Y296251D01*
X211369Y296362D01*
X211370Y296363D01*
X211371Y296362D01*
X212333Y296635D01*
X213058Y296550D01*
X213060Y296551D01*
X213061Y296550D01*
X213888Y296642D01*
X213889Y296644D01*
X213890Y296643D01*
X214579Y296885D01*
X215578Y296831D01*
X215579Y296832D01*
X215580Y296831D01*
X216574Y296941D01*
X217275Y296738D01*
X217277Y296739D01*
X217278Y296738D01*
X218108Y296693D01*
X218109Y296694D01*
X218111Y296693D01*
X218830Y296819D01*
X219806Y296600D01*
X219807Y296601D01*
X219808Y296600D01*
X220807Y296546D01*
X221465Y296230D01*
X221467Y296231D01*
X221467Y296229D01*
X222279Y296048D01*
X222280Y296049D01*
X222281Y296048D01*
X223011Y296053D01*
X223939Y295677D01*
X223940Y295678D01*
X223940Y295677D01*
X224917Y295459D01*
X225514Y295039D01*
X225516Y295039D01*
X225516Y295038D01*
X226287Y294725D01*
X226289Y294726D01*
X226289Y294725D01*
X227010Y294610D01*
X227863Y294087D01*
X227864Y294087D01*
X227865Y294086D01*
X228792Y293710D01*
X229312Y293198D01*
X229313Y293198D01*
X229314Y293196D01*
X230022Y292761D01*
X230024Y292761D01*
X230025Y292760D01*
X230717Y292528D01*
X231472Y291872D01*
X231473Y291872D01*
X231473Y291870D01*
X232326Y291347D01*
X232755Y290756D01*
X232756Y290756D01*
X232756Y290754D01*
X233384Y290209D01*
X233386Y290209D01*
X233386Y290207D01*
X234031Y289865D01*
X234667Y289093D01*
X234668Y289093D01*
X234668Y289091D01*
X235423Y288435D01*
X235749Y287782D01*
X235750Y287781D01*
X235750Y287779D01*
X236279Y287138D01*
X236281Y287138D01*
X236281Y287136D01*
X236861Y286692D01*
X237361Y285826D01*
X237363Y285825D01*
X237363Y285824D01*
X237999Y285053D01*
X238212Y284355D01*
X238214Y284354D01*
X238213Y284352D01*
X238630Y283632D01*
X238632Y283632D01*
X238631Y283630D01*
X239130Y283097D01*
X239481Y282160D01*
X239482Y282160D01*
X239482Y282159D01*
X239983Y281293D01*
X240078Y280569D01*
X240080Y280568D01*
X240079Y280566D01*
X240371Y279788D01*
X240373Y279787D01*
X240372Y279785D01*
X240776Y279177D01*
X240969Y278196D01*
X240970Y278195D01*
X240969Y278194D01*
X241321Y277257D01*
X241296Y276528D01*
X241297Y276526D01*
X241296Y276525D01*
X241456Y275709D01*
X241458Y275708D01*
X241457Y275706D01*
X241755Y275040D01*
X241783Y274040D01*
X241784Y274039D01*
X241784Y274038D01*
X241976Y273057D01*
X241832Y272341D01*
X241833Y272340D01*
X241831Y272339D01*
X241855Y271507D01*
X241856Y271506D01*
X241855Y271505D01*
X242040Y270798D01*
X241903Y269807D01*
X241904Y269806D01*
X241903Y269806D01*
X241931Y268806D01*
X241671Y268124D01*
X241672Y268122D01*
X241670Y268121D01*
X241557Y267297D01*
X241558Y267296D01*
X241557Y267295D01*
X241622Y266568D01*
X241324Y265613D01*
X241325Y265612D01*
X241324Y265611D01*
X241187Y264620D01*
X240818Y263990D01*
X240819Y263988D01*
X240817Y263988D01*
X240569Y263194D01*
X240570Y263192D01*
X240569Y263191D01*
X240514Y262463D01*
X240063Y261570D01*
X240063Y261569D01*
X240062Y261569D01*
X239764Y260614D01*
X239297Y260053D01*
X239297Y260051D01*
X239295Y260051D01*
X238920Y259309D01*
X238921Y259307D01*
X238919Y259306D01*
X238746Y258597D01*
X238154Y257791D01*
X238154Y257789D01*
X238153Y257789D01*
X237702Y256896D01*
X237148Y256420D01*
X237148Y256419D01*
X237146Y256418D01*
X236654Y255748D01*
X236655Y255746D01*
X236653Y255746D01*
X236365Y255075D01*
X235648Y254377D01*
X235648Y254376D01*
X235647Y254376D01*
X235055Y253569D01*
X234431Y253191D01*
X234430Y253189D01*
X234429Y253189D01*
X233833Y252609D01*
X233833Y252607D01*
X233831Y252607D01*
X233437Y251993D01*
X232615Y251422D01*
X232615Y251421D01*
X232614Y251421D01*
X231897Y250723D01*
X231219Y250453D01*
X231218Y250451D01*
X231217Y250451D01*
X230832Y250184D01*
X230832Y250182D01*
X230830Y250182D01*
X230607Y249891D01*
X229770Y249407D01*
X229768Y249401D01*
X229766Y249400D01*
X229767Y249399D01*
X229765Y249392D01*
X229766Y249392D01*
X229766Y249391D01*
X250516Y213450D01*
X249889Y213153D01*
X249866Y213136D01*
X249839Y213126D01*
X249787Y213077D01*
X249729Y213034D01*
X249715Y213009D01*
X249694Y212990D01*
X249665Y212924D01*
X249629Y212862D01*
X249626Y212834D01*
X249614Y212808D01*
X249613Y212736D01*
X249604Y212665D01*
X249612Y212638D01*
X249612Y212609D01*
X249647Y212514D01*
X249658Y212474D01*
X249665Y212465D01*
X249669Y212453D01*
X259169Y195953D01*
X259221Y195895D01*
X259267Y195832D01*
X259286Y195821D01*
X259301Y195804D01*
X259371Y195770D01*
X259438Y195730D01*
X259463Y195726D01*
X259480Y195718D01*
X259525Y195716D01*
X259602Y195703D01*
X278602Y195703D01*
X278630Y195708D01*
G37*
%LPC*%
G36*
X333050Y265980D02*
X333050Y265980D01*
X316112Y270682D01*
X300581Y278916D01*
X287183Y290297D01*
X276545Y304291D01*
X269164Y320245D01*
X265385Y337413D01*
X265385Y354991D01*
X269164Y372159D01*
X276545Y388113D01*
X287183Y402107D01*
X300581Y413488D01*
X316112Y421722D01*
X333050Y426424D01*
X350603Y427376D01*
X367950Y424532D01*
X384280Y418026D01*
X398830Y408161D01*
X410919Y395399D01*
X419982Y380336D01*
X425595Y363678D01*
X427495Y346202D01*
X427495Y346201D01*
X427486Y346117D01*
X427484Y346093D01*
X427483Y346093D01*
X427484Y346093D01*
X427481Y346070D01*
X427481Y346069D01*
X427472Y345986D01*
X427469Y345962D01*
X427467Y345938D01*
X427458Y345855D01*
X427455Y345831D01*
X427452Y345807D01*
X427443Y345723D01*
X427441Y345699D01*
X427438Y345676D01*
X427429Y345592D01*
X427426Y345568D01*
X427424Y345544D01*
X427412Y345437D01*
X427410Y345413D01*
X427409Y345413D01*
X427410Y345413D01*
X427398Y345306D01*
X427398Y345305D01*
X427395Y345282D01*
X427393Y345258D01*
X427384Y345174D01*
X427381Y345150D01*
X427378Y345126D01*
X427369Y345043D01*
X427367Y345019D01*
X427364Y344995D01*
X427355Y344912D01*
X427352Y344888D01*
X427350Y344864D01*
X427341Y344780D01*
X427338Y344756D01*
X427336Y344733D01*
X427335Y344733D01*
X427335Y344732D01*
X427326Y344649D01*
X427324Y344625D01*
X427321Y344601D01*
X427312Y344518D01*
X427310Y344494D01*
X427307Y344470D01*
X427295Y344362D01*
X427293Y344339D01*
X427290Y344315D01*
X427281Y344231D01*
X427278Y344207D01*
X427276Y344183D01*
X427267Y344100D01*
X427264Y344076D01*
X427262Y344052D01*
X427261Y344052D01*
X427252Y343969D01*
X427252Y343968D01*
X427250Y343945D01*
X427247Y343921D01*
X427238Y343837D01*
X427236Y343813D01*
X427233Y343789D01*
X427224Y343706D01*
X427221Y343682D01*
X427219Y343658D01*
X427210Y343575D01*
X427207Y343551D01*
X427204Y343527D01*
X427195Y343443D01*
X427193Y343419D01*
X427190Y343396D01*
X427190Y343395D01*
X427178Y343288D01*
X427176Y343264D01*
X427173Y343240D01*
X427164Y343157D01*
X427162Y343133D01*
X427159Y343109D01*
X427150Y343025D01*
X427147Y343002D01*
X427145Y342978D01*
X427136Y342894D01*
X427133Y342870D01*
X427130Y342846D01*
X427121Y342763D01*
X427119Y342739D01*
X427116Y342715D01*
X427107Y342632D01*
X427107Y342631D01*
X427104Y342608D01*
X427102Y342584D01*
X427093Y342500D01*
X427090Y342476D01*
X427088Y342452D01*
X427078Y342369D01*
X427076Y342345D01*
X427073Y342321D01*
X427062Y342214D01*
X427059Y342190D01*
X427056Y342166D01*
X427047Y342082D01*
X427045Y342059D01*
X427045Y342058D01*
X427042Y342035D01*
X427033Y341951D01*
X427030Y341927D01*
X427028Y341903D01*
X427019Y341820D01*
X427016Y341796D01*
X427014Y341772D01*
X427004Y341688D01*
X427002Y341665D01*
X426999Y341641D01*
X426990Y341557D01*
X426988Y341533D01*
X426985Y341509D01*
X426976Y341426D01*
X426973Y341402D01*
X426971Y341378D01*
X426959Y341271D01*
X426956Y341247D01*
X426945Y341139D01*
X426942Y341115D01*
X426940Y341092D01*
X426930Y341008D01*
X426928Y340984D01*
X426925Y340960D01*
X426916Y340877D01*
X426914Y340853D01*
X426911Y340829D01*
X426902Y340745D01*
X426899Y340722D01*
X426899Y340721D01*
X426897Y340698D01*
X426888Y340614D01*
X426885Y340590D01*
X426882Y340566D01*
X426873Y340483D01*
X426871Y340459D01*
X426868Y340435D01*
X426859Y340351D01*
X426856Y340328D01*
X426854Y340304D01*
X426842Y340196D01*
X426840Y340172D01*
X426837Y340149D01*
X426837Y340148D01*
X426828Y340065D01*
X426825Y340041D01*
X426823Y340017D01*
X426814Y339934D01*
X426811Y339910D01*
X426808Y339886D01*
X426799Y339802D01*
X426797Y339778D01*
X426794Y339755D01*
X426785Y339671D01*
X426782Y339647D01*
X426780Y339623D01*
X426771Y339540D01*
X426768Y339516D01*
X426766Y339492D01*
X426756Y339408D01*
X426754Y339385D01*
X426754Y339384D01*
X426751Y339361D01*
X426742Y339277D01*
X426740Y339253D01*
X426737Y339229D01*
X426725Y339122D01*
X426723Y339098D01*
X426720Y339074D01*
X426711Y338991D01*
X426708Y338967D01*
X426706Y338943D01*
X426697Y338859D01*
X426694Y338835D01*
X426692Y338812D01*
X426692Y338811D01*
X426682Y338728D01*
X426680Y338704D01*
X426677Y338680D01*
X426668Y338597D01*
X426666Y338573D01*
X426663Y338549D01*
X426654Y338465D01*
X426651Y338441D01*
X426649Y338418D01*
X426640Y338334D01*
X426637Y338310D01*
X426634Y338286D01*
X426623Y338179D01*
X426620Y338155D01*
X426608Y338048D01*
X426608Y338047D01*
X426606Y338024D01*
X426603Y338000D01*
X426594Y337916D01*
X426592Y337892D01*
X426589Y337868D01*
X426580Y337785D01*
X426577Y337761D01*
X426575Y337737D01*
X426566Y337654D01*
X426563Y337630D01*
X426560Y337606D01*
X426551Y337522D01*
X426549Y337498D01*
X426546Y337475D01*
X426546Y337474D01*
X426537Y337391D01*
X426534Y337367D01*
X426532Y337343D01*
X426523Y337260D01*
X426520Y337236D01*
X426518Y337212D01*
X426506Y337104D01*
X426503Y337081D01*
X426492Y336973D01*
X426489Y336949D01*
X426486Y336925D01*
X426477Y336842D01*
X426475Y336818D01*
X426472Y336794D01*
X426463Y336711D01*
X426463Y336710D01*
X426460Y336687D01*
X426458Y336663D01*
X426449Y336579D01*
X426446Y336555D01*
X426444Y336531D01*
X426435Y336448D01*
X426434Y336448D01*
X426435Y336448D01*
X426432Y336424D01*
X426429Y336400D01*
X426420Y336317D01*
X426418Y336293D01*
X426415Y336269D01*
X426406Y336185D01*
X426403Y336161D01*
X426401Y336138D01*
X426401Y336137D01*
X426389Y336030D01*
X426386Y336006D01*
X426384Y335982D01*
X426375Y335899D01*
X426372Y335875D01*
X426370Y335851D01*
X426361Y335767D01*
X426360Y335767D01*
X426361Y335767D01*
X426358Y335744D01*
X426355Y335720D01*
X426346Y335636D01*
X426344Y335612D01*
X426341Y335588D01*
X426332Y335505D01*
X426329Y335481D01*
X426327Y335457D01*
X426318Y335374D01*
X426318Y335373D01*
X426315Y335350D01*
X426312Y335326D01*
X426303Y335242D01*
X426301Y335218D01*
X426298Y335194D01*
X426289Y335111D01*
X426287Y335087D01*
X426286Y335087D01*
X426287Y335087D01*
X426284Y335063D01*
X426272Y334956D01*
X426270Y334932D01*
X426267Y334908D01*
X426258Y334824D01*
X426255Y334801D01*
X426255Y334800D01*
X426253Y334777D01*
X426244Y334693D01*
X426241Y334669D01*
X426238Y334645D01*
X426229Y334562D01*
X426227Y334538D01*
X426224Y334514D01*
X426215Y334430D01*
X426213Y334407D01*
X426212Y334407D01*
X426213Y334407D01*
X426210Y334383D01*
X426201Y334299D01*
X426198Y334275D01*
X426196Y334251D01*
X426187Y334168D01*
X426184Y334144D01*
X426181Y334120D01*
X426170Y334013D01*
X426167Y333989D01*
X426155Y333881D01*
X426153Y333857D01*
X426150Y333834D01*
X426141Y333750D01*
X426139Y333726D01*
X426138Y333726D01*
X426139Y333726D01*
X426136Y333702D01*
X426127Y333619D01*
X426124Y333595D01*
X426122Y333571D01*
X426113Y333487D01*
X426110Y333464D01*
X426110Y333463D01*
X426107Y333440D01*
X426098Y333356D01*
X426096Y333332D01*
X426093Y333308D01*
X426084Y333225D01*
X426081Y333201D01*
X426079Y333177D01*
X426070Y333093D01*
X426067Y333070D01*
X426065Y333046D01*
X426064Y333046D01*
X426065Y333046D01*
X426053Y332938D01*
X426050Y332914D01*
X426039Y332807D01*
X426036Y332783D01*
X426033Y332759D01*
X426024Y332676D01*
X426022Y332652D01*
X426019Y332628D01*
X426010Y332544D01*
X426007Y332520D01*
X426005Y332497D01*
X425996Y332413D01*
X425993Y332389D01*
X425991Y332365D01*
X425990Y332365D01*
X425981Y332282D01*
X425979Y332258D01*
X425976Y332234D01*
X425967Y332150D01*
X425965Y332127D01*
X425965Y332126D01*
X425962Y332103D01*
X425953Y332019D01*
X425950Y331995D01*
X425948Y331971D01*
X425936Y331864D01*
X425933Y331840D01*
X425931Y331816D01*
X425922Y331733D01*
X425919Y331709D01*
X425917Y331685D01*
X425916Y331685D01*
X425907Y331601D01*
X425905Y331577D01*
X425902Y331554D01*
X425902Y331553D01*
X425893Y331470D01*
X425891Y331446D01*
X425888Y331422D01*
X425879Y331339D01*
X425876Y331315D01*
X425874Y331291D01*
X425865Y331207D01*
X425862Y331183D01*
X425859Y331160D01*
X425850Y331076D01*
X425848Y331052D01*
X425845Y331028D01*
X425836Y330945D01*
X425833Y330921D01*
X425831Y330897D01*
X425819Y330790D01*
X425819Y330789D01*
X425817Y330766D01*
X425814Y330742D01*
X425805Y330658D01*
X425802Y330634D01*
X425800Y330610D01*
X425791Y330527D01*
X425788Y330503D01*
X425785Y330479D01*
X425776Y330396D01*
X425774Y330372D01*
X425771Y330348D01*
X425762Y330264D01*
X425759Y330240D01*
X425757Y330217D01*
X425757Y330216D01*
X425748Y330133D01*
X425745Y330109D01*
X425743Y330085D01*
X425733Y330002D01*
X425731Y329978D01*
X425728Y329954D01*
X425717Y329846D01*
X425714Y329823D01*
X425702Y329715D01*
X425700Y329691D01*
X425697Y329667D01*
X425688Y329584D01*
X425685Y329560D01*
X425683Y329536D01*
X425674Y329453D01*
X425674Y329452D01*
X425671Y329429D01*
X425669Y329405D01*
X425659Y329321D01*
X425657Y329297D01*
X425654Y329273D01*
X425645Y329190D01*
X425643Y329166D01*
X425640Y329142D01*
X425631Y329059D01*
X425628Y329035D01*
X425626Y329011D01*
X425617Y328927D01*
X425614Y328903D01*
X425611Y328880D01*
X425611Y328879D01*
X425600Y328772D01*
X425597Y328748D01*
X425595Y328726D01*
X419982Y312068D01*
X410919Y297005D01*
X398830Y284243D01*
X384280Y274378D01*
X367950Y267872D01*
X350603Y265028D01*
X333050Y265980D01*
G37*
%LPD*%
G36*
X363231Y195709D02*
X363231Y195709D01*
X363260Y195706D01*
X363327Y195728D01*
X363397Y195742D01*
X363421Y195759D01*
X363449Y195768D01*
X363502Y195815D01*
X363561Y195855D01*
X363577Y195879D01*
X363599Y195899D01*
X363630Y195963D01*
X363668Y196022D01*
X363673Y196051D01*
X363685Y196077D01*
X363694Y196177D01*
X363701Y196219D01*
X363698Y196229D01*
X363700Y196243D01*
X363468Y199041D01*
X363458Y199075D01*
X363454Y199123D01*
X362765Y201844D01*
X362750Y201876D01*
X362738Y201922D01*
X361610Y204494D01*
X361590Y204522D01*
X361571Y204566D01*
X360035Y206917D01*
X360011Y206941D01*
X359985Y206982D01*
X358083Y209047D01*
X358055Y209068D01*
X358022Y209103D01*
X355807Y210828D01*
X355776Y210843D01*
X355738Y210873D01*
X353268Y212209D01*
X353235Y212219D01*
X353193Y212242D01*
X352007Y212650D01*
X350553Y213149D01*
X350537Y213154D01*
X350503Y213159D01*
X350457Y213174D01*
X347688Y213636D01*
X347653Y213635D01*
X347606Y213643D01*
X344798Y213643D01*
X344764Y213636D01*
X344716Y213636D01*
X341947Y213174D01*
X341914Y213162D01*
X341867Y213154D01*
X339211Y212242D01*
X339181Y212225D01*
X339136Y212209D01*
X336666Y210873D01*
X336640Y210851D01*
X336597Y210828D01*
X334382Y209103D01*
X334359Y209077D01*
X334321Y209047D01*
X332419Y206982D01*
X332401Y206952D01*
X332369Y206917D01*
X330833Y204566D01*
X330820Y204534D01*
X330794Y204494D01*
X329666Y201922D01*
X329659Y201889D01*
X329656Y201882D01*
X329650Y201873D01*
X329649Y201867D01*
X329639Y201844D01*
X328950Y199123D01*
X328948Y199088D01*
X328936Y199041D01*
X328704Y196243D01*
X328708Y196214D01*
X328703Y196185D01*
X328720Y196116D01*
X328728Y196046D01*
X328742Y196020D01*
X328749Y195992D01*
X328791Y195935D01*
X328826Y195873D01*
X328850Y195855D01*
X328867Y195832D01*
X328928Y195796D01*
X328985Y195753D01*
X329013Y195745D01*
X329038Y195730D01*
X329136Y195714D01*
X329177Y195703D01*
X329188Y195705D01*
X329202Y195703D01*
X363202Y195703D01*
X363231Y195709D01*
G37*
G36*
X347640Y478768D02*
X347640Y478768D01*
X347688Y478768D01*
X350457Y479230D01*
X350490Y479242D01*
X350537Y479250D01*
X353193Y480162D01*
X353223Y480179D01*
X353268Y480195D01*
X355738Y481531D01*
X355764Y481553D01*
X355807Y481576D01*
X358022Y483301D01*
X358045Y483327D01*
X358083Y483357D01*
X359985Y485422D01*
X360003Y485452D01*
X360035Y485487D01*
X361571Y487838D01*
X361584Y487870D01*
X361610Y487910D01*
X362738Y490482D01*
X362745Y490515D01*
X362765Y490560D01*
X363454Y493281D01*
X363456Y493316D01*
X363468Y493363D01*
X363700Y496161D01*
X363696Y496190D01*
X363701Y496219D01*
X363685Y496288D01*
X363676Y496358D01*
X363662Y496384D01*
X363655Y496412D01*
X363613Y496469D01*
X363578Y496531D01*
X363554Y496549D01*
X363537Y496572D01*
X363476Y496608D01*
X363419Y496651D01*
X363391Y496659D01*
X363366Y496674D01*
X363268Y496690D01*
X363227Y496701D01*
X363216Y496699D01*
X363202Y496701D01*
X329202Y496701D01*
X329173Y496695D01*
X329144Y496698D01*
X329077Y496676D01*
X329007Y496662D01*
X328983Y496645D01*
X328955Y496636D01*
X328902Y496589D01*
X328843Y496549D01*
X328828Y496525D01*
X328806Y496505D01*
X328774Y496441D01*
X328736Y496382D01*
X328731Y496353D01*
X328719Y496327D01*
X328710Y496227D01*
X328703Y496185D01*
X328706Y496175D01*
X328704Y496161D01*
X328936Y493363D01*
X328946Y493329D01*
X328950Y493281D01*
X329639Y490560D01*
X329654Y490528D01*
X329666Y490482D01*
X330794Y487910D01*
X330814Y487882D01*
X330833Y487838D01*
X332369Y485487D01*
X332393Y485463D01*
X332419Y485422D01*
X334321Y483357D01*
X334349Y483336D01*
X334382Y483301D01*
X336597Y481576D01*
X336628Y481561D01*
X336666Y481531D01*
X339136Y480195D01*
X339169Y480185D01*
X339211Y480162D01*
X341867Y479250D01*
X341901Y479246D01*
X341947Y479230D01*
X344716Y478768D01*
X344751Y478769D01*
X344798Y478761D01*
X347606Y478761D01*
X347640Y478768D01*
G37*
G36*
X224809Y256012D02*
X224809Y256012D01*
X224880Y256009D01*
X224907Y256019D01*
X224936Y256021D01*
X225026Y256063D01*
X225066Y256078D01*
X225074Y256086D01*
X225087Y256092D01*
X227390Y257691D01*
X227414Y257717D01*
X227454Y257744D01*
X229463Y259701D01*
X229482Y259730D01*
X229517Y259763D01*
X231176Y262024D01*
X231191Y262055D01*
X231220Y262094D01*
X232484Y264597D01*
X232493Y264631D01*
X232515Y264674D01*
X233351Y267351D01*
X233354Y267385D01*
X233369Y267431D01*
X233752Y270210D01*
X233750Y270244D01*
X233756Y270292D01*
X233677Y273095D01*
X233669Y273129D01*
X233668Y273177D01*
X233129Y275929D01*
X233115Y275961D01*
X233106Y276009D01*
X232121Y278634D01*
X232106Y278659D01*
X232101Y278679D01*
X232093Y278690D01*
X232086Y278709D01*
X230682Y281137D01*
X230659Y281163D01*
X230635Y281205D01*
X228851Y283368D01*
X228824Y283390D01*
X228793Y283427D01*
X226677Y285268D01*
X226647Y285285D01*
X226611Y285317D01*
X224220Y286784D01*
X224188Y286795D01*
X224147Y286821D01*
X221548Y287874D01*
X221514Y287881D01*
X221469Y287899D01*
X218732Y288510D01*
X218697Y288511D01*
X218650Y288522D01*
X215850Y288674D01*
X215816Y288669D01*
X215768Y288672D01*
X212980Y288362D01*
X212947Y288351D01*
X212899Y288346D01*
X210201Y287581D01*
X210171Y287565D01*
X210124Y287552D01*
X207589Y286353D01*
X207565Y286336D01*
X207538Y286326D01*
X207486Y286277D01*
X207429Y286234D01*
X207415Y286209D01*
X207394Y286189D01*
X207365Y286124D01*
X207329Y286063D01*
X207326Y286034D01*
X207314Y286007D01*
X207313Y285936D01*
X207304Y285865D01*
X207312Y285837D01*
X207312Y285808D01*
X207346Y285715D01*
X207358Y285674D01*
X207365Y285665D01*
X207370Y285652D01*
X224370Y256252D01*
X224389Y256230D01*
X224402Y256204D01*
X224455Y256156D01*
X224502Y256103D01*
X224528Y256091D01*
X224550Y256071D01*
X224617Y256048D01*
X224681Y256018D01*
X224710Y256016D01*
X224738Y256007D01*
X224809Y256012D01*
G37*
G36*
X476588Y403735D02*
X476588Y403735D01*
X476636Y403732D01*
X479424Y404042D01*
X479457Y404053D01*
X479505Y404058D01*
X482203Y404823D01*
X482233Y404839D01*
X482280Y404852D01*
X484815Y406051D01*
X484839Y406068D01*
X484866Y406078D01*
X484918Y406127D01*
X484975Y406170D01*
X484989Y406195D01*
X485011Y406215D01*
X485039Y406280D01*
X485075Y406342D01*
X485078Y406370D01*
X485090Y406397D01*
X485091Y406468D01*
X485100Y406539D01*
X485092Y406567D01*
X485092Y406596D01*
X485058Y406689D01*
X485046Y406730D01*
X485039Y406739D01*
X485034Y406752D01*
X468034Y436152D01*
X468015Y436174D01*
X468002Y436200D01*
X467949Y436248D01*
X467902Y436301D01*
X467876Y436313D01*
X467854Y436333D01*
X467787Y436356D01*
X467723Y436386D01*
X467694Y436388D01*
X467666Y436397D01*
X467595Y436392D01*
X467524Y436395D01*
X467497Y436385D01*
X467468Y436383D01*
X467378Y436341D01*
X467338Y436326D01*
X467330Y436318D01*
X467317Y436312D01*
X465014Y434713D01*
X464990Y434688D01*
X464950Y434660D01*
X462941Y432703D01*
X462922Y432674D01*
X462887Y432641D01*
X461228Y430380D01*
X461213Y430349D01*
X461184Y430310D01*
X459920Y427807D01*
X459911Y427773D01*
X459889Y427730D01*
X459053Y425053D01*
X459050Y425019D01*
X459035Y424973D01*
X458652Y422194D01*
X458654Y422160D01*
X458648Y422112D01*
X458727Y419309D01*
X458735Y419275D01*
X458736Y419227D01*
X459275Y416475D01*
X459289Y416443D01*
X459298Y416395D01*
X460283Y413770D01*
X460301Y413740D01*
X460318Y413695D01*
X461722Y411267D01*
X461745Y411241D01*
X461769Y411200D01*
X463553Y409036D01*
X463580Y409014D01*
X463611Y408977D01*
X465727Y407136D01*
X465757Y407119D01*
X465793Y407088D01*
X468184Y405620D01*
X468216Y405609D01*
X468257Y405583D01*
X470856Y404530D01*
X470890Y404523D01*
X470935Y404505D01*
X473672Y403894D01*
X473707Y403893D01*
X473754Y403882D01*
X476554Y403730D01*
X476588Y403735D01*
G37*
G36*
X467628Y256013D02*
X467628Y256013D01*
X467699Y256012D01*
X467726Y256023D01*
X467755Y256027D01*
X467817Y256061D01*
X467882Y256089D01*
X467903Y256110D01*
X467928Y256124D01*
X467991Y256200D01*
X468021Y256231D01*
X468025Y256241D01*
X468034Y256252D01*
X485034Y285652D01*
X485043Y285680D01*
X485060Y285704D01*
X485075Y285773D01*
X485097Y285841D01*
X485095Y285870D01*
X485101Y285898D01*
X485088Y285968D01*
X485082Y286039D01*
X485069Y286065D01*
X485063Y286093D01*
X485023Y286152D01*
X484991Y286215D01*
X484968Y286234D01*
X484952Y286258D01*
X484870Y286315D01*
X484837Y286342D01*
X484827Y286345D01*
X484815Y286353D01*
X482280Y287552D01*
X482246Y287560D01*
X482203Y287581D01*
X479505Y288346D01*
X479470Y288348D01*
X479424Y288362D01*
X476636Y288672D01*
X476602Y288669D01*
X476554Y288674D01*
X473754Y288522D01*
X473720Y288513D01*
X473672Y288510D01*
X470935Y287899D01*
X470903Y287885D01*
X470856Y287874D01*
X468257Y286821D01*
X468228Y286802D01*
X468184Y286784D01*
X465793Y285317D01*
X465768Y285293D01*
X465727Y285268D01*
X463611Y283427D01*
X463590Y283400D01*
X463553Y283368D01*
X461769Y281205D01*
X461753Y281174D01*
X461722Y281137D01*
X460318Y278709D01*
X460307Y278676D01*
X460300Y278663D01*
X460290Y278649D01*
X460290Y278646D01*
X460283Y278634D01*
X459298Y276009D01*
X459292Y275974D01*
X459275Y275929D01*
X458736Y273177D01*
X458736Y273143D01*
X458727Y273095D01*
X458648Y270292D01*
X458654Y270258D01*
X458652Y270210D01*
X459035Y267431D01*
X459047Y267399D01*
X459053Y267351D01*
X459889Y264674D01*
X459906Y264643D01*
X459920Y264597D01*
X461184Y262094D01*
X461206Y262067D01*
X461228Y262024D01*
X462887Y259763D01*
X462913Y259740D01*
X462941Y259701D01*
X464950Y257744D01*
X464979Y257725D01*
X465014Y257691D01*
X467317Y256092D01*
X467344Y256080D01*
X467367Y256062D01*
X467435Y256041D01*
X467500Y256013D01*
X467529Y256013D01*
X467557Y256005D01*
X467628Y256013D01*
G37*
G36*
X218650Y403882D02*
X218650Y403882D01*
X218684Y403891D01*
X218732Y403894D01*
X221469Y404505D01*
X221501Y404519D01*
X221548Y404530D01*
X224147Y405583D01*
X224176Y405602D01*
X224220Y405620D01*
X226611Y407088D01*
X226636Y407111D01*
X226677Y407136D01*
X228793Y408977D01*
X228814Y409004D01*
X228851Y409036D01*
X230635Y411200D01*
X230651Y411230D01*
X230682Y411267D01*
X232086Y413695D01*
X232097Y413728D01*
X232121Y413770D01*
X233106Y416395D01*
X233112Y416430D01*
X233129Y416475D01*
X233668Y419227D01*
X233668Y419262D01*
X233677Y419309D01*
X233756Y422112D01*
X233751Y422146D01*
X233752Y422194D01*
X233369Y424973D01*
X233357Y425005D01*
X233351Y425053D01*
X232515Y427730D01*
X232498Y427761D01*
X232484Y427807D01*
X231220Y430310D01*
X231198Y430337D01*
X231176Y430380D01*
X229517Y432641D01*
X229491Y432664D01*
X229463Y432703D01*
X227454Y434660D01*
X227425Y434679D01*
X227390Y434713D01*
X225087Y436312D01*
X225060Y436324D01*
X225037Y436342D01*
X224969Y436363D01*
X224904Y436391D01*
X224875Y436391D01*
X224847Y436399D01*
X224776Y436391D01*
X224705Y436392D01*
X224678Y436381D01*
X224649Y436377D01*
X224587Y436343D01*
X224522Y436315D01*
X224501Y436294D01*
X224476Y436280D01*
X224413Y436204D01*
X224383Y436173D01*
X224379Y436163D01*
X224370Y436152D01*
X207370Y406752D01*
X207361Y406724D01*
X207344Y406700D01*
X207329Y406631D01*
X207307Y406563D01*
X207309Y406534D01*
X207303Y406506D01*
X207316Y406436D01*
X207322Y406365D01*
X207335Y406339D01*
X207341Y406311D01*
X207381Y406252D01*
X207413Y406189D01*
X207436Y406170D01*
X207452Y406146D01*
X207534Y406089D01*
X207567Y406062D01*
X207577Y406059D01*
X207589Y406051D01*
X210124Y404852D01*
X210158Y404844D01*
X210201Y404823D01*
X212899Y404058D01*
X212934Y404056D01*
X212980Y404042D01*
X215768Y403732D01*
X215802Y403735D01*
X215850Y403730D01*
X218650Y403882D01*
G37*
D10*
X428802Y489302D03*
X511402Y346202D03*
X428802Y203102D03*
X263602Y203102D03*
X181002Y346202D03*
X263602Y489302D03*
X470102Y417702D03*
X470102Y274702D03*
X346202Y203102D03*
X222302Y274702D03*
X222302Y417702D03*
X346202Y489302D03*
M02*
