G04 EAGLE Gerber X2 export*
%TF.Part,Single*%
%TF.FileFunction,Copper,L1,Top,Mixed*%
%TF.FilePolarity,Positive*%
%TF.GenerationSoftware,Autodesk,EAGLE,8.7.1*%
%TF.CreationDate,2018-07-15T20:13:20Z*%
G75*
%MOMM*%
%FSLAX34Y34*%
%LPD*%
%AMOC8*
5,1,8,0,0,1.08239X$1,22.5*%
G01*
%ADD10C,1.000000*%

G36*
X519440Y345710D02*
X519440Y345710D01*
X519479Y345709D01*
X519537Y345730D01*
X519597Y345742D01*
X519629Y345764D01*
X519665Y345778D01*
X519710Y345820D01*
X519761Y345855D01*
X519782Y345887D01*
X519810Y345914D01*
X519835Y345971D01*
X519868Y346022D01*
X519874Y346061D01*
X519890Y346096D01*
X519891Y346158D01*
X519901Y346218D01*
X519892Y346256D01*
X519893Y346295D01*
X519865Y346368D01*
X519855Y346412D01*
X519843Y346428D01*
X519835Y346451D01*
X510335Y362951D01*
X510316Y362973D01*
X510303Y362999D01*
X510255Y363043D01*
X510251Y363047D01*
X510248Y363049D01*
X510203Y363100D01*
X510177Y363113D01*
X510156Y363132D01*
X510088Y363155D01*
X510024Y363186D01*
X509995Y363188D01*
X509968Y363197D01*
X509897Y363192D01*
X509825Y363195D01*
X509798Y363185D01*
X509769Y363183D01*
X509679Y363141D01*
X509639Y363126D01*
X509631Y363119D01*
X509618Y363113D01*
X509010Y362693D01*
X488259Y398635D01*
X488244Y398640D01*
X488244Y398639D01*
X488243Y398640D01*
X487435Y398173D01*
X487072Y398125D01*
X487071Y398123D01*
X487069Y398124D01*
X486646Y397924D01*
X486645Y397922D01*
X486644Y397923D01*
X486071Y397470D01*
X485109Y397197D01*
X485108Y397196D01*
X485107Y397196D01*
X484202Y396769D01*
X484020Y396760D01*
X483776Y396748D01*
X483532Y396736D01*
X483474Y396733D01*
X483472Y396732D01*
X483471Y396733D01*
X482671Y396506D01*
X482670Y396504D01*
X482668Y396505D01*
X482029Y396153D01*
X481035Y396042D01*
X481034Y396041D01*
X481033Y396042D01*
X480071Y395769D01*
X479346Y395854D01*
X479344Y395853D01*
X479343Y395854D01*
X478516Y395762D01*
X478515Y395760D01*
X478514Y395761D01*
X477825Y395519D01*
X476826Y395573D01*
X476825Y395572D01*
X476824Y395573D01*
X475830Y395463D01*
X475129Y395665D01*
X475127Y395665D01*
X475126Y395666D01*
X474296Y395711D01*
X474295Y395710D01*
X474293Y395711D01*
X473574Y395585D01*
X472598Y395804D01*
X472597Y395803D01*
X472596Y395804D01*
X471597Y395858D01*
X470939Y396174D01*
X470937Y396173D01*
X470937Y396175D01*
X470125Y396356D01*
X470124Y396355D01*
X470123Y396356D01*
X469825Y396354D01*
X469821Y396354D01*
X469393Y396351D01*
X468465Y396727D01*
X468464Y396726D01*
X468464Y396727D01*
X467487Y396945D01*
X466890Y397365D01*
X466888Y397365D01*
X466888Y397366D01*
X466117Y397679D01*
X466115Y397678D01*
X466115Y397679D01*
X465394Y397794D01*
X464541Y398317D01*
X464540Y398317D01*
X464539Y398318D01*
X463612Y398694D01*
X463092Y399206D01*
X463091Y399206D01*
X463090Y399208D01*
X462382Y399643D01*
X462380Y399643D01*
X462379Y399644D01*
X461687Y399876D01*
X460932Y400532D01*
X460931Y400532D01*
X460931Y400534D01*
X460078Y401057D01*
X459649Y401648D01*
X459648Y401648D01*
X459648Y401650D01*
X459020Y402195D01*
X459018Y402195D01*
X459018Y402197D01*
X458373Y402539D01*
X457737Y403311D01*
X457736Y403311D01*
X457736Y403313D01*
X456981Y403969D01*
X456655Y404622D01*
X456654Y404623D01*
X456654Y404625D01*
X456125Y405266D01*
X456123Y405266D01*
X456123Y405268D01*
X455543Y405712D01*
X455043Y406578D01*
X455041Y406578D01*
X455042Y406580D01*
X454405Y407351D01*
X454192Y408049D01*
X454190Y408050D01*
X454190Y408052D01*
X453774Y408772D01*
X453772Y408772D01*
X453773Y408774D01*
X453274Y409307D01*
X452923Y410244D01*
X452922Y410244D01*
X452922Y410245D01*
X452421Y411111D01*
X452326Y411835D01*
X452324Y411836D01*
X452325Y411838D01*
X452033Y412616D01*
X452031Y412617D01*
X452032Y412619D01*
X451628Y413227D01*
X451435Y414208D01*
X451434Y414209D01*
X451435Y414210D01*
X451083Y415147D01*
X451108Y415876D01*
X451107Y415878D01*
X451108Y415879D01*
X450948Y416695D01*
X450946Y416696D01*
X450947Y416698D01*
X450649Y417364D01*
X450621Y418364D01*
X450620Y418365D01*
X450620Y418366D01*
X450428Y419347D01*
X450572Y420063D01*
X450571Y420064D01*
X450573Y420065D01*
X450549Y420897D01*
X450548Y420898D01*
X450549Y420899D01*
X450364Y421606D01*
X450501Y422596D01*
X450500Y422598D01*
X450501Y422598D01*
X450473Y423598D01*
X450733Y424280D01*
X450732Y424282D01*
X450734Y424283D01*
X450847Y425107D01*
X450846Y425108D01*
X450847Y425109D01*
X450782Y425836D01*
X451080Y426791D01*
X451079Y426792D01*
X451080Y426793D01*
X451217Y427784D01*
X451586Y428414D01*
X451585Y428416D01*
X451587Y428416D01*
X451835Y429210D01*
X451834Y429212D01*
X451835Y429213D01*
X451890Y429941D01*
X452341Y430834D01*
X452341Y430835D01*
X452342Y430835D01*
X452640Y431790D01*
X453107Y432351D01*
X453107Y432353D01*
X453109Y432353D01*
X453484Y433095D01*
X453483Y433097D01*
X453485Y433098D01*
X453658Y433807D01*
X454250Y434613D01*
X454250Y434615D01*
X454251Y434615D01*
X454702Y435508D01*
X455256Y435984D01*
X455256Y435985D01*
X455258Y435986D01*
X455750Y436656D01*
X455749Y436658D01*
X455751Y436658D01*
X456039Y437329D01*
X456756Y438027D01*
X456756Y438028D01*
X456757Y438028D01*
X457349Y438835D01*
X457973Y439213D01*
X457974Y439215D01*
X457975Y439215D01*
X458571Y439795D01*
X458571Y439797D01*
X458573Y439797D01*
X458967Y440411D01*
X459789Y440982D01*
X459789Y440983D01*
X459790Y440983D01*
X460507Y441681D01*
X461185Y441951D01*
X461186Y441953D01*
X461187Y441953D01*
X461572Y442220D01*
X461572Y442222D01*
X461574Y442222D01*
X461797Y442513D01*
X462634Y442997D01*
X462636Y443003D01*
X462638Y443004D01*
X462637Y443005D01*
X462639Y443012D01*
X462638Y443012D01*
X462638Y443013D01*
X441888Y478954D01*
X442516Y479251D01*
X442538Y479268D01*
X442565Y479278D01*
X442617Y479327D01*
X442675Y479370D01*
X442689Y479395D01*
X442710Y479414D01*
X442739Y479480D01*
X442775Y479542D01*
X442778Y479570D01*
X442790Y479596D01*
X442791Y479668D01*
X442800Y479739D01*
X442792Y479766D01*
X442793Y479795D01*
X442757Y479890D01*
X442746Y479930D01*
X442739Y479939D01*
X442735Y479951D01*
X433235Y496451D01*
X433183Y496510D01*
X433137Y496572D01*
X433118Y496583D01*
X433103Y496600D01*
X433033Y496634D01*
X432966Y496674D01*
X432942Y496678D01*
X432924Y496686D01*
X432879Y496688D01*
X432802Y496701D01*
X413802Y496701D01*
X413774Y496696D01*
X413746Y496698D01*
X413678Y496676D01*
X413607Y496662D01*
X413584Y496646D01*
X413557Y496637D01*
X413502Y496590D01*
X413443Y496549D01*
X413428Y496525D01*
X413407Y496507D01*
X413375Y496442D01*
X413336Y496382D01*
X413331Y496354D01*
X413319Y496328D01*
X413310Y496227D01*
X413303Y496185D01*
X413305Y496175D01*
X413304Y496162D01*
X413361Y495447D01*
X371843Y495447D01*
X371831Y495437D01*
X371832Y495436D01*
X371831Y495435D01*
X371831Y494486D01*
X371691Y494147D01*
X371691Y494145D01*
X371690Y494144D01*
X371651Y493675D01*
X371652Y493673D01*
X371651Y493672D01*
X371756Y492950D01*
X371511Y491980D01*
X371511Y491978D01*
X371510Y491978D01*
X371428Y490981D01*
X371094Y490332D01*
X371094Y490330D01*
X371093Y490329D01*
X370888Y489520D01*
X370889Y489518D01*
X370887Y489517D01*
X370872Y488788D01*
X370470Y487872D01*
X370471Y487870D01*
X370470Y487870D01*
X370224Y486900D01*
X369788Y486315D01*
X369788Y486313D01*
X369787Y486313D01*
X369451Y485548D01*
X369452Y485546D01*
X369450Y485546D01*
X369315Y484828D01*
X368768Y483991D01*
X368768Y483989D01*
X368767Y483989D01*
X368366Y483073D01*
X367839Y482568D01*
X367839Y482566D01*
X367837Y482566D01*
X367381Y481867D01*
X367381Y481865D01*
X367379Y481864D01*
X367128Y481179D01*
X366451Y480443D01*
X366451Y480442D01*
X366449Y480442D01*
X365902Y479604D01*
X365300Y479192D01*
X365299Y479190D01*
X365298Y479191D01*
X364732Y478576D01*
X364732Y478575D01*
X364731Y478574D01*
X364370Y477940D01*
X363581Y477325D01*
X363580Y477324D01*
X363579Y477324D01*
X362902Y476588D01*
X362240Y476281D01*
X362239Y476279D01*
X362237Y476280D01*
X361578Y475767D01*
X361578Y475765D01*
X361577Y475765D01*
X361116Y475198D01*
X360237Y474722D01*
X360236Y474721D01*
X360235Y474721D01*
X359446Y474107D01*
X358742Y473913D01*
X358741Y473911D01*
X358739Y473912D01*
X358005Y473515D01*
X358004Y473513D01*
X358003Y473513D01*
X357456Y473030D01*
X356510Y472705D01*
X356509Y472704D01*
X356508Y472704D01*
X355628Y472228D01*
X354902Y472153D01*
X354901Y472152D01*
X354899Y472152D01*
X354110Y471881D01*
X354109Y471880D01*
X354108Y471880D01*
X353488Y471494D01*
X352502Y471329D01*
X352501Y471328D01*
X352500Y471329D01*
X351554Y471004D01*
X350825Y471049D01*
X350824Y471048D01*
X350822Y471049D01*
X349999Y470911D01*
X349998Y470910D01*
X349996Y470911D01*
X349322Y470631D01*
X348322Y470631D01*
X348321Y470630D01*
X348320Y470631D01*
X347333Y470467D01*
X346622Y470631D01*
X346620Y470630D01*
X346619Y470631D01*
X345785Y470631D01*
X345783Y470630D01*
X345782Y470631D01*
X345071Y470467D01*
X344084Y470631D01*
X344083Y470630D01*
X344082Y470631D01*
X343082Y470631D01*
X342408Y470911D01*
X342406Y470910D01*
X342405Y470911D01*
X341582Y471049D01*
X341580Y471048D01*
X341579Y471049D01*
X340850Y471004D01*
X339904Y471329D01*
X339903Y471328D01*
X339902Y471329D01*
X338916Y471494D01*
X338296Y471880D01*
X338295Y471880D01*
X338294Y471881D01*
X337505Y472152D01*
X337503Y472152D01*
X337502Y472153D01*
X336776Y472228D01*
X335896Y472704D01*
X335895Y472704D01*
X335894Y472705D01*
X334948Y473030D01*
X334401Y473513D01*
X334399Y473513D01*
X334399Y473515D01*
X333665Y473912D01*
X333663Y473912D01*
X333662Y473913D01*
X332958Y474107D01*
X332169Y474721D01*
X332168Y474721D01*
X332167Y474722D01*
X331288Y475198D01*
X330827Y475765D01*
X330826Y475765D01*
X330826Y475767D01*
X330167Y476280D01*
X330165Y476279D01*
X330164Y476281D01*
X329502Y476588D01*
X328825Y477324D01*
X328823Y477324D01*
X328823Y477325D01*
X328034Y477940D01*
X327673Y478574D01*
X327672Y478575D01*
X327672Y478576D01*
X327106Y479191D01*
X327105Y479191D01*
X327104Y479192D01*
X326502Y479604D01*
X325955Y480442D01*
X325953Y480442D01*
X325953Y480443D01*
X325276Y481179D01*
X325025Y481864D01*
X325023Y481865D01*
X325023Y481867D01*
X324567Y482566D01*
X324565Y482566D01*
X324565Y482568D01*
X324038Y483073D01*
X323637Y483989D01*
X323635Y483990D01*
X323636Y483991D01*
X323089Y484828D01*
X322954Y485546D01*
X322952Y485547D01*
X322953Y485548D01*
X322617Y486313D01*
X322616Y486313D01*
X322616Y486315D01*
X322180Y486900D01*
X321934Y487870D01*
X321933Y487871D01*
X321934Y487872D01*
X321532Y488788D01*
X321517Y489517D01*
X321515Y489519D01*
X321516Y489520D01*
X321311Y490329D01*
X321310Y490331D01*
X321310Y490332D01*
X320976Y490981D01*
X320894Y491978D01*
X320893Y491979D01*
X320893Y491980D01*
X320648Y492950D01*
X320753Y493672D01*
X320752Y493673D01*
X320753Y493675D01*
X320714Y494144D01*
X320712Y494146D01*
X320713Y494147D01*
X320573Y494486D01*
X320573Y495435D01*
X320563Y495447D01*
X320562Y495446D01*
X320561Y495447D01*
X279043Y495447D01*
X279100Y496162D01*
X279096Y496191D01*
X279101Y496219D01*
X279084Y496288D01*
X279076Y496360D01*
X279062Y496384D01*
X279055Y496412D01*
X279012Y496470D01*
X278977Y496532D01*
X278954Y496549D01*
X278937Y496572D01*
X278875Y496609D01*
X278818Y496652D01*
X278790Y496659D01*
X278766Y496674D01*
X278666Y496690D01*
X278625Y496701D01*
X278615Y496699D01*
X278602Y496701D01*
X259602Y496701D01*
X259526Y496686D01*
X259448Y496677D01*
X259429Y496666D01*
X259407Y496662D01*
X259343Y496618D01*
X259275Y496579D01*
X259259Y496560D01*
X259243Y496549D01*
X259219Y496511D01*
X259169Y496451D01*
X249669Y479951D01*
X249660Y479924D01*
X249644Y479900D01*
X249629Y479830D01*
X249606Y479762D01*
X249609Y479734D01*
X249603Y479706D01*
X249617Y479636D01*
X249622Y479564D01*
X249635Y479539D01*
X249641Y479511D01*
X249681Y479451D01*
X249714Y479388D01*
X249736Y479370D01*
X249752Y479346D01*
X249835Y479288D01*
X249867Y479261D01*
X249878Y479258D01*
X249889Y479251D01*
X250516Y478954D01*
X229766Y443013D01*
X229767Y443008D01*
X229766Y443007D01*
X229767Y443007D01*
X229769Y442998D01*
X229770Y442998D01*
X229770Y442997D01*
X230607Y442513D01*
X230830Y442222D01*
X230832Y442222D01*
X230832Y442220D01*
X231217Y441953D01*
X231219Y441953D01*
X231219Y441951D01*
X231897Y441681D01*
X232614Y440983D01*
X232615Y440983D01*
X232615Y440982D01*
X233437Y440411D01*
X233831Y439797D01*
X233833Y439797D01*
X233833Y439795D01*
X234429Y439215D01*
X234431Y439215D01*
X234431Y439213D01*
X235055Y438835D01*
X235647Y438028D01*
X235648Y438028D01*
X235648Y438027D01*
X236365Y437329D01*
X236653Y436658D01*
X236655Y436657D01*
X236654Y436656D01*
X237146Y435986D01*
X237148Y435985D01*
X237148Y435984D01*
X237702Y435508D01*
X238153Y434615D01*
X238154Y434614D01*
X238154Y434613D01*
X238746Y433807D01*
X238919Y433098D01*
X238921Y433097D01*
X238920Y433095D01*
X239295Y432353D01*
X239297Y432352D01*
X239297Y432351D01*
X239764Y431790D01*
X240062Y430835D01*
X240063Y430835D01*
X240063Y430834D01*
X240514Y429941D01*
X240569Y429213D01*
X240570Y429211D01*
X240569Y429210D01*
X240817Y428416D01*
X240819Y428415D01*
X240818Y428414D01*
X241187Y427784D01*
X241324Y426793D01*
X241325Y426792D01*
X241324Y426791D01*
X241622Y425836D01*
X241557Y425109D01*
X241558Y425108D01*
X241557Y425107D01*
X241670Y424283D01*
X241672Y424282D01*
X241671Y424280D01*
X241931Y423598D01*
X241903Y422598D01*
X241904Y422597D01*
X241903Y422597D01*
X242040Y421606D01*
X241855Y420899D01*
X241856Y420899D01*
X241856Y420898D01*
X241855Y420897D01*
X241831Y420065D01*
X241833Y420064D01*
X241832Y420063D01*
X241976Y419347D01*
X241784Y418366D01*
X241784Y418364D01*
X241783Y418364D01*
X241755Y417364D01*
X241457Y416698D01*
X241457Y416696D01*
X241456Y416695D01*
X241296Y415879D01*
X241297Y415877D01*
X241296Y415876D01*
X241321Y415147D01*
X240969Y414210D01*
X240970Y414209D01*
X240969Y414208D01*
X240776Y413227D01*
X240372Y412619D01*
X240373Y412617D01*
X240371Y412616D01*
X240079Y411838D01*
X240080Y411836D01*
X240078Y411835D01*
X240071Y411779D01*
X240068Y411755D01*
X240065Y411731D01*
X240054Y411648D01*
X240054Y411647D01*
X240051Y411624D01*
X240050Y411624D01*
X240051Y411624D01*
X240047Y411600D01*
X240036Y411516D01*
X240033Y411492D01*
X240030Y411468D01*
X240019Y411385D01*
X240016Y411361D01*
X240013Y411337D01*
X240002Y411254D01*
X239998Y411230D01*
X239995Y411206D01*
X239984Y411122D01*
X239983Y411111D01*
X239482Y410245D01*
X239482Y410244D01*
X239481Y410244D01*
X239130Y409307D01*
X238631Y408774D01*
X238631Y408772D01*
X238630Y408772D01*
X238214Y408052D01*
X238214Y408050D01*
X238212Y408049D01*
X237999Y407351D01*
X237362Y406580D01*
X237362Y406578D01*
X237361Y406578D01*
X236861Y405712D01*
X236281Y405268D01*
X236281Y405266D01*
X236279Y405266D01*
X235750Y404625D01*
X235750Y404623D01*
X235749Y404622D01*
X235423Y403969D01*
X234668Y403313D01*
X234668Y403311D01*
X234667Y403311D01*
X234031Y402539D01*
X233386Y402197D01*
X233385Y402195D01*
X233384Y402195D01*
X232756Y401650D01*
X232756Y401648D01*
X232755Y401648D01*
X232326Y401057D01*
X231473Y400534D01*
X231473Y400532D01*
X231472Y400532D01*
X230717Y399876D01*
X230025Y399644D01*
X230024Y399643D01*
X230022Y399643D01*
X229314Y399208D01*
X229313Y399206D01*
X229312Y399206D01*
X228792Y398694D01*
X227865Y398318D01*
X227864Y398317D01*
X227863Y398317D01*
X227010Y397794D01*
X226289Y397679D01*
X226288Y397678D01*
X226287Y397679D01*
X225516Y397366D01*
X225515Y397365D01*
X225514Y397365D01*
X224917Y396945D01*
X223940Y396727D01*
X223940Y396726D01*
X223939Y396727D01*
X223011Y396351D01*
X222583Y396354D01*
X222579Y396354D01*
X222281Y396356D01*
X222280Y396355D01*
X222279Y396356D01*
X221467Y396175D01*
X221466Y396173D01*
X221465Y396174D01*
X220807Y395858D01*
X219808Y395804D01*
X219807Y395803D01*
X219806Y395804D01*
X218830Y395585D01*
X218111Y395711D01*
X218109Y395710D01*
X218108Y395711D01*
X217278Y395666D01*
X217276Y395665D01*
X217275Y395665D01*
X216574Y395463D01*
X215580Y395573D01*
X215578Y395572D01*
X215578Y395573D01*
X214579Y395519D01*
X213890Y395761D01*
X213889Y395760D01*
X213888Y395762D01*
X213061Y395854D01*
X213060Y395853D01*
X213059Y395853D01*
X213058Y395854D01*
X212333Y395769D01*
X211371Y396042D01*
X211370Y396041D01*
X211369Y396042D01*
X210375Y396153D01*
X209736Y396505D01*
X209734Y396505D01*
X209733Y396506D01*
X208933Y396733D01*
X208931Y396732D01*
X208930Y396733D01*
X208872Y396736D01*
X208628Y396748D01*
X208384Y396760D01*
X208202Y396769D01*
X207297Y397196D01*
X207296Y397196D01*
X207295Y397197D01*
X206333Y397470D01*
X205760Y397923D01*
X205758Y397923D01*
X205758Y397924D01*
X205335Y398124D01*
X205333Y398123D01*
X205332Y398125D01*
X204969Y398173D01*
X204161Y398640D01*
X204146Y398637D01*
X204146Y398636D01*
X204145Y398635D01*
X183394Y362693D01*
X182786Y363113D01*
X182759Y363124D01*
X182737Y363143D01*
X182668Y363163D01*
X182603Y363191D01*
X182574Y363191D01*
X182546Y363199D01*
X182475Y363191D01*
X182404Y363192D01*
X182377Y363180D01*
X182348Y363177D01*
X182286Y363142D01*
X182221Y363114D01*
X182200Y363094D01*
X182175Y363079D01*
X182131Y363026D01*
X182129Y363024D01*
X182126Y363020D01*
X182111Y363002D01*
X182082Y362972D01*
X182078Y362962D01*
X182069Y362951D01*
X172569Y346451D01*
X172557Y346414D01*
X172536Y346381D01*
X172526Y346321D01*
X172506Y346262D01*
X172510Y346224D01*
X172503Y346185D01*
X172517Y346125D01*
X172522Y346064D01*
X172540Y346030D01*
X172549Y345992D01*
X172586Y345942D01*
X172614Y345888D01*
X172644Y345863D01*
X172667Y345832D01*
X172720Y345800D01*
X172767Y345761D01*
X172805Y345750D01*
X172838Y345730D01*
X172915Y345717D01*
X172958Y345705D01*
X172978Y345707D01*
X173002Y345703D01*
X191900Y345713D01*
X191925Y345718D01*
X191951Y345715D01*
X192022Y345738D01*
X192095Y345752D01*
X192116Y345767D01*
X192141Y345775D01*
X192198Y345823D01*
X192259Y345865D01*
X192273Y345887D01*
X192292Y345903D01*
X192326Y345970D01*
X192366Y346033D01*
X192370Y346058D01*
X192382Y346081D01*
X192393Y346191D01*
X192399Y346229D01*
X192397Y346237D01*
X192398Y346247D01*
X192349Y346957D01*
X500055Y346957D01*
X500006Y346247D01*
X500009Y346221D01*
X500005Y346196D01*
X500022Y346123D01*
X500032Y346049D01*
X500045Y346027D01*
X500051Y346002D01*
X500095Y345942D01*
X500133Y345878D01*
X500153Y345863D01*
X500169Y345842D01*
X500233Y345804D01*
X500293Y345760D01*
X500318Y345754D01*
X500340Y345741D01*
X500448Y345722D01*
X500486Y345713D01*
X500494Y345714D01*
X500504Y345713D01*
X519402Y345703D01*
X519440Y345710D01*
G37*
%LPC*%
G36*
X333329Y381509D02*
X333329Y381509D01*
X322175Y387193D01*
X313323Y396045D01*
X307639Y407199D01*
X305681Y419564D01*
X307639Y431929D01*
X313323Y443083D01*
X322175Y451935D01*
X333329Y457619D01*
X345694Y459577D01*
X358059Y457619D01*
X369213Y451935D01*
X378065Y443083D01*
X383749Y431929D01*
X385707Y419564D01*
X383749Y407199D01*
X378065Y396045D01*
X369213Y387193D01*
X358059Y381509D01*
X345694Y379551D01*
X333329Y381509D01*
G37*
%LPD*%
G36*
X347640Y478768D02*
X347640Y478768D01*
X347688Y478768D01*
X350457Y479230D01*
X350490Y479242D01*
X350537Y479250D01*
X353193Y480162D01*
X353223Y480179D01*
X353268Y480195D01*
X355738Y481531D01*
X355764Y481553D01*
X355807Y481576D01*
X358022Y483301D01*
X358045Y483327D01*
X358083Y483357D01*
X359985Y485422D01*
X360003Y485452D01*
X360035Y485487D01*
X361571Y487838D01*
X361584Y487870D01*
X361610Y487910D01*
X362738Y490482D01*
X362745Y490515D01*
X362765Y490560D01*
X363454Y493281D01*
X363456Y493316D01*
X363468Y493363D01*
X363700Y496161D01*
X363696Y496190D01*
X363701Y496219D01*
X363685Y496288D01*
X363676Y496358D01*
X363662Y496384D01*
X363655Y496412D01*
X363613Y496469D01*
X363578Y496531D01*
X363554Y496549D01*
X363537Y496572D01*
X363476Y496608D01*
X363419Y496651D01*
X363391Y496659D01*
X363366Y496674D01*
X363268Y496690D01*
X363227Y496701D01*
X363216Y496699D01*
X363202Y496701D01*
X329202Y496701D01*
X329173Y496695D01*
X329144Y496698D01*
X329077Y496676D01*
X329007Y496662D01*
X328983Y496645D01*
X328955Y496636D01*
X328902Y496589D01*
X328843Y496549D01*
X328828Y496525D01*
X328806Y496505D01*
X328774Y496441D01*
X328736Y496382D01*
X328731Y496353D01*
X328719Y496327D01*
X328710Y496227D01*
X328703Y496185D01*
X328706Y496175D01*
X328704Y496161D01*
X328936Y493363D01*
X328946Y493329D01*
X328950Y493281D01*
X329639Y490560D01*
X329654Y490528D01*
X329666Y490482D01*
X330794Y487910D01*
X330814Y487882D01*
X330833Y487838D01*
X332369Y485487D01*
X332393Y485463D01*
X332419Y485422D01*
X334321Y483357D01*
X334349Y483336D01*
X334382Y483301D01*
X336597Y481576D01*
X336628Y481561D01*
X336666Y481531D01*
X339136Y480195D01*
X339169Y480185D01*
X339211Y480162D01*
X341867Y479250D01*
X341901Y479246D01*
X341947Y479230D01*
X344716Y478768D01*
X344751Y478769D01*
X344798Y478761D01*
X347606Y478761D01*
X347640Y478768D01*
G37*
G36*
X476588Y403735D02*
X476588Y403735D01*
X476636Y403732D01*
X479424Y404042D01*
X479457Y404053D01*
X479505Y404058D01*
X482203Y404823D01*
X482233Y404839D01*
X482280Y404852D01*
X484815Y406051D01*
X484839Y406068D01*
X484866Y406078D01*
X484918Y406127D01*
X484975Y406170D01*
X484989Y406195D01*
X485011Y406215D01*
X485039Y406280D01*
X485075Y406342D01*
X485078Y406370D01*
X485090Y406397D01*
X485091Y406468D01*
X485100Y406539D01*
X485092Y406567D01*
X485092Y406596D01*
X485058Y406689D01*
X485046Y406730D01*
X485039Y406739D01*
X485034Y406752D01*
X468034Y436152D01*
X468015Y436174D01*
X468002Y436200D01*
X467949Y436248D01*
X467902Y436301D01*
X467876Y436313D01*
X467854Y436333D01*
X467787Y436356D01*
X467723Y436386D01*
X467694Y436388D01*
X467666Y436397D01*
X467595Y436392D01*
X467524Y436395D01*
X467497Y436385D01*
X467468Y436383D01*
X467378Y436341D01*
X467338Y436326D01*
X467330Y436318D01*
X467317Y436312D01*
X465014Y434713D01*
X464990Y434688D01*
X464950Y434660D01*
X462941Y432703D01*
X462922Y432674D01*
X462887Y432641D01*
X461228Y430380D01*
X461213Y430349D01*
X461184Y430310D01*
X459920Y427807D01*
X459911Y427773D01*
X459889Y427730D01*
X459053Y425053D01*
X459050Y425019D01*
X459035Y424973D01*
X458652Y422194D01*
X458654Y422160D01*
X458648Y422112D01*
X458727Y419309D01*
X458735Y419275D01*
X458736Y419227D01*
X459275Y416475D01*
X459289Y416443D01*
X459298Y416395D01*
X460283Y413770D01*
X460301Y413740D01*
X460318Y413695D01*
X461722Y411267D01*
X461745Y411241D01*
X461769Y411200D01*
X463553Y409036D01*
X463580Y409014D01*
X463611Y408977D01*
X465727Y407136D01*
X465757Y407119D01*
X465793Y407088D01*
X468184Y405620D01*
X468216Y405609D01*
X468257Y405583D01*
X470856Y404530D01*
X470890Y404523D01*
X470935Y404505D01*
X473672Y403894D01*
X473707Y403893D01*
X473754Y403882D01*
X476554Y403730D01*
X476588Y403735D01*
G37*
G36*
X218650Y403882D02*
X218650Y403882D01*
X218684Y403891D01*
X218732Y403894D01*
X221469Y404505D01*
X221501Y404519D01*
X221548Y404530D01*
X224147Y405583D01*
X224176Y405602D01*
X224220Y405620D01*
X226611Y407088D01*
X226636Y407111D01*
X226677Y407136D01*
X228793Y408977D01*
X228814Y409004D01*
X228851Y409036D01*
X230635Y411200D01*
X230651Y411230D01*
X230682Y411267D01*
X232086Y413695D01*
X232097Y413728D01*
X232121Y413770D01*
X233106Y416395D01*
X233112Y416430D01*
X233129Y416475D01*
X233668Y419227D01*
X233668Y419262D01*
X233677Y419309D01*
X233756Y422112D01*
X233751Y422146D01*
X233752Y422194D01*
X233369Y424973D01*
X233357Y425005D01*
X233351Y425053D01*
X232515Y427730D01*
X232498Y427761D01*
X232484Y427807D01*
X231220Y430310D01*
X231198Y430337D01*
X231176Y430380D01*
X229517Y432641D01*
X229491Y432664D01*
X229463Y432703D01*
X227454Y434660D01*
X227425Y434679D01*
X227390Y434713D01*
X225087Y436312D01*
X225060Y436324D01*
X225037Y436342D01*
X224969Y436363D01*
X224904Y436391D01*
X224875Y436391D01*
X224847Y436399D01*
X224776Y436391D01*
X224705Y436392D01*
X224678Y436381D01*
X224649Y436377D01*
X224587Y436343D01*
X224522Y436315D01*
X224501Y436294D01*
X224476Y436280D01*
X224413Y436204D01*
X224383Y436173D01*
X224379Y436163D01*
X224370Y436152D01*
X207370Y406752D01*
X207361Y406724D01*
X207344Y406700D01*
X207329Y406631D01*
X207307Y406563D01*
X207309Y406534D01*
X207303Y406506D01*
X207316Y406436D01*
X207322Y406365D01*
X207335Y406339D01*
X207341Y406311D01*
X207381Y406252D01*
X207413Y406189D01*
X207436Y406170D01*
X207452Y406146D01*
X207534Y406089D01*
X207567Y406062D01*
X207577Y406059D01*
X207589Y406051D01*
X210124Y404852D01*
X210158Y404844D01*
X210201Y404823D01*
X212899Y404058D01*
X212934Y404056D01*
X212980Y404042D01*
X215768Y403732D01*
X215802Y403735D01*
X215850Y403730D01*
X218650Y403882D01*
G37*
D10*
X428802Y489302D03*
X507846Y352806D03*
X184050Y352806D03*
X263602Y489302D03*
X470102Y417702D03*
X222302Y417702D03*
X346202Y489302D03*
M02*
