G04 EAGLE Gerber X2 export*
%TF.Part,Single*%
%TF.FileFunction,Legend,Bot,1*%
%TF.FilePolarity,Positive*%
%TF.GenerationSoftware,Autodesk,EAGLE,8.7.1*%
%TF.CreationDate,2018-07-15T20:11:00Z*%
G75*
%MOMM*%
%FSLAX34Y34*%
%LPD*%
%AMOC8*
5,1,8,0,0,1.08239X$1,22.5*%
G01*
%ADD10C,0.101600*%
%ADD11C,0.152400*%
%ADD12C,0.254000*%
%ADD13C,0.203200*%


D10*
X428096Y466183D02*
X426501Y467300D01*
X422778Y461983D01*
X425968Y459749D01*
X426051Y459694D01*
X426135Y459642D01*
X426222Y459593D01*
X426310Y459547D01*
X426400Y459505D01*
X426492Y459466D01*
X426585Y459431D01*
X426679Y459399D01*
X426774Y459371D01*
X426871Y459347D01*
X426968Y459326D01*
X427066Y459310D01*
X427165Y459296D01*
X427264Y459287D01*
X427363Y459282D01*
X427463Y459280D01*
X427562Y459282D01*
X427661Y459288D01*
X427760Y459298D01*
X427859Y459311D01*
X427957Y459329D01*
X428054Y459350D01*
X428150Y459374D01*
X428246Y459403D01*
X428340Y459435D01*
X428433Y459470D01*
X428524Y459509D01*
X428614Y459552D01*
X428702Y459598D01*
X428788Y459647D01*
X428873Y459700D01*
X428955Y459756D01*
X429035Y459815D01*
X429113Y459877D01*
X429188Y459942D01*
X429261Y460009D01*
X429331Y460080D01*
X429399Y460153D01*
X429463Y460229D01*
X429525Y460307D01*
X429584Y460387D01*
X433307Y465704D01*
X433362Y465787D01*
X433414Y465871D01*
X433463Y465958D01*
X433509Y466046D01*
X433551Y466136D01*
X433590Y466228D01*
X433625Y466321D01*
X433657Y466415D01*
X433685Y466510D01*
X433709Y466607D01*
X433730Y466704D01*
X433746Y466802D01*
X433760Y466901D01*
X433769Y467000D01*
X433774Y467099D01*
X433776Y467199D01*
X433774Y467298D01*
X433768Y467397D01*
X433758Y467496D01*
X433745Y467595D01*
X433727Y467693D01*
X433706Y467790D01*
X433682Y467886D01*
X433653Y467982D01*
X433621Y468076D01*
X433586Y468169D01*
X433547Y468260D01*
X433504Y468350D01*
X433458Y468438D01*
X433409Y468524D01*
X433356Y468609D01*
X433300Y468691D01*
X433241Y468771D01*
X433179Y468849D01*
X433114Y468924D01*
X433047Y468997D01*
X432976Y469067D01*
X432903Y469135D01*
X432827Y469199D01*
X432749Y469261D01*
X432669Y469320D01*
X432670Y469320D02*
X429479Y471554D01*
X424810Y474824D02*
X418108Y465253D01*
X412791Y468976D02*
X424810Y474824D01*
X419492Y478547D02*
X412791Y468976D01*
X408121Y472246D02*
X414822Y481817D01*
X412164Y483678D01*
X412164Y483679D02*
X412070Y483742D01*
X411974Y483802D01*
X411876Y483859D01*
X411776Y483912D01*
X411674Y483962D01*
X411570Y484008D01*
X411465Y484050D01*
X411359Y484089D01*
X411251Y484124D01*
X411142Y484155D01*
X411032Y484183D01*
X410921Y484206D01*
X410810Y484226D01*
X410698Y484242D01*
X410585Y484254D01*
X410472Y484262D01*
X410359Y484266D01*
X410245Y484266D01*
X410132Y484262D01*
X410019Y484254D01*
X409906Y484242D01*
X409794Y484226D01*
X409683Y484206D01*
X409572Y484183D01*
X409462Y484155D01*
X409353Y484124D01*
X409245Y484089D01*
X409139Y484050D01*
X409034Y484008D01*
X408930Y483962D01*
X408828Y483912D01*
X408728Y483859D01*
X408630Y483802D01*
X408534Y483742D01*
X408440Y483679D01*
X408349Y483612D01*
X408259Y483543D01*
X408172Y483470D01*
X408088Y483394D01*
X408007Y483315D01*
X407928Y483234D01*
X407852Y483150D01*
X407779Y483063D01*
X407710Y482974D01*
X407643Y482882D01*
X407644Y482881D02*
X404665Y478628D01*
X404602Y478534D01*
X404542Y478438D01*
X404485Y478340D01*
X404432Y478240D01*
X404382Y478138D01*
X404336Y478034D01*
X404294Y477929D01*
X404255Y477823D01*
X404220Y477715D01*
X404189Y477606D01*
X404161Y477496D01*
X404138Y477385D01*
X404118Y477274D01*
X404102Y477162D01*
X404090Y477049D01*
X404082Y476936D01*
X404078Y476823D01*
X404078Y476709D01*
X404082Y476596D01*
X404090Y476483D01*
X404102Y476370D01*
X404118Y476258D01*
X404138Y476147D01*
X404161Y476036D01*
X404189Y475926D01*
X404220Y475817D01*
X404255Y475709D01*
X404294Y475603D01*
X404336Y475498D01*
X404382Y475394D01*
X404432Y475292D01*
X404485Y475192D01*
X404542Y475094D01*
X404602Y474998D01*
X404665Y474904D01*
X404732Y474812D01*
X404801Y474723D01*
X404874Y474636D01*
X404950Y474552D01*
X405029Y474471D01*
X405110Y474392D01*
X405194Y474316D01*
X405281Y474243D01*
X405371Y474174D01*
X405462Y474107D01*
X408121Y472246D01*
X492049Y337254D02*
X492049Y335306D01*
X492049Y337254D02*
X485558Y337254D01*
X485558Y333359D01*
X485560Y333260D01*
X485566Y333160D01*
X485575Y333061D01*
X485588Y332963D01*
X485605Y332865D01*
X485626Y332767D01*
X485651Y332671D01*
X485679Y332576D01*
X485711Y332482D01*
X485746Y332389D01*
X485785Y332297D01*
X485828Y332207D01*
X485873Y332119D01*
X485923Y332032D01*
X485975Y331948D01*
X486031Y331865D01*
X486089Y331785D01*
X486151Y331707D01*
X486216Y331632D01*
X486284Y331559D01*
X486354Y331489D01*
X486427Y331421D01*
X486502Y331356D01*
X486580Y331294D01*
X486660Y331236D01*
X486743Y331180D01*
X486827Y331128D01*
X486914Y331078D01*
X487002Y331033D01*
X487092Y330990D01*
X487184Y330951D01*
X487277Y330916D01*
X487371Y330884D01*
X487466Y330856D01*
X487562Y330831D01*
X487660Y330810D01*
X487758Y330793D01*
X487856Y330780D01*
X487955Y330771D01*
X488055Y330765D01*
X488154Y330763D01*
X494646Y330763D01*
X494745Y330765D01*
X494845Y330771D01*
X494944Y330780D01*
X495042Y330793D01*
X495140Y330810D01*
X495238Y330831D01*
X495334Y330856D01*
X495429Y330884D01*
X495523Y330916D01*
X495616Y330951D01*
X495708Y330990D01*
X495798Y331033D01*
X495886Y331078D01*
X495973Y331128D01*
X496057Y331180D01*
X496140Y331236D01*
X496220Y331294D01*
X496298Y331356D01*
X496373Y331421D01*
X496446Y331489D01*
X496516Y331559D01*
X496584Y331632D01*
X496649Y331707D01*
X496711Y331785D01*
X496769Y331865D01*
X496825Y331948D01*
X496877Y332032D01*
X496927Y332119D01*
X496972Y332207D01*
X497015Y332297D01*
X497054Y332389D01*
X497089Y332481D01*
X497121Y332576D01*
X497149Y332671D01*
X497174Y332767D01*
X497195Y332865D01*
X497212Y332963D01*
X497225Y333061D01*
X497234Y333160D01*
X497240Y333260D01*
X497242Y333359D01*
X497242Y337254D01*
X497242Y342954D02*
X485558Y342954D01*
X485558Y349446D02*
X497242Y342954D01*
X497242Y349446D02*
X485558Y349446D01*
X485558Y355146D02*
X497242Y355146D01*
X497242Y358392D01*
X497240Y358505D01*
X497234Y358618D01*
X497224Y358731D01*
X497210Y358844D01*
X497193Y358956D01*
X497171Y359067D01*
X497146Y359177D01*
X497116Y359287D01*
X497083Y359395D01*
X497046Y359502D01*
X497006Y359608D01*
X496961Y359712D01*
X496913Y359815D01*
X496862Y359916D01*
X496807Y360015D01*
X496749Y360112D01*
X496687Y360207D01*
X496622Y360300D01*
X496554Y360390D01*
X496483Y360478D01*
X496408Y360564D01*
X496331Y360647D01*
X496251Y360727D01*
X496168Y360804D01*
X496082Y360879D01*
X495994Y360950D01*
X495904Y361018D01*
X495811Y361083D01*
X495716Y361145D01*
X495619Y361203D01*
X495520Y361258D01*
X495419Y361309D01*
X495316Y361357D01*
X495212Y361402D01*
X495106Y361442D01*
X494999Y361479D01*
X494891Y361512D01*
X494781Y361542D01*
X494671Y361567D01*
X494560Y361589D01*
X494448Y361606D01*
X494335Y361620D01*
X494222Y361630D01*
X494109Y361636D01*
X493996Y361638D01*
X488804Y361638D01*
X488691Y361636D01*
X488578Y361630D01*
X488465Y361620D01*
X488352Y361606D01*
X488240Y361589D01*
X488129Y361567D01*
X488019Y361542D01*
X487909Y361512D01*
X487801Y361479D01*
X487694Y361442D01*
X487588Y361402D01*
X487484Y361357D01*
X487381Y361309D01*
X487280Y361258D01*
X487181Y361203D01*
X487084Y361145D01*
X486989Y361083D01*
X486896Y361018D01*
X486806Y360950D01*
X486718Y360879D01*
X486632Y360804D01*
X486549Y360727D01*
X486469Y360647D01*
X486392Y360564D01*
X486317Y360478D01*
X486246Y360390D01*
X486178Y360300D01*
X486113Y360207D01*
X486051Y360112D01*
X485993Y360015D01*
X485938Y359916D01*
X485887Y359815D01*
X485839Y359712D01*
X485794Y359608D01*
X485754Y359502D01*
X485717Y359395D01*
X485684Y359287D01*
X485654Y359177D01*
X485629Y359067D01*
X485607Y358956D01*
X485590Y358844D01*
X485576Y358731D01*
X485566Y358618D01*
X485560Y358505D01*
X485558Y358392D01*
X485558Y355146D01*
X427351Y227280D02*
X425756Y226163D01*
X429479Y220846D01*
X432670Y223080D01*
X432669Y223080D02*
X432749Y223139D01*
X432827Y223201D01*
X432903Y223265D01*
X432976Y223333D01*
X433047Y223403D01*
X433114Y223476D01*
X433179Y223551D01*
X433241Y223629D01*
X433300Y223709D01*
X433356Y223791D01*
X433409Y223876D01*
X433458Y223962D01*
X433504Y224050D01*
X433547Y224140D01*
X433586Y224231D01*
X433621Y224324D01*
X433653Y224418D01*
X433682Y224514D01*
X433706Y224610D01*
X433727Y224707D01*
X433745Y224805D01*
X433758Y224904D01*
X433768Y225003D01*
X433774Y225102D01*
X433776Y225201D01*
X433774Y225301D01*
X433769Y225400D01*
X433759Y225499D01*
X433746Y225598D01*
X433730Y225696D01*
X433709Y225793D01*
X433685Y225890D01*
X433657Y225985D01*
X433625Y226079D01*
X433590Y226172D01*
X433551Y226264D01*
X433509Y226354D01*
X433463Y226442D01*
X433414Y226529D01*
X433362Y226613D01*
X433307Y226696D01*
X429584Y232013D01*
X429525Y232093D01*
X429463Y232171D01*
X429399Y232247D01*
X429331Y232320D01*
X429261Y232391D01*
X429188Y232458D01*
X429113Y232523D01*
X429035Y232585D01*
X428955Y232644D01*
X428873Y232700D01*
X428788Y232753D01*
X428702Y232802D01*
X428614Y232848D01*
X428524Y232891D01*
X428433Y232930D01*
X428340Y232965D01*
X428246Y232997D01*
X428150Y233026D01*
X428054Y233050D01*
X427957Y233071D01*
X427859Y233089D01*
X427760Y233102D01*
X427661Y233112D01*
X427562Y233118D01*
X427463Y233120D01*
X427363Y233118D01*
X427264Y233113D01*
X427165Y233104D01*
X427066Y233090D01*
X426968Y233074D01*
X426871Y233053D01*
X426774Y233029D01*
X426679Y233001D01*
X426585Y232969D01*
X426492Y232934D01*
X426400Y232895D01*
X426310Y232853D01*
X426222Y232807D01*
X426135Y232758D01*
X426051Y232706D01*
X425968Y232651D01*
X422778Y230417D01*
X418108Y227147D02*
X424809Y217576D01*
X419492Y213853D02*
X418108Y227147D01*
X412791Y223424D02*
X419492Y213853D01*
X414822Y210583D02*
X408121Y220154D01*
X405462Y218292D01*
X405462Y218293D02*
X405371Y218226D01*
X405281Y218157D01*
X405194Y218084D01*
X405110Y218008D01*
X405029Y217929D01*
X404950Y217848D01*
X404874Y217764D01*
X404801Y217677D01*
X404732Y217588D01*
X404665Y217496D01*
X404602Y217402D01*
X404542Y217306D01*
X404485Y217208D01*
X404432Y217108D01*
X404382Y217006D01*
X404336Y216902D01*
X404294Y216797D01*
X404255Y216691D01*
X404220Y216583D01*
X404189Y216474D01*
X404161Y216364D01*
X404138Y216253D01*
X404118Y216142D01*
X404102Y216030D01*
X404090Y215917D01*
X404082Y215804D01*
X404078Y215691D01*
X404078Y215577D01*
X404082Y215464D01*
X404090Y215351D01*
X404102Y215238D01*
X404118Y215126D01*
X404138Y215015D01*
X404161Y214904D01*
X404189Y214794D01*
X404220Y214685D01*
X404255Y214577D01*
X404294Y214471D01*
X404336Y214366D01*
X404382Y214262D01*
X404432Y214160D01*
X404485Y214060D01*
X404542Y213962D01*
X404602Y213866D01*
X404665Y213772D01*
X407644Y209518D01*
X407643Y209518D02*
X407710Y209427D01*
X407779Y209337D01*
X407852Y209250D01*
X407928Y209166D01*
X408007Y209085D01*
X408088Y209006D01*
X408172Y208930D01*
X408259Y208857D01*
X408349Y208788D01*
X408440Y208721D01*
X408534Y208658D01*
X408630Y208598D01*
X408728Y208541D01*
X408828Y208488D01*
X408930Y208438D01*
X409034Y208392D01*
X409139Y208350D01*
X409245Y208311D01*
X409353Y208276D01*
X409462Y208245D01*
X409572Y208217D01*
X409683Y208194D01*
X409794Y208174D01*
X409906Y208158D01*
X410019Y208146D01*
X410132Y208138D01*
X410245Y208134D01*
X410359Y208134D01*
X410472Y208138D01*
X410585Y208146D01*
X410698Y208158D01*
X410810Y208174D01*
X410921Y208194D01*
X411032Y208217D01*
X411142Y208245D01*
X411251Y208276D01*
X411359Y208311D01*
X411465Y208350D01*
X411570Y208392D01*
X411674Y208438D01*
X411776Y208488D01*
X411876Y208541D01*
X411974Y208598D01*
X412070Y208658D01*
X412164Y208721D01*
X414822Y210583D01*
X201649Y335306D02*
X201649Y337254D01*
X195158Y337254D01*
X195158Y333359D01*
X195160Y333260D01*
X195166Y333160D01*
X195175Y333061D01*
X195188Y332963D01*
X195205Y332865D01*
X195226Y332767D01*
X195251Y332671D01*
X195279Y332576D01*
X195311Y332482D01*
X195346Y332389D01*
X195385Y332297D01*
X195428Y332207D01*
X195473Y332119D01*
X195523Y332032D01*
X195575Y331948D01*
X195631Y331865D01*
X195689Y331785D01*
X195751Y331707D01*
X195816Y331632D01*
X195884Y331559D01*
X195954Y331489D01*
X196027Y331421D01*
X196102Y331356D01*
X196180Y331294D01*
X196260Y331236D01*
X196343Y331180D01*
X196427Y331128D01*
X196514Y331078D01*
X196602Y331033D01*
X196692Y330990D01*
X196784Y330951D01*
X196877Y330916D01*
X196971Y330884D01*
X197066Y330856D01*
X197162Y330831D01*
X197260Y330810D01*
X197358Y330793D01*
X197456Y330780D01*
X197555Y330771D01*
X197655Y330765D01*
X197754Y330763D01*
X204246Y330763D01*
X204345Y330765D01*
X204445Y330771D01*
X204544Y330780D01*
X204642Y330793D01*
X204740Y330810D01*
X204838Y330831D01*
X204934Y330856D01*
X205029Y330884D01*
X205123Y330916D01*
X205216Y330951D01*
X205308Y330990D01*
X205398Y331033D01*
X205486Y331078D01*
X205573Y331128D01*
X205657Y331180D01*
X205740Y331236D01*
X205820Y331294D01*
X205898Y331356D01*
X205973Y331421D01*
X206046Y331489D01*
X206116Y331559D01*
X206184Y331632D01*
X206249Y331707D01*
X206311Y331785D01*
X206369Y331865D01*
X206425Y331948D01*
X206477Y332032D01*
X206527Y332119D01*
X206572Y332207D01*
X206615Y332297D01*
X206654Y332389D01*
X206689Y332481D01*
X206721Y332576D01*
X206749Y332671D01*
X206774Y332767D01*
X206795Y332865D01*
X206812Y332963D01*
X206825Y333061D01*
X206834Y333160D01*
X206840Y333260D01*
X206842Y333359D01*
X206842Y337254D01*
X206842Y342954D02*
X195158Y342954D01*
X195158Y349446D02*
X206842Y342954D01*
X206842Y349446D02*
X195158Y349446D01*
X195158Y355146D02*
X206842Y355146D01*
X206842Y358392D01*
X206840Y358505D01*
X206834Y358618D01*
X206824Y358731D01*
X206810Y358844D01*
X206793Y358956D01*
X206771Y359067D01*
X206746Y359177D01*
X206716Y359287D01*
X206683Y359395D01*
X206646Y359502D01*
X206606Y359608D01*
X206561Y359712D01*
X206513Y359815D01*
X206462Y359916D01*
X206407Y360015D01*
X206349Y360112D01*
X206287Y360207D01*
X206222Y360300D01*
X206154Y360390D01*
X206083Y360478D01*
X206008Y360564D01*
X205931Y360647D01*
X205851Y360727D01*
X205768Y360804D01*
X205682Y360879D01*
X205594Y360950D01*
X205504Y361018D01*
X205411Y361083D01*
X205316Y361145D01*
X205219Y361203D01*
X205120Y361258D01*
X205019Y361309D01*
X204916Y361357D01*
X204812Y361402D01*
X204706Y361442D01*
X204599Y361479D01*
X204491Y361512D01*
X204381Y361542D01*
X204271Y361567D01*
X204160Y361589D01*
X204048Y361606D01*
X203935Y361620D01*
X203822Y361630D01*
X203709Y361636D01*
X203596Y361638D01*
X198404Y361638D01*
X198291Y361636D01*
X198178Y361630D01*
X198065Y361620D01*
X197952Y361606D01*
X197840Y361589D01*
X197729Y361567D01*
X197619Y361542D01*
X197509Y361512D01*
X197401Y361479D01*
X197294Y361442D01*
X197188Y361402D01*
X197084Y361357D01*
X196981Y361309D01*
X196880Y361258D01*
X196781Y361203D01*
X196684Y361145D01*
X196589Y361083D01*
X196496Y361018D01*
X196406Y360950D01*
X196318Y360879D01*
X196232Y360804D01*
X196149Y360727D01*
X196069Y360647D01*
X195992Y360564D01*
X195917Y360478D01*
X195846Y360390D01*
X195778Y360300D01*
X195713Y360207D01*
X195651Y360112D01*
X195593Y360015D01*
X195538Y359916D01*
X195487Y359815D01*
X195439Y359712D01*
X195394Y359608D01*
X195354Y359502D01*
X195317Y359395D01*
X195284Y359287D01*
X195254Y359177D01*
X195229Y359067D01*
X195207Y358956D01*
X195190Y358844D01*
X195176Y358731D01*
X195166Y358618D01*
X195160Y358505D01*
X195158Y358392D01*
X195158Y355146D01*
X280556Y477563D02*
X282151Y478680D01*
X280556Y477563D02*
X284279Y472246D01*
X287470Y474480D01*
X287469Y474480D02*
X287549Y474539D01*
X287627Y474601D01*
X287703Y474665D01*
X287776Y474733D01*
X287847Y474803D01*
X287914Y474876D01*
X287979Y474951D01*
X288041Y475029D01*
X288100Y475109D01*
X288156Y475191D01*
X288209Y475276D01*
X288258Y475362D01*
X288304Y475450D01*
X288347Y475540D01*
X288386Y475631D01*
X288421Y475724D01*
X288453Y475818D01*
X288482Y475914D01*
X288506Y476010D01*
X288527Y476107D01*
X288545Y476205D01*
X288558Y476304D01*
X288568Y476403D01*
X288574Y476502D01*
X288576Y476601D01*
X288574Y476701D01*
X288569Y476800D01*
X288559Y476899D01*
X288546Y476998D01*
X288530Y477096D01*
X288509Y477193D01*
X288485Y477290D01*
X288457Y477385D01*
X288425Y477479D01*
X288390Y477572D01*
X288351Y477664D01*
X288309Y477754D01*
X288263Y477842D01*
X288214Y477929D01*
X288162Y478013D01*
X288107Y478096D01*
X284384Y483413D01*
X284325Y483493D01*
X284263Y483571D01*
X284199Y483647D01*
X284131Y483720D01*
X284061Y483791D01*
X283988Y483858D01*
X283913Y483923D01*
X283835Y483985D01*
X283755Y484044D01*
X283673Y484100D01*
X283588Y484153D01*
X283502Y484202D01*
X283414Y484248D01*
X283324Y484291D01*
X283233Y484330D01*
X283140Y484365D01*
X283046Y484397D01*
X282950Y484426D01*
X282854Y484450D01*
X282757Y484471D01*
X282659Y484489D01*
X282560Y484502D01*
X282461Y484512D01*
X282362Y484518D01*
X282263Y484520D01*
X282163Y484518D01*
X282064Y484513D01*
X281965Y484504D01*
X281866Y484490D01*
X281768Y484474D01*
X281671Y484453D01*
X281574Y484429D01*
X281479Y484401D01*
X281385Y484369D01*
X281292Y484334D01*
X281200Y484295D01*
X281110Y484253D01*
X281022Y484207D01*
X280935Y484158D01*
X280851Y484106D01*
X280768Y484051D01*
X277578Y481817D01*
X272908Y478547D02*
X279609Y468976D01*
X274292Y465253D02*
X272908Y478547D01*
X267591Y474824D02*
X274292Y465253D01*
X269622Y461983D02*
X262921Y471554D01*
X260262Y469692D01*
X260262Y469693D02*
X260171Y469626D01*
X260081Y469557D01*
X259994Y469484D01*
X259910Y469408D01*
X259829Y469329D01*
X259750Y469248D01*
X259674Y469164D01*
X259601Y469077D01*
X259532Y468988D01*
X259465Y468896D01*
X259402Y468802D01*
X259342Y468706D01*
X259285Y468608D01*
X259232Y468508D01*
X259182Y468406D01*
X259136Y468302D01*
X259094Y468197D01*
X259055Y468091D01*
X259020Y467983D01*
X258989Y467874D01*
X258961Y467764D01*
X258938Y467653D01*
X258918Y467542D01*
X258902Y467430D01*
X258890Y467317D01*
X258882Y467204D01*
X258878Y467091D01*
X258878Y466977D01*
X258882Y466864D01*
X258890Y466751D01*
X258902Y466638D01*
X258918Y466526D01*
X258938Y466415D01*
X258961Y466304D01*
X258989Y466194D01*
X259020Y466085D01*
X259055Y465977D01*
X259094Y465871D01*
X259136Y465766D01*
X259182Y465662D01*
X259232Y465560D01*
X259285Y465460D01*
X259342Y465362D01*
X259402Y465266D01*
X259465Y465172D01*
X262444Y460918D01*
X262443Y460918D02*
X262510Y460827D01*
X262579Y460737D01*
X262652Y460650D01*
X262728Y460566D01*
X262807Y460485D01*
X262888Y460406D01*
X262972Y460330D01*
X263059Y460257D01*
X263149Y460188D01*
X263240Y460121D01*
X263334Y460058D01*
X263430Y459998D01*
X263528Y459941D01*
X263628Y459888D01*
X263730Y459838D01*
X263834Y459792D01*
X263939Y459750D01*
X264045Y459711D01*
X264153Y459676D01*
X264262Y459645D01*
X264372Y459617D01*
X264483Y459594D01*
X264594Y459574D01*
X264706Y459558D01*
X264819Y459546D01*
X264932Y459538D01*
X265045Y459534D01*
X265159Y459534D01*
X265272Y459538D01*
X265385Y459546D01*
X265498Y459558D01*
X265610Y459574D01*
X265721Y459594D01*
X265832Y459617D01*
X265942Y459645D01*
X266051Y459676D01*
X266159Y459711D01*
X266265Y459750D01*
X266370Y459792D01*
X266474Y459838D01*
X266576Y459888D01*
X266676Y459941D01*
X266774Y459998D01*
X266870Y460058D01*
X266964Y460121D01*
X269622Y461983D01*
D11*
X393575Y268493D02*
X393575Y250713D01*
X393575Y260591D02*
X383698Y260591D01*
X383698Y268493D02*
X383698Y250713D01*
X376267Y259603D02*
X376263Y259953D01*
X376250Y260302D01*
X376229Y260651D01*
X376200Y261000D01*
X376163Y261348D01*
X376117Y261695D01*
X376063Y262040D01*
X376001Y262384D01*
X375930Y262727D01*
X375851Y263068D01*
X375765Y263407D01*
X375670Y263743D01*
X375567Y264078D01*
X375456Y264409D01*
X375338Y264739D01*
X375211Y265065D01*
X375077Y265388D01*
X374935Y265707D01*
X374785Y266024D01*
X374745Y266137D01*
X374701Y266247D01*
X374653Y266357D01*
X374602Y266464D01*
X374547Y266570D01*
X374489Y266675D01*
X374427Y266777D01*
X374362Y266877D01*
X374294Y266975D01*
X374223Y267071D01*
X374148Y267164D01*
X374071Y267255D01*
X373991Y267343D01*
X373908Y267428D01*
X373822Y267511D01*
X373733Y267591D01*
X373642Y267668D01*
X373548Y267742D01*
X373452Y267813D01*
X373354Y267881D01*
X373254Y267945D01*
X373151Y268007D01*
X373047Y268064D01*
X372941Y268119D01*
X372833Y268170D01*
X372723Y268217D01*
X372612Y268261D01*
X372500Y268301D01*
X372386Y268337D01*
X372272Y268370D01*
X372156Y268399D01*
X372039Y268424D01*
X371922Y268445D01*
X371804Y268463D01*
X371685Y268476D01*
X371566Y268486D01*
X371447Y268492D01*
X371328Y268494D01*
X371328Y268493D02*
X371209Y268491D01*
X371090Y268485D01*
X370971Y268475D01*
X370852Y268462D01*
X370734Y268444D01*
X370617Y268423D01*
X370500Y268398D01*
X370384Y268369D01*
X370270Y268336D01*
X370156Y268300D01*
X370044Y268260D01*
X369933Y268216D01*
X369823Y268169D01*
X369715Y268118D01*
X369609Y268063D01*
X369505Y268006D01*
X369402Y267944D01*
X369302Y267880D01*
X369204Y267812D01*
X369108Y267741D01*
X369014Y267667D01*
X368923Y267590D01*
X368834Y267510D01*
X368749Y267427D01*
X368665Y267342D01*
X368585Y267254D01*
X368508Y267163D01*
X368433Y267070D01*
X368362Y266974D01*
X368294Y266876D01*
X368229Y266776D01*
X368167Y266674D01*
X368109Y266569D01*
X368054Y266464D01*
X368003Y266356D01*
X367955Y266246D01*
X367911Y266136D01*
X367871Y266023D01*
X367871Y266024D02*
X367721Y265707D01*
X367579Y265388D01*
X367445Y265065D01*
X367318Y264739D01*
X367200Y264409D01*
X367089Y264078D01*
X366986Y263743D01*
X366891Y263407D01*
X366805Y263068D01*
X366726Y262727D01*
X366655Y262384D01*
X366593Y262040D01*
X366539Y261695D01*
X366493Y261348D01*
X366456Y261000D01*
X366427Y260651D01*
X366406Y260302D01*
X366393Y259953D01*
X366389Y259603D01*
X376266Y259603D02*
X376262Y259253D01*
X376249Y258904D01*
X376228Y258555D01*
X376199Y258206D01*
X376162Y257858D01*
X376116Y257511D01*
X376062Y257166D01*
X376000Y256822D01*
X375929Y256479D01*
X375850Y256138D01*
X375764Y255799D01*
X375669Y255463D01*
X375566Y255128D01*
X375455Y254797D01*
X375337Y254468D01*
X375210Y254141D01*
X375076Y253818D01*
X374934Y253499D01*
X374784Y253183D01*
X374785Y253183D02*
X374745Y253070D01*
X374701Y252960D01*
X374653Y252850D01*
X374602Y252743D01*
X374547Y252637D01*
X374489Y252532D01*
X374427Y252430D01*
X374362Y252330D01*
X374294Y252232D01*
X374223Y252136D01*
X374148Y252043D01*
X374071Y251952D01*
X373991Y251864D01*
X373908Y251779D01*
X373822Y251696D01*
X373733Y251616D01*
X373642Y251539D01*
X373548Y251465D01*
X373452Y251394D01*
X373354Y251326D01*
X373254Y251262D01*
X373151Y251200D01*
X373047Y251143D01*
X372941Y251088D01*
X372833Y251037D01*
X372723Y250990D01*
X372612Y250946D01*
X372500Y250906D01*
X372386Y250870D01*
X372272Y250837D01*
X372156Y250808D01*
X372039Y250783D01*
X371922Y250762D01*
X371804Y250744D01*
X371685Y250731D01*
X371566Y250721D01*
X371447Y250715D01*
X371328Y250713D01*
X367871Y253183D02*
X367721Y253499D01*
X367579Y253818D01*
X367445Y254141D01*
X367318Y254468D01*
X367200Y254797D01*
X367089Y255128D01*
X366986Y255463D01*
X366891Y255799D01*
X366805Y256138D01*
X366726Y256479D01*
X366655Y256822D01*
X366593Y257166D01*
X366539Y257511D01*
X366493Y257858D01*
X366456Y258206D01*
X366427Y258555D01*
X366406Y258904D01*
X366393Y259253D01*
X366389Y259603D01*
X367871Y253183D02*
X367911Y253070D01*
X367955Y252960D01*
X368003Y252850D01*
X368054Y252742D01*
X368109Y252636D01*
X368167Y252532D01*
X368229Y252430D01*
X368294Y252330D01*
X368362Y252232D01*
X368433Y252136D01*
X368508Y252043D01*
X368585Y251952D01*
X368665Y251864D01*
X368749Y251779D01*
X368834Y251696D01*
X368923Y251616D01*
X369014Y251539D01*
X369108Y251465D01*
X369204Y251394D01*
X369302Y251326D01*
X369402Y251262D01*
X369505Y251200D01*
X369609Y251142D01*
X369715Y251088D01*
X369823Y251037D01*
X369933Y250990D01*
X370044Y250946D01*
X370156Y250906D01*
X370270Y250870D01*
X370384Y250837D01*
X370500Y250808D01*
X370617Y250783D01*
X370734Y250762D01*
X370852Y250744D01*
X370971Y250731D01*
X371090Y250721D01*
X371209Y250715D01*
X371328Y250713D01*
X375279Y254664D02*
X367377Y264542D01*
X359516Y259603D02*
X359512Y259953D01*
X359499Y260302D01*
X359478Y260651D01*
X359449Y261000D01*
X359412Y261348D01*
X359366Y261695D01*
X359312Y262040D01*
X359250Y262384D01*
X359179Y262727D01*
X359100Y263068D01*
X359014Y263407D01*
X358919Y263743D01*
X358816Y264078D01*
X358705Y264409D01*
X358587Y264739D01*
X358460Y265065D01*
X358326Y265388D01*
X358184Y265707D01*
X358034Y266024D01*
X357994Y266137D01*
X357950Y266247D01*
X357902Y266357D01*
X357851Y266464D01*
X357796Y266570D01*
X357738Y266675D01*
X357676Y266777D01*
X357611Y266877D01*
X357543Y266975D01*
X357472Y267071D01*
X357397Y267164D01*
X357320Y267255D01*
X357240Y267343D01*
X357157Y267428D01*
X357071Y267511D01*
X356982Y267591D01*
X356891Y267668D01*
X356797Y267742D01*
X356701Y267813D01*
X356603Y267881D01*
X356503Y267945D01*
X356400Y268007D01*
X356296Y268064D01*
X356190Y268119D01*
X356082Y268170D01*
X355972Y268217D01*
X355861Y268261D01*
X355749Y268301D01*
X355635Y268337D01*
X355521Y268370D01*
X355405Y268399D01*
X355288Y268424D01*
X355171Y268445D01*
X355053Y268463D01*
X354934Y268476D01*
X354815Y268486D01*
X354696Y268492D01*
X354577Y268494D01*
X354577Y268493D02*
X354458Y268491D01*
X354339Y268485D01*
X354220Y268475D01*
X354101Y268462D01*
X353983Y268444D01*
X353866Y268423D01*
X353749Y268398D01*
X353633Y268369D01*
X353519Y268336D01*
X353405Y268300D01*
X353293Y268260D01*
X353182Y268216D01*
X353072Y268169D01*
X352964Y268118D01*
X352858Y268063D01*
X352754Y268006D01*
X352651Y267944D01*
X352551Y267880D01*
X352453Y267812D01*
X352357Y267741D01*
X352263Y267667D01*
X352172Y267590D01*
X352083Y267510D01*
X351998Y267427D01*
X351914Y267342D01*
X351834Y267254D01*
X351757Y267163D01*
X351682Y267070D01*
X351611Y266974D01*
X351543Y266876D01*
X351478Y266776D01*
X351416Y266674D01*
X351358Y266569D01*
X351303Y266464D01*
X351252Y266356D01*
X351204Y266246D01*
X351160Y266136D01*
X351120Y266023D01*
X351120Y266024D02*
X350970Y265707D01*
X350828Y265388D01*
X350694Y265065D01*
X350567Y264739D01*
X350449Y264409D01*
X350338Y264078D01*
X350235Y263743D01*
X350140Y263407D01*
X350054Y263068D01*
X349975Y262727D01*
X349904Y262384D01*
X349842Y262040D01*
X349788Y261695D01*
X349742Y261348D01*
X349705Y261000D01*
X349676Y260651D01*
X349655Y260302D01*
X349642Y259953D01*
X349638Y259603D01*
X359516Y259603D02*
X359512Y259253D01*
X359499Y258904D01*
X359478Y258555D01*
X359449Y258206D01*
X359412Y257858D01*
X359366Y257511D01*
X359312Y257166D01*
X359250Y256822D01*
X359179Y256479D01*
X359100Y256138D01*
X359014Y255799D01*
X358919Y255463D01*
X358816Y255128D01*
X358705Y254797D01*
X358587Y254468D01*
X358460Y254141D01*
X358326Y253818D01*
X358184Y253499D01*
X358034Y253183D01*
X357994Y253070D01*
X357950Y252960D01*
X357902Y252850D01*
X357851Y252743D01*
X357796Y252637D01*
X357738Y252532D01*
X357676Y252430D01*
X357611Y252330D01*
X357543Y252232D01*
X357472Y252136D01*
X357397Y252043D01*
X357320Y251952D01*
X357240Y251864D01*
X357157Y251779D01*
X357071Y251696D01*
X356982Y251616D01*
X356891Y251539D01*
X356797Y251465D01*
X356701Y251394D01*
X356603Y251326D01*
X356503Y251262D01*
X356400Y251200D01*
X356296Y251143D01*
X356190Y251088D01*
X356082Y251037D01*
X355972Y250990D01*
X355861Y250946D01*
X355749Y250906D01*
X355635Y250870D01*
X355521Y250837D01*
X355405Y250808D01*
X355288Y250783D01*
X355171Y250762D01*
X355053Y250744D01*
X354934Y250731D01*
X354815Y250721D01*
X354696Y250715D01*
X354577Y250713D01*
X351121Y253183D02*
X350971Y253499D01*
X350829Y253818D01*
X350695Y254141D01*
X350568Y254468D01*
X350450Y254797D01*
X350339Y255128D01*
X350236Y255463D01*
X350141Y255799D01*
X350055Y256138D01*
X349976Y256479D01*
X349905Y256822D01*
X349843Y257166D01*
X349789Y257511D01*
X349743Y257858D01*
X349706Y258206D01*
X349677Y258555D01*
X349656Y258904D01*
X349643Y259253D01*
X349639Y259603D01*
X351120Y253183D02*
X351160Y253070D01*
X351204Y252960D01*
X351252Y252850D01*
X351303Y252742D01*
X351358Y252636D01*
X351416Y252532D01*
X351478Y252430D01*
X351543Y252330D01*
X351611Y252232D01*
X351682Y252136D01*
X351757Y252043D01*
X351834Y251952D01*
X351914Y251864D01*
X351998Y251779D01*
X352083Y251696D01*
X352172Y251616D01*
X352263Y251539D01*
X352357Y251465D01*
X352453Y251394D01*
X352551Y251326D01*
X352651Y251262D01*
X352754Y251200D01*
X352858Y251142D01*
X352964Y251088D01*
X353072Y251037D01*
X353182Y250990D01*
X353293Y250946D01*
X353405Y250906D01*
X353519Y250870D01*
X353633Y250837D01*
X353749Y250808D01*
X353866Y250783D01*
X353983Y250762D01*
X354101Y250744D01*
X354220Y250731D01*
X354339Y250721D01*
X354458Y250715D01*
X354577Y250713D01*
X358528Y254664D02*
X350626Y264542D01*
X342122Y268493D02*
X342122Y250713D01*
X342122Y268493D02*
X337183Y268493D01*
X337043Y268491D01*
X336904Y268485D01*
X336764Y268475D01*
X336625Y268461D01*
X336486Y268444D01*
X336348Y268422D01*
X336211Y268396D01*
X336074Y268367D01*
X335938Y268334D01*
X335804Y268297D01*
X335670Y268256D01*
X335538Y268211D01*
X335406Y268162D01*
X335277Y268110D01*
X335149Y268055D01*
X335022Y267995D01*
X334897Y267932D01*
X334774Y267866D01*
X334653Y267796D01*
X334534Y267723D01*
X334417Y267646D01*
X334303Y267566D01*
X334190Y267483D01*
X334080Y267397D01*
X333973Y267307D01*
X333868Y267215D01*
X333766Y267120D01*
X333666Y267022D01*
X333569Y266921D01*
X333475Y266817D01*
X333385Y266711D01*
X333297Y266602D01*
X333212Y266491D01*
X333131Y266377D01*
X333052Y266262D01*
X332977Y266144D01*
X332906Y266024D01*
X332838Y265901D01*
X332773Y265778D01*
X332712Y265652D01*
X332654Y265524D01*
X332600Y265396D01*
X332550Y265265D01*
X332503Y265133D01*
X332460Y265000D01*
X332421Y264866D01*
X332386Y264731D01*
X332355Y264595D01*
X332327Y264457D01*
X332304Y264320D01*
X332284Y264181D01*
X332268Y264042D01*
X332256Y263903D01*
X332248Y263764D01*
X332244Y263624D01*
X332244Y263484D01*
X332248Y263344D01*
X332256Y263205D01*
X332268Y263066D01*
X332284Y262927D01*
X332304Y262788D01*
X332327Y262651D01*
X332355Y262513D01*
X332386Y262377D01*
X332421Y262242D01*
X332460Y262108D01*
X332503Y261975D01*
X332550Y261843D01*
X332600Y261712D01*
X332654Y261584D01*
X332712Y261456D01*
X332773Y261330D01*
X332838Y261207D01*
X332906Y261084D01*
X332977Y260964D01*
X333052Y260846D01*
X333131Y260731D01*
X333212Y260617D01*
X333297Y260506D01*
X333385Y260397D01*
X333475Y260291D01*
X333569Y260187D01*
X333666Y260086D01*
X333766Y259988D01*
X333868Y259893D01*
X333973Y259801D01*
X334080Y259711D01*
X334190Y259625D01*
X334303Y259542D01*
X334417Y259462D01*
X334534Y259385D01*
X334653Y259312D01*
X334774Y259242D01*
X334897Y259176D01*
X335022Y259113D01*
X335149Y259053D01*
X335277Y258998D01*
X335406Y258946D01*
X335538Y258897D01*
X335670Y258852D01*
X335804Y258811D01*
X335938Y258774D01*
X336074Y258741D01*
X336211Y258712D01*
X336348Y258686D01*
X336486Y258664D01*
X336625Y258647D01*
X336764Y258633D01*
X336904Y258623D01*
X337043Y258617D01*
X337183Y258615D01*
X342122Y258615D01*
X336195Y258615D02*
X332244Y250713D01*
X325457Y264542D02*
X320518Y268493D01*
X320518Y250713D01*
X325457Y250713D02*
X315579Y250713D01*
X308706Y259603D02*
X308702Y259953D01*
X308689Y260302D01*
X308668Y260651D01*
X308639Y261000D01*
X308602Y261348D01*
X308556Y261695D01*
X308502Y262040D01*
X308440Y262384D01*
X308369Y262727D01*
X308290Y263068D01*
X308204Y263407D01*
X308109Y263743D01*
X308006Y264078D01*
X307895Y264409D01*
X307777Y264739D01*
X307650Y265065D01*
X307516Y265388D01*
X307374Y265707D01*
X307224Y266024D01*
X307225Y266024D02*
X307185Y266137D01*
X307141Y266247D01*
X307093Y266357D01*
X307042Y266464D01*
X306987Y266570D01*
X306929Y266675D01*
X306867Y266777D01*
X306802Y266877D01*
X306734Y266975D01*
X306663Y267071D01*
X306588Y267164D01*
X306511Y267255D01*
X306431Y267343D01*
X306348Y267428D01*
X306262Y267511D01*
X306173Y267591D01*
X306082Y267668D01*
X305988Y267742D01*
X305892Y267813D01*
X305794Y267881D01*
X305694Y267945D01*
X305591Y268007D01*
X305487Y268064D01*
X305381Y268119D01*
X305273Y268170D01*
X305163Y268217D01*
X305052Y268261D01*
X304940Y268301D01*
X304826Y268337D01*
X304712Y268370D01*
X304596Y268399D01*
X304479Y268424D01*
X304362Y268445D01*
X304244Y268463D01*
X304125Y268476D01*
X304006Y268486D01*
X303887Y268492D01*
X303768Y268494D01*
X303768Y268493D02*
X303649Y268491D01*
X303530Y268485D01*
X303411Y268475D01*
X303292Y268462D01*
X303174Y268444D01*
X303057Y268423D01*
X302940Y268398D01*
X302824Y268369D01*
X302710Y268336D01*
X302596Y268300D01*
X302484Y268260D01*
X302373Y268216D01*
X302263Y268169D01*
X302155Y268118D01*
X302049Y268063D01*
X301945Y268006D01*
X301842Y267944D01*
X301742Y267880D01*
X301644Y267812D01*
X301548Y267741D01*
X301454Y267667D01*
X301363Y267590D01*
X301274Y267510D01*
X301189Y267427D01*
X301105Y267342D01*
X301025Y267254D01*
X300948Y267163D01*
X300873Y267070D01*
X300802Y266974D01*
X300734Y266876D01*
X300669Y266776D01*
X300607Y266674D01*
X300549Y266569D01*
X300494Y266464D01*
X300443Y266356D01*
X300395Y266246D01*
X300351Y266136D01*
X300311Y266023D01*
X300311Y266024D02*
X300161Y265707D01*
X300019Y265388D01*
X299885Y265065D01*
X299758Y264739D01*
X299640Y264409D01*
X299529Y264078D01*
X299426Y263743D01*
X299331Y263407D01*
X299245Y263068D01*
X299166Y262727D01*
X299095Y262384D01*
X299033Y262040D01*
X298979Y261695D01*
X298933Y261348D01*
X298896Y261000D01*
X298867Y260651D01*
X298846Y260302D01*
X298833Y259953D01*
X298829Y259603D01*
X308706Y259603D02*
X308702Y259253D01*
X308689Y258904D01*
X308668Y258555D01*
X308639Y258206D01*
X308602Y257858D01*
X308556Y257511D01*
X308502Y257166D01*
X308440Y256822D01*
X308369Y256479D01*
X308290Y256138D01*
X308204Y255799D01*
X308109Y255463D01*
X308006Y255128D01*
X307895Y254797D01*
X307777Y254468D01*
X307650Y254141D01*
X307516Y253818D01*
X307374Y253499D01*
X307224Y253183D01*
X307225Y253183D02*
X307185Y253070D01*
X307141Y252960D01*
X307093Y252850D01*
X307042Y252743D01*
X306987Y252637D01*
X306929Y252532D01*
X306867Y252430D01*
X306802Y252330D01*
X306734Y252232D01*
X306663Y252136D01*
X306588Y252043D01*
X306511Y251952D01*
X306431Y251864D01*
X306348Y251779D01*
X306262Y251696D01*
X306173Y251616D01*
X306082Y251539D01*
X305988Y251465D01*
X305892Y251394D01*
X305794Y251326D01*
X305694Y251262D01*
X305591Y251200D01*
X305487Y251143D01*
X305381Y251088D01*
X305273Y251037D01*
X305163Y250990D01*
X305052Y250946D01*
X304940Y250906D01*
X304826Y250870D01*
X304712Y250837D01*
X304596Y250808D01*
X304479Y250783D01*
X304362Y250762D01*
X304244Y250744D01*
X304125Y250731D01*
X304006Y250721D01*
X303887Y250715D01*
X303768Y250713D01*
X300311Y253183D02*
X300161Y253499D01*
X300019Y253818D01*
X299885Y254141D01*
X299758Y254468D01*
X299640Y254797D01*
X299529Y255128D01*
X299426Y255463D01*
X299331Y255799D01*
X299245Y256138D01*
X299166Y256479D01*
X299095Y256822D01*
X299033Y257166D01*
X298979Y257511D01*
X298933Y257858D01*
X298896Y258206D01*
X298867Y258555D01*
X298846Y258904D01*
X298833Y259253D01*
X298829Y259603D01*
X300311Y253183D02*
X300351Y253070D01*
X300395Y252960D01*
X300443Y252850D01*
X300494Y252742D01*
X300549Y252636D01*
X300607Y252532D01*
X300669Y252430D01*
X300734Y252330D01*
X300802Y252232D01*
X300873Y252136D01*
X300948Y252043D01*
X301025Y251952D01*
X301105Y251864D01*
X301189Y251779D01*
X301274Y251696D01*
X301363Y251616D01*
X301454Y251539D01*
X301548Y251465D01*
X301644Y251394D01*
X301742Y251326D01*
X301842Y251262D01*
X301945Y251200D01*
X302049Y251142D01*
X302155Y251088D01*
X302263Y251037D01*
X302373Y250990D01*
X302484Y250946D01*
X302596Y250906D01*
X302710Y250870D01*
X302824Y250837D01*
X302940Y250808D01*
X303057Y250783D01*
X303174Y250762D01*
X303292Y250744D01*
X303411Y250731D01*
X303530Y250721D01*
X303649Y250715D01*
X303768Y250713D01*
X307719Y254664D02*
X299816Y264542D01*
D12*
X311202Y346202D02*
X311213Y347061D01*
X311244Y347919D01*
X311297Y348777D01*
X311371Y349633D01*
X311465Y350486D01*
X311581Y351338D01*
X311717Y352186D01*
X311875Y353030D01*
X312052Y353871D01*
X312251Y354706D01*
X312470Y355537D01*
X312709Y356362D01*
X312969Y357181D01*
X313248Y357993D01*
X313547Y358798D01*
X313866Y359596D01*
X314205Y360385D01*
X314562Y361166D01*
X314939Y361938D01*
X315335Y362701D01*
X315749Y363453D01*
X316181Y364196D01*
X316632Y364927D01*
X317101Y365647D01*
X317587Y366355D01*
X318090Y367051D01*
X318610Y367735D01*
X319147Y368406D01*
X319700Y369063D01*
X320269Y369707D01*
X320853Y370336D01*
X321453Y370951D01*
X322068Y371551D01*
X322697Y372135D01*
X323341Y372704D01*
X323998Y373257D01*
X324669Y373794D01*
X325353Y374314D01*
X326049Y374817D01*
X326757Y375303D01*
X327477Y375772D01*
X328208Y376223D01*
X328951Y376655D01*
X329703Y377069D01*
X330466Y377465D01*
X331238Y377842D01*
X332019Y378199D01*
X332808Y378538D01*
X333606Y378857D01*
X334411Y379156D01*
X335223Y379435D01*
X336042Y379695D01*
X336867Y379934D01*
X337698Y380153D01*
X338533Y380352D01*
X339374Y380529D01*
X340218Y380687D01*
X341066Y380823D01*
X341918Y380939D01*
X342771Y381033D01*
X343627Y381107D01*
X344485Y381160D01*
X345343Y381191D01*
X346202Y381202D01*
X347061Y381191D01*
X347919Y381160D01*
X348777Y381107D01*
X349633Y381033D01*
X350486Y380939D01*
X351338Y380823D01*
X352186Y380687D01*
X353030Y380529D01*
X353871Y380352D01*
X354706Y380153D01*
X355537Y379934D01*
X356362Y379695D01*
X357181Y379435D01*
X357993Y379156D01*
X358798Y378857D01*
X359596Y378538D01*
X360385Y378199D01*
X361166Y377842D01*
X361938Y377465D01*
X362701Y377069D01*
X363453Y376655D01*
X364196Y376223D01*
X364927Y375772D01*
X365647Y375303D01*
X366355Y374817D01*
X367051Y374314D01*
X367735Y373794D01*
X368406Y373257D01*
X369063Y372704D01*
X369707Y372135D01*
X370336Y371551D01*
X370951Y370951D01*
X371551Y370336D01*
X372135Y369707D01*
X372704Y369063D01*
X373257Y368406D01*
X373794Y367735D01*
X374314Y367051D01*
X374817Y366355D01*
X375303Y365647D01*
X375772Y364927D01*
X376223Y364196D01*
X376655Y363453D01*
X377069Y362701D01*
X377465Y361938D01*
X377842Y361166D01*
X378199Y360385D01*
X378538Y359596D01*
X378857Y358798D01*
X379156Y357993D01*
X379435Y357181D01*
X379695Y356362D01*
X379934Y355537D01*
X380153Y354706D01*
X380352Y353871D01*
X380529Y353030D01*
X380687Y352186D01*
X380823Y351338D01*
X380939Y350486D01*
X381033Y349633D01*
X381107Y348777D01*
X381160Y347919D01*
X381191Y347061D01*
X381202Y346202D01*
X381191Y345343D01*
X381160Y344485D01*
X381107Y343627D01*
X381033Y342771D01*
X380939Y341918D01*
X380823Y341066D01*
X380687Y340218D01*
X380529Y339374D01*
X380352Y338533D01*
X380153Y337698D01*
X379934Y336867D01*
X379695Y336042D01*
X379435Y335223D01*
X379156Y334411D01*
X378857Y333606D01*
X378538Y332808D01*
X378199Y332019D01*
X377842Y331238D01*
X377465Y330466D01*
X377069Y329703D01*
X376655Y328951D01*
X376223Y328208D01*
X375772Y327477D01*
X375303Y326757D01*
X374817Y326049D01*
X374314Y325353D01*
X373794Y324669D01*
X373257Y323998D01*
X372704Y323341D01*
X372135Y322697D01*
X371551Y322068D01*
X370951Y321453D01*
X370336Y320853D01*
X369707Y320269D01*
X369063Y319700D01*
X368406Y319147D01*
X367735Y318610D01*
X367051Y318090D01*
X366355Y317587D01*
X365647Y317101D01*
X364927Y316632D01*
X364196Y316181D01*
X363453Y315749D01*
X362701Y315335D01*
X361938Y314939D01*
X361166Y314562D01*
X360385Y314205D01*
X359596Y313866D01*
X358798Y313547D01*
X357993Y313248D01*
X357181Y312969D01*
X356362Y312709D01*
X355537Y312470D01*
X354706Y312251D01*
X353871Y312052D01*
X353030Y311875D01*
X352186Y311717D01*
X351338Y311581D01*
X350486Y311465D01*
X349633Y311371D01*
X348777Y311297D01*
X347919Y311244D01*
X347061Y311213D01*
X346202Y311202D01*
X345343Y311213D01*
X344485Y311244D01*
X343627Y311297D01*
X342771Y311371D01*
X341918Y311465D01*
X341066Y311581D01*
X340218Y311717D01*
X339374Y311875D01*
X338533Y312052D01*
X337698Y312251D01*
X336867Y312470D01*
X336042Y312709D01*
X335223Y312969D01*
X334411Y313248D01*
X333606Y313547D01*
X332808Y313866D01*
X332019Y314205D01*
X331238Y314562D01*
X330466Y314939D01*
X329703Y315335D01*
X328951Y315749D01*
X328208Y316181D01*
X327477Y316632D01*
X326757Y317101D01*
X326049Y317587D01*
X325353Y318090D01*
X324669Y318610D01*
X323998Y319147D01*
X323341Y319700D01*
X322697Y320269D01*
X322068Y320853D01*
X321453Y321453D01*
X320853Y322068D01*
X320269Y322697D01*
X319700Y323341D01*
X319147Y323998D01*
X318610Y324669D01*
X318090Y325353D01*
X317587Y326049D01*
X317101Y326757D01*
X316632Y327477D01*
X316181Y328208D01*
X315749Y328951D01*
X315335Y329703D01*
X314939Y330466D01*
X314562Y331238D01*
X314205Y332019D01*
X313866Y332808D01*
X313547Y333606D01*
X313248Y334411D01*
X312969Y335223D01*
X312709Y336042D01*
X312470Y336867D01*
X312251Y337698D01*
X312052Y338533D01*
X311875Y339374D01*
X311717Y340218D01*
X311581Y341066D01*
X311465Y341918D01*
X311371Y342771D01*
X311297Y343627D01*
X311244Y344485D01*
X311213Y345343D01*
X311202Y346202D01*
X300202Y346202D02*
X300216Y347331D01*
X300257Y348459D01*
X300327Y349586D01*
X300424Y350711D01*
X300548Y351833D01*
X300700Y352952D01*
X300879Y354066D01*
X301086Y355176D01*
X301320Y356281D01*
X301581Y357379D01*
X301868Y358471D01*
X302183Y359555D01*
X302524Y360631D01*
X302891Y361699D01*
X303284Y362757D01*
X303704Y363805D01*
X304148Y364843D01*
X304618Y365870D01*
X305114Y366884D01*
X305634Y367886D01*
X306178Y368875D01*
X306746Y369851D01*
X307339Y370812D01*
X307954Y371758D01*
X308593Y372689D01*
X309254Y373604D01*
X309938Y374503D01*
X310644Y375384D01*
X311370Y376248D01*
X312118Y377094D01*
X312887Y377921D01*
X313675Y378729D01*
X314483Y379517D01*
X315310Y380286D01*
X316156Y381034D01*
X317020Y381760D01*
X317901Y382466D01*
X318800Y383150D01*
X319715Y383811D01*
X320646Y384450D01*
X321592Y385065D01*
X322553Y385658D01*
X323529Y386226D01*
X324518Y386770D01*
X325520Y387290D01*
X326534Y387786D01*
X327561Y388256D01*
X328599Y388700D01*
X329647Y389120D01*
X330705Y389513D01*
X331773Y389880D01*
X332849Y390221D01*
X333933Y390536D01*
X335025Y390823D01*
X336123Y391084D01*
X337228Y391318D01*
X338338Y391525D01*
X339452Y391704D01*
X340571Y391856D01*
X341693Y391980D01*
X342818Y392077D01*
X343945Y392147D01*
X345073Y392188D01*
X346202Y392202D01*
X347331Y392188D01*
X348459Y392147D01*
X349586Y392077D01*
X350711Y391980D01*
X351833Y391856D01*
X352952Y391704D01*
X354066Y391525D01*
X355176Y391318D01*
X356281Y391084D01*
X357379Y390823D01*
X358471Y390536D01*
X359555Y390221D01*
X360631Y389880D01*
X361699Y389513D01*
X362757Y389120D01*
X363805Y388700D01*
X364843Y388256D01*
X365870Y387786D01*
X366884Y387290D01*
X367886Y386770D01*
X368875Y386226D01*
X369851Y385658D01*
X370812Y385065D01*
X371758Y384450D01*
X372689Y383811D01*
X373604Y383150D01*
X374503Y382466D01*
X375384Y381760D01*
X376248Y381034D01*
X377094Y380286D01*
X377921Y379517D01*
X378729Y378729D01*
X379517Y377921D01*
X380286Y377094D01*
X381034Y376248D01*
X381760Y375384D01*
X382466Y374503D01*
X383150Y373604D01*
X383811Y372689D01*
X384450Y371758D01*
X385065Y370812D01*
X385658Y369851D01*
X386226Y368875D01*
X386770Y367886D01*
X387290Y366884D01*
X387786Y365870D01*
X388256Y364843D01*
X388700Y363805D01*
X389120Y362757D01*
X389513Y361699D01*
X389880Y360631D01*
X390221Y359555D01*
X390536Y358471D01*
X390823Y357379D01*
X391084Y356281D01*
X391318Y355176D01*
X391525Y354066D01*
X391704Y352952D01*
X391856Y351833D01*
X391980Y350711D01*
X392077Y349586D01*
X392147Y348459D01*
X392188Y347331D01*
X392202Y346202D01*
X392188Y345073D01*
X392147Y343945D01*
X392077Y342818D01*
X391980Y341693D01*
X391856Y340571D01*
X391704Y339452D01*
X391525Y338338D01*
X391318Y337228D01*
X391084Y336123D01*
X390823Y335025D01*
X390536Y333933D01*
X390221Y332849D01*
X389880Y331773D01*
X389513Y330705D01*
X389120Y329647D01*
X388700Y328599D01*
X388256Y327561D01*
X387786Y326534D01*
X387290Y325520D01*
X386770Y324518D01*
X386226Y323529D01*
X385658Y322553D01*
X385065Y321592D01*
X384450Y320646D01*
X383811Y319715D01*
X383150Y318800D01*
X382466Y317901D01*
X381760Y317020D01*
X381034Y316156D01*
X380286Y315310D01*
X379517Y314483D01*
X378729Y313675D01*
X377921Y312887D01*
X377094Y312118D01*
X376248Y311370D01*
X375384Y310644D01*
X374503Y309938D01*
X373604Y309254D01*
X372689Y308593D01*
X371758Y307954D01*
X370812Y307339D01*
X369851Y306746D01*
X368875Y306178D01*
X367886Y305634D01*
X366884Y305114D01*
X365870Y304618D01*
X364843Y304148D01*
X363805Y303704D01*
X362757Y303284D01*
X361699Y302891D01*
X360631Y302524D01*
X359555Y302183D01*
X358471Y301868D01*
X357379Y301581D01*
X356281Y301320D01*
X355176Y301086D01*
X354066Y300879D01*
X352952Y300700D01*
X351833Y300548D01*
X350711Y300424D01*
X349586Y300327D01*
X348459Y300257D01*
X347331Y300216D01*
X346202Y300202D01*
X345073Y300216D01*
X343945Y300257D01*
X342818Y300327D01*
X341693Y300424D01*
X340571Y300548D01*
X339452Y300700D01*
X338338Y300879D01*
X337228Y301086D01*
X336123Y301320D01*
X335025Y301581D01*
X333933Y301868D01*
X332849Y302183D01*
X331773Y302524D01*
X330705Y302891D01*
X329647Y303284D01*
X328599Y303704D01*
X327561Y304148D01*
X326534Y304618D01*
X325520Y305114D01*
X324518Y305634D01*
X323529Y306178D01*
X322553Y306746D01*
X321592Y307339D01*
X320646Y307954D01*
X319715Y308593D01*
X318800Y309254D01*
X317901Y309938D01*
X317020Y310644D01*
X316156Y311370D01*
X315310Y312118D01*
X314483Y312887D01*
X313675Y313675D01*
X312887Y314483D01*
X312118Y315310D01*
X311370Y316156D01*
X310644Y317020D01*
X309938Y317901D01*
X309254Y318800D01*
X308593Y319715D01*
X307954Y320646D01*
X307339Y321592D01*
X306746Y322553D01*
X306178Y323529D01*
X305634Y324518D01*
X305114Y325520D01*
X304618Y326534D01*
X304148Y327561D01*
X303704Y328599D01*
X303284Y329647D01*
X302891Y330705D01*
X302524Y331773D01*
X302183Y332849D01*
X301868Y333933D01*
X301581Y335025D01*
X301320Y336123D01*
X301086Y337228D01*
X300879Y338338D01*
X300700Y339452D01*
X300548Y340571D01*
X300424Y341693D01*
X300327Y342818D01*
X300257Y343945D01*
X300216Y345073D01*
X300202Y346202D01*
X317702Y346202D02*
X317711Y346901D01*
X317736Y347600D01*
X317779Y348299D01*
X317839Y348995D01*
X317916Y349691D01*
X318010Y350384D01*
X318122Y351074D01*
X318250Y351762D01*
X318394Y352446D01*
X318556Y353127D01*
X318734Y353803D01*
X318929Y354475D01*
X319140Y355142D01*
X319368Y355803D01*
X319612Y356459D01*
X319871Y357108D01*
X320147Y357751D01*
X320438Y358387D01*
X320745Y359016D01*
X321067Y359637D01*
X321405Y360250D01*
X321757Y360854D01*
X322124Y361449D01*
X322505Y362036D01*
X322901Y362613D01*
X323311Y363179D01*
X323734Y363736D01*
X324171Y364282D01*
X324622Y364817D01*
X325085Y365341D01*
X325561Y365854D01*
X326049Y366355D01*
X326550Y366843D01*
X327063Y367319D01*
X327587Y367782D01*
X328122Y368233D01*
X328668Y368670D01*
X329225Y369093D01*
X329791Y369503D01*
X330368Y369899D01*
X330955Y370280D01*
X331550Y370647D01*
X332154Y370999D01*
X332767Y371337D01*
X333388Y371659D01*
X334017Y371966D01*
X334653Y372257D01*
X335296Y372533D01*
X335945Y372792D01*
X336601Y373036D01*
X337262Y373264D01*
X337929Y373475D01*
X338601Y373670D01*
X339277Y373848D01*
X339958Y374010D01*
X340642Y374154D01*
X341330Y374282D01*
X342020Y374394D01*
X342713Y374488D01*
X343409Y374565D01*
X344105Y374625D01*
X344804Y374668D01*
X345503Y374693D01*
X346202Y374702D01*
X346901Y374693D01*
X347600Y374668D01*
X348299Y374625D01*
X348995Y374565D01*
X349691Y374488D01*
X350384Y374394D01*
X351074Y374282D01*
X351762Y374154D01*
X352446Y374010D01*
X353127Y373848D01*
X353803Y373670D01*
X354475Y373475D01*
X355142Y373264D01*
X355803Y373036D01*
X356459Y372792D01*
X357108Y372533D01*
X357751Y372257D01*
X358387Y371966D01*
X359016Y371659D01*
X359637Y371337D01*
X360250Y370999D01*
X360854Y370647D01*
X361449Y370280D01*
X362036Y369899D01*
X362613Y369503D01*
X363179Y369093D01*
X363736Y368670D01*
X364282Y368233D01*
X364817Y367782D01*
X365341Y367319D01*
X365854Y366843D01*
X366355Y366355D01*
X366843Y365854D01*
X367319Y365341D01*
X367782Y364817D01*
X368233Y364282D01*
X368670Y363736D01*
X369093Y363179D01*
X369503Y362613D01*
X369899Y362036D01*
X370280Y361449D01*
X370647Y360854D01*
X370999Y360250D01*
X371337Y359637D01*
X371659Y359016D01*
X371966Y358387D01*
X372257Y357751D01*
X372533Y357108D01*
X372792Y356459D01*
X373036Y355803D01*
X373264Y355142D01*
X373475Y354475D01*
X373670Y353803D01*
X373848Y353127D01*
X374010Y352446D01*
X374154Y351762D01*
X374282Y351074D01*
X374394Y350384D01*
X374488Y349691D01*
X374565Y348995D01*
X374625Y348299D01*
X374668Y347600D01*
X374693Y346901D01*
X374702Y346202D01*
X374693Y345503D01*
X374668Y344804D01*
X374625Y344105D01*
X374565Y343409D01*
X374488Y342713D01*
X374394Y342020D01*
X374282Y341330D01*
X374154Y340642D01*
X374010Y339958D01*
X373848Y339277D01*
X373670Y338601D01*
X373475Y337929D01*
X373264Y337262D01*
X373036Y336601D01*
X372792Y335945D01*
X372533Y335296D01*
X372257Y334653D01*
X371966Y334017D01*
X371659Y333388D01*
X371337Y332767D01*
X370999Y332154D01*
X370647Y331550D01*
X370280Y330955D01*
X369899Y330368D01*
X369503Y329791D01*
X369093Y329225D01*
X368670Y328668D01*
X368233Y328122D01*
X367782Y327587D01*
X367319Y327063D01*
X366843Y326550D01*
X366355Y326049D01*
X365854Y325561D01*
X365341Y325085D01*
X364817Y324622D01*
X364282Y324171D01*
X363736Y323734D01*
X363179Y323311D01*
X362613Y322901D01*
X362036Y322505D01*
X361449Y322124D01*
X360854Y321757D01*
X360250Y321405D01*
X359637Y321067D01*
X359016Y320745D01*
X358387Y320438D01*
X357751Y320147D01*
X357108Y319871D01*
X356459Y319612D01*
X355803Y319368D01*
X355142Y319140D01*
X354475Y318929D01*
X353803Y318734D01*
X353127Y318556D01*
X352446Y318394D01*
X351762Y318250D01*
X351074Y318122D01*
X350384Y318010D01*
X349691Y317916D01*
X348995Y317839D01*
X348299Y317779D01*
X347600Y317736D01*
X346901Y317711D01*
X346202Y317702D01*
X345503Y317711D01*
X344804Y317736D01*
X344105Y317779D01*
X343409Y317839D01*
X342713Y317916D01*
X342020Y318010D01*
X341330Y318122D01*
X340642Y318250D01*
X339958Y318394D01*
X339277Y318556D01*
X338601Y318734D01*
X337929Y318929D01*
X337262Y319140D01*
X336601Y319368D01*
X335945Y319612D01*
X335296Y319871D01*
X334653Y320147D01*
X334017Y320438D01*
X333388Y320745D01*
X332767Y321067D01*
X332154Y321405D01*
X331550Y321757D01*
X330955Y322124D01*
X330368Y322505D01*
X329791Y322901D01*
X329225Y323311D01*
X328668Y323734D01*
X328122Y324171D01*
X327587Y324622D01*
X327063Y325085D01*
X326550Y325561D01*
X326049Y326049D01*
X325561Y326550D01*
X325085Y327063D01*
X324622Y327587D01*
X324171Y328122D01*
X323734Y328668D01*
X323311Y329225D01*
X322901Y329791D01*
X322505Y330368D01*
X322124Y330955D01*
X321757Y331550D01*
X321405Y332154D01*
X321067Y332767D01*
X320745Y333388D01*
X320438Y334017D01*
X320147Y334653D01*
X319871Y335296D01*
X319612Y335945D01*
X319368Y336601D01*
X319140Y337262D01*
X318929Y337929D01*
X318734Y338601D01*
X318556Y339277D01*
X318394Y339958D01*
X318250Y340642D01*
X318122Y341330D01*
X318010Y342020D01*
X317916Y342713D01*
X317839Y343409D01*
X317779Y344105D01*
X317736Y344804D01*
X317711Y345503D01*
X317702Y346202D01*
D10*
X282991Y215840D02*
X284586Y214723D01*
X282991Y215840D02*
X279268Y210523D01*
X282458Y208289D01*
X282541Y208234D01*
X282625Y208182D01*
X282712Y208133D01*
X282800Y208087D01*
X282890Y208045D01*
X282982Y208006D01*
X283075Y207971D01*
X283169Y207939D01*
X283264Y207911D01*
X283361Y207887D01*
X283458Y207866D01*
X283556Y207850D01*
X283655Y207836D01*
X283754Y207827D01*
X283853Y207822D01*
X283953Y207820D01*
X284052Y207822D01*
X284151Y207828D01*
X284250Y207838D01*
X284349Y207851D01*
X284447Y207869D01*
X284544Y207890D01*
X284640Y207914D01*
X284736Y207943D01*
X284830Y207975D01*
X284923Y208010D01*
X285014Y208049D01*
X285104Y208092D01*
X285192Y208138D01*
X285278Y208187D01*
X285363Y208240D01*
X285445Y208296D01*
X285525Y208355D01*
X285603Y208417D01*
X285678Y208482D01*
X285751Y208549D01*
X285821Y208620D01*
X285889Y208693D01*
X285953Y208769D01*
X286015Y208847D01*
X286074Y208927D01*
X289797Y214244D01*
X289852Y214327D01*
X289904Y214411D01*
X289953Y214498D01*
X289999Y214586D01*
X290041Y214676D01*
X290080Y214768D01*
X290115Y214861D01*
X290147Y214955D01*
X290175Y215050D01*
X290199Y215147D01*
X290220Y215244D01*
X290236Y215342D01*
X290250Y215441D01*
X290259Y215540D01*
X290264Y215639D01*
X290266Y215739D01*
X290264Y215838D01*
X290258Y215937D01*
X290248Y216036D01*
X290235Y216135D01*
X290217Y216233D01*
X290196Y216330D01*
X290172Y216426D01*
X290143Y216522D01*
X290111Y216616D01*
X290076Y216709D01*
X290037Y216800D01*
X289994Y216890D01*
X289948Y216978D01*
X289899Y217064D01*
X289846Y217149D01*
X289790Y217231D01*
X289731Y217311D01*
X289669Y217389D01*
X289604Y217464D01*
X289537Y217537D01*
X289466Y217607D01*
X289393Y217675D01*
X289317Y217739D01*
X289239Y217801D01*
X289159Y217860D01*
X289160Y217860D02*
X285969Y220094D01*
X281300Y223364D02*
X274598Y213793D01*
X269281Y217516D02*
X281300Y223364D01*
X275982Y227087D02*
X269281Y217516D01*
X264611Y220786D02*
X271312Y230357D01*
X268654Y232218D01*
X268654Y232219D02*
X268560Y232282D01*
X268464Y232342D01*
X268366Y232399D01*
X268266Y232452D01*
X268164Y232502D01*
X268060Y232548D01*
X267955Y232590D01*
X267849Y232629D01*
X267741Y232664D01*
X267632Y232695D01*
X267522Y232723D01*
X267411Y232746D01*
X267300Y232766D01*
X267188Y232782D01*
X267075Y232794D01*
X266962Y232802D01*
X266849Y232806D01*
X266735Y232806D01*
X266622Y232802D01*
X266509Y232794D01*
X266396Y232782D01*
X266284Y232766D01*
X266173Y232746D01*
X266062Y232723D01*
X265952Y232695D01*
X265843Y232664D01*
X265735Y232629D01*
X265629Y232590D01*
X265524Y232548D01*
X265420Y232502D01*
X265318Y232452D01*
X265218Y232399D01*
X265120Y232342D01*
X265024Y232282D01*
X264930Y232219D01*
X264839Y232152D01*
X264749Y232083D01*
X264662Y232010D01*
X264578Y231934D01*
X264497Y231855D01*
X264418Y231774D01*
X264342Y231690D01*
X264269Y231603D01*
X264200Y231514D01*
X264133Y231422D01*
X264134Y231421D02*
X261155Y227168D01*
X261092Y227074D01*
X261032Y226978D01*
X260975Y226880D01*
X260922Y226780D01*
X260872Y226678D01*
X260826Y226574D01*
X260784Y226469D01*
X260745Y226363D01*
X260710Y226255D01*
X260679Y226146D01*
X260651Y226036D01*
X260628Y225925D01*
X260608Y225814D01*
X260592Y225702D01*
X260580Y225589D01*
X260572Y225476D01*
X260568Y225363D01*
X260568Y225249D01*
X260572Y225136D01*
X260580Y225023D01*
X260592Y224910D01*
X260608Y224798D01*
X260628Y224687D01*
X260651Y224576D01*
X260679Y224466D01*
X260710Y224357D01*
X260745Y224249D01*
X260784Y224143D01*
X260826Y224038D01*
X260872Y223934D01*
X260922Y223832D01*
X260975Y223732D01*
X261032Y223634D01*
X261092Y223538D01*
X261155Y223444D01*
X261222Y223352D01*
X261291Y223263D01*
X261364Y223176D01*
X261440Y223092D01*
X261519Y223011D01*
X261600Y222932D01*
X261684Y222856D01*
X261771Y222783D01*
X261861Y222714D01*
X261952Y222647D01*
X264611Y220786D01*
D13*
X354330Y354330D02*
X360680Y361950D01*
X372548Y361950D01*
X382548Y361950D02*
X394415Y361950D01*
X404415Y361950D02*
X416283Y361950D01*
X426283Y361950D02*
X438150Y361950D01*
X321310Y321310D02*
X308610Y309880D01*
X263843Y309880D02*
X251460Y309880D01*
X273843Y309880D02*
X286227Y309880D01*
X296227Y309880D02*
X308610Y309880D01*
D10*
X437797Y366776D02*
X437797Y379984D01*
X433394Y372646D01*
X428991Y379984D01*
X428991Y366776D01*
X418945Y379984D02*
X418832Y379982D01*
X418720Y379976D01*
X418607Y379967D01*
X418495Y379953D01*
X418384Y379936D01*
X418273Y379915D01*
X418163Y379890D01*
X418054Y379862D01*
X417946Y379829D01*
X417839Y379793D01*
X417734Y379754D01*
X417629Y379711D01*
X417527Y379664D01*
X417426Y379614D01*
X417327Y379560D01*
X417229Y379503D01*
X417134Y379443D01*
X417041Y379380D01*
X416950Y379313D01*
X416861Y379243D01*
X416775Y379171D01*
X416691Y379095D01*
X416610Y379017D01*
X416532Y378936D01*
X416456Y378852D01*
X416384Y378766D01*
X416314Y378677D01*
X416247Y378586D01*
X416184Y378493D01*
X416124Y378398D01*
X416067Y378300D01*
X416013Y378201D01*
X415963Y378100D01*
X415916Y377998D01*
X415873Y377893D01*
X415834Y377788D01*
X415798Y377681D01*
X415765Y377573D01*
X415737Y377464D01*
X415712Y377354D01*
X415691Y377243D01*
X415674Y377132D01*
X415660Y377020D01*
X415651Y376907D01*
X415645Y376795D01*
X415643Y376682D01*
X418945Y379984D02*
X419072Y379982D01*
X419199Y379976D01*
X419326Y379967D01*
X419452Y379954D01*
X419578Y379937D01*
X419703Y379916D01*
X419828Y379891D01*
X419951Y379863D01*
X420074Y379831D01*
X420196Y379795D01*
X420317Y379756D01*
X420437Y379713D01*
X420555Y379667D01*
X420672Y379617D01*
X420787Y379563D01*
X420900Y379506D01*
X421012Y379446D01*
X421122Y379383D01*
X421230Y379316D01*
X421336Y379246D01*
X421440Y379173D01*
X421542Y379096D01*
X421641Y379017D01*
X421738Y378935D01*
X421832Y378850D01*
X421924Y378762D01*
X422013Y378672D01*
X422099Y378578D01*
X422183Y378483D01*
X422263Y378385D01*
X422341Y378284D01*
X422416Y378181D01*
X422487Y378076D01*
X422555Y377969D01*
X422620Y377860D01*
X422682Y377749D01*
X422741Y377636D01*
X422796Y377522D01*
X422847Y377406D01*
X422895Y377288D01*
X422940Y377169D01*
X422981Y377049D01*
X416744Y374114D02*
X416662Y374194D01*
X416583Y374277D01*
X416506Y374363D01*
X416432Y374451D01*
X416362Y374542D01*
X416294Y374634D01*
X416229Y374729D01*
X416167Y374826D01*
X416109Y374925D01*
X416053Y375026D01*
X416001Y375128D01*
X415953Y375232D01*
X415908Y375338D01*
X415866Y375445D01*
X415827Y375553D01*
X415793Y375663D01*
X415761Y375773D01*
X415734Y375885D01*
X415710Y375997D01*
X415689Y376110D01*
X415673Y376224D01*
X415660Y376338D01*
X415650Y376452D01*
X415645Y376567D01*
X415643Y376682D01*
X416744Y374114D02*
X422981Y366776D01*
X415643Y366776D01*
X437868Y327914D02*
X437868Y314706D01*
X433465Y320576D02*
X437868Y327914D01*
X433465Y320576D02*
X429062Y327914D01*
X429062Y314706D01*
X419016Y327914D02*
X418903Y327912D01*
X418791Y327906D01*
X418678Y327897D01*
X418566Y327883D01*
X418455Y327866D01*
X418344Y327845D01*
X418234Y327820D01*
X418125Y327792D01*
X418017Y327759D01*
X417910Y327723D01*
X417805Y327684D01*
X417700Y327641D01*
X417598Y327594D01*
X417497Y327544D01*
X417398Y327490D01*
X417300Y327433D01*
X417205Y327373D01*
X417112Y327310D01*
X417021Y327243D01*
X416932Y327173D01*
X416846Y327101D01*
X416762Y327025D01*
X416681Y326947D01*
X416603Y326866D01*
X416527Y326782D01*
X416455Y326696D01*
X416385Y326607D01*
X416318Y326516D01*
X416255Y326423D01*
X416195Y326328D01*
X416138Y326230D01*
X416084Y326131D01*
X416034Y326030D01*
X415987Y325928D01*
X415944Y325823D01*
X415905Y325718D01*
X415869Y325611D01*
X415836Y325503D01*
X415808Y325394D01*
X415783Y325284D01*
X415762Y325173D01*
X415745Y325062D01*
X415731Y324950D01*
X415722Y324837D01*
X415716Y324725D01*
X415714Y324612D01*
X419016Y327914D02*
X419143Y327912D01*
X419270Y327906D01*
X419397Y327897D01*
X419523Y327884D01*
X419649Y327867D01*
X419774Y327846D01*
X419899Y327821D01*
X420022Y327793D01*
X420145Y327761D01*
X420267Y327725D01*
X420388Y327686D01*
X420508Y327643D01*
X420626Y327597D01*
X420743Y327547D01*
X420858Y327493D01*
X420971Y327436D01*
X421083Y327376D01*
X421193Y327313D01*
X421301Y327246D01*
X421407Y327176D01*
X421511Y327103D01*
X421613Y327026D01*
X421712Y326947D01*
X421809Y326865D01*
X421903Y326780D01*
X421995Y326692D01*
X422084Y326602D01*
X422170Y326508D01*
X422254Y326413D01*
X422334Y326315D01*
X422412Y326214D01*
X422487Y326111D01*
X422558Y326006D01*
X422626Y325899D01*
X422691Y325790D01*
X422753Y325679D01*
X422812Y325566D01*
X422867Y325452D01*
X422918Y325336D01*
X422966Y325218D01*
X423011Y325099D01*
X423052Y324979D01*
X416815Y322044D02*
X416733Y322124D01*
X416654Y322207D01*
X416577Y322293D01*
X416503Y322381D01*
X416433Y322472D01*
X416365Y322564D01*
X416300Y322659D01*
X416238Y322756D01*
X416180Y322855D01*
X416124Y322956D01*
X416072Y323058D01*
X416024Y323162D01*
X415979Y323268D01*
X415937Y323375D01*
X415898Y323483D01*
X415864Y323593D01*
X415832Y323703D01*
X415805Y323815D01*
X415781Y323927D01*
X415760Y324040D01*
X415744Y324154D01*
X415731Y324268D01*
X415721Y324382D01*
X415716Y324497D01*
X415714Y324612D01*
X416815Y322044D02*
X423052Y314706D01*
X415714Y314706D01*
X410789Y314706D02*
X410789Y315440D01*
X410055Y315440D01*
X410055Y314706D01*
X410789Y314706D01*
X405130Y314706D02*
X400727Y314706D01*
X400620Y314708D01*
X400513Y314714D01*
X400406Y314724D01*
X400300Y314737D01*
X400194Y314755D01*
X400089Y314776D01*
X399985Y314801D01*
X399881Y314830D01*
X399779Y314863D01*
X399679Y314900D01*
X399579Y314940D01*
X399481Y314984D01*
X399385Y315031D01*
X399291Y315082D01*
X399198Y315136D01*
X399108Y315193D01*
X399019Y315254D01*
X398933Y315318D01*
X398850Y315385D01*
X398768Y315455D01*
X398690Y315528D01*
X398614Y315604D01*
X398541Y315682D01*
X398471Y315764D01*
X398404Y315847D01*
X398340Y315933D01*
X398279Y316022D01*
X398222Y316112D01*
X398168Y316205D01*
X398117Y316299D01*
X398070Y316395D01*
X398026Y316493D01*
X397986Y316593D01*
X397949Y316693D01*
X397916Y316795D01*
X397887Y316899D01*
X397862Y317003D01*
X397841Y317108D01*
X397823Y317214D01*
X397810Y317320D01*
X397800Y317427D01*
X397794Y317534D01*
X397792Y317641D01*
X397792Y319109D01*
X397794Y319216D01*
X397800Y319323D01*
X397810Y319430D01*
X397823Y319536D01*
X397841Y319642D01*
X397862Y319747D01*
X397887Y319851D01*
X397916Y319955D01*
X397949Y320057D01*
X397986Y320157D01*
X398026Y320257D01*
X398070Y320355D01*
X398117Y320451D01*
X398168Y320545D01*
X398222Y320638D01*
X398279Y320728D01*
X398340Y320817D01*
X398404Y320903D01*
X398471Y320986D01*
X398541Y321068D01*
X398614Y321146D01*
X398690Y321222D01*
X398768Y321295D01*
X398850Y321365D01*
X398933Y321432D01*
X399019Y321496D01*
X399108Y321557D01*
X399198Y321614D01*
X399291Y321668D01*
X399385Y321719D01*
X399481Y321767D01*
X399579Y321810D01*
X399679Y321850D01*
X399779Y321887D01*
X399881Y321920D01*
X399985Y321949D01*
X400089Y321974D01*
X400194Y321995D01*
X400300Y322013D01*
X400406Y322026D01*
X400513Y322036D01*
X400620Y322042D01*
X400727Y322044D01*
X405130Y322044D01*
X405130Y327914D01*
X397792Y327914D01*
X273967Y327914D02*
X273967Y314706D01*
X269564Y320576D02*
X273967Y327914D01*
X269564Y320576D02*
X265161Y327914D01*
X265161Y314706D01*
X259151Y314706D02*
X255482Y314706D01*
X255362Y314708D01*
X255242Y314714D01*
X255122Y314724D01*
X255003Y314737D01*
X254884Y314755D01*
X254766Y314776D01*
X254649Y314802D01*
X254532Y314831D01*
X254417Y314864D01*
X254303Y314901D01*
X254190Y314941D01*
X254078Y314985D01*
X253968Y315033D01*
X253859Y315084D01*
X253752Y315139D01*
X253648Y315198D01*
X253545Y315259D01*
X253444Y315324D01*
X253345Y315393D01*
X253248Y315464D01*
X253154Y315539D01*
X253063Y315616D01*
X252974Y315697D01*
X252888Y315781D01*
X252804Y315867D01*
X252723Y315956D01*
X252646Y316047D01*
X252571Y316141D01*
X252500Y316238D01*
X252431Y316337D01*
X252366Y316438D01*
X252305Y316541D01*
X252246Y316645D01*
X252191Y316752D01*
X252140Y316861D01*
X252092Y316971D01*
X252048Y317083D01*
X252008Y317196D01*
X251971Y317310D01*
X251938Y317425D01*
X251909Y317542D01*
X251883Y317659D01*
X251862Y317777D01*
X251844Y317896D01*
X251831Y318015D01*
X251821Y318135D01*
X251815Y318255D01*
X251813Y318375D01*
X251815Y318495D01*
X251821Y318615D01*
X251831Y318735D01*
X251844Y318854D01*
X251862Y318973D01*
X251883Y319091D01*
X251909Y319208D01*
X251938Y319325D01*
X251971Y319440D01*
X252008Y319554D01*
X252048Y319667D01*
X252092Y319779D01*
X252140Y319889D01*
X252191Y319998D01*
X252246Y320105D01*
X252305Y320210D01*
X252366Y320312D01*
X252431Y320413D01*
X252500Y320512D01*
X252571Y320609D01*
X252646Y320703D01*
X252723Y320794D01*
X252804Y320883D01*
X252888Y320969D01*
X252974Y321053D01*
X253063Y321134D01*
X253154Y321211D01*
X253248Y321286D01*
X253345Y321357D01*
X253444Y321426D01*
X253545Y321491D01*
X253648Y321552D01*
X253752Y321611D01*
X253859Y321666D01*
X253968Y321717D01*
X254078Y321765D01*
X254190Y321809D01*
X254303Y321849D01*
X254417Y321886D01*
X254532Y321919D01*
X254649Y321948D01*
X254766Y321974D01*
X254884Y321995D01*
X255003Y322013D01*
X255122Y322026D01*
X255242Y322036D01*
X255362Y322042D01*
X255482Y322044D01*
X254748Y327914D02*
X259151Y327914D01*
X254748Y327914D02*
X254641Y327912D01*
X254534Y327906D01*
X254427Y327896D01*
X254321Y327883D01*
X254215Y327865D01*
X254110Y327844D01*
X254006Y327819D01*
X253902Y327790D01*
X253800Y327757D01*
X253700Y327720D01*
X253600Y327680D01*
X253502Y327636D01*
X253406Y327589D01*
X253312Y327538D01*
X253219Y327484D01*
X253129Y327427D01*
X253040Y327366D01*
X252954Y327302D01*
X252871Y327235D01*
X252789Y327165D01*
X252711Y327092D01*
X252635Y327016D01*
X252562Y326938D01*
X252492Y326856D01*
X252425Y326773D01*
X252361Y326687D01*
X252300Y326598D01*
X252243Y326508D01*
X252189Y326415D01*
X252138Y326321D01*
X252091Y326225D01*
X252047Y326127D01*
X252007Y326027D01*
X251970Y325927D01*
X251937Y325825D01*
X251908Y325721D01*
X251883Y325617D01*
X251862Y325512D01*
X251844Y325406D01*
X251831Y325300D01*
X251821Y325193D01*
X251815Y325086D01*
X251813Y324979D01*
X251815Y324872D01*
X251821Y324765D01*
X251831Y324658D01*
X251844Y324552D01*
X251862Y324446D01*
X251883Y324341D01*
X251908Y324237D01*
X251937Y324133D01*
X251970Y324031D01*
X252007Y323931D01*
X252047Y323831D01*
X252091Y323733D01*
X252138Y323637D01*
X252189Y323543D01*
X252243Y323450D01*
X252300Y323360D01*
X252361Y323271D01*
X252425Y323185D01*
X252492Y323102D01*
X252562Y323020D01*
X252635Y322942D01*
X252711Y322866D01*
X252789Y322793D01*
X252871Y322723D01*
X252954Y322656D01*
X253040Y322592D01*
X253129Y322531D01*
X253219Y322474D01*
X253312Y322420D01*
X253406Y322369D01*
X253502Y322322D01*
X253600Y322278D01*
X253700Y322238D01*
X253800Y322201D01*
X253902Y322168D01*
X254006Y322139D01*
X254110Y322114D01*
X254215Y322093D01*
X254321Y322075D01*
X254427Y322062D01*
X254534Y322052D01*
X254641Y322046D01*
X254748Y322044D01*
X257684Y322044D01*
X273967Y368046D02*
X273967Y381254D01*
X269564Y373916D01*
X265161Y381254D01*
X265161Y368046D01*
X259151Y370981D02*
X256216Y381254D01*
X259151Y370981D02*
X251813Y370981D01*
X254015Y373916D02*
X254015Y368046D01*
D13*
X386080Y309880D02*
X396347Y309880D01*
X406347Y309880D02*
X416613Y309880D01*
X426613Y309880D02*
X436880Y309880D01*
X386080Y309880D02*
X367030Y326390D01*
X260880Y363220D02*
X250190Y363220D01*
X270880Y363220D02*
X281570Y363220D01*
X291570Y363220D02*
X302260Y363220D01*
M02*
