G04 EAGLE Gerber RS-274X export*
G75*
%MOMM*%
%FSLAX34Y34*%
%LPD*%
%INTop Copper*%
%IPPOS*%
%AMOC8*
5,1,8,0,0,1.08239X$1,22.5*%
G01*
%ADD10C,1.000000*%

G36*
X519442Y345711D02*
X519442Y345711D01*
X519483Y345709D01*
X519539Y345730D01*
X519597Y345742D01*
X519631Y345766D01*
X519669Y345780D01*
X519712Y345821D01*
X519761Y345855D01*
X519783Y345889D01*
X519812Y345918D01*
X519836Y345972D01*
X519868Y346022D01*
X519875Y346063D01*
X519891Y346101D01*
X519891Y346160D01*
X519901Y346218D01*
X519891Y346258D01*
X519892Y346299D01*
X519865Y346369D01*
X519855Y346412D01*
X519842Y346429D01*
X519833Y346455D01*
X503729Y373877D01*
X503723Y373883D01*
X503720Y373891D01*
X503657Y373957D01*
X503596Y374025D01*
X503588Y374028D01*
X503582Y374034D01*
X503499Y374070D01*
X503416Y374109D01*
X503407Y374110D01*
X503400Y374113D01*
X503309Y374113D01*
X503217Y374117D01*
X503209Y374114D01*
X503201Y374114D01*
X503045Y374055D01*
X502601Y373794D01*
X493494Y389568D01*
X493486Y389571D01*
X493484Y389574D01*
X493483Y389574D01*
X493481Y389572D01*
X493479Y389573D01*
X493479Y389572D01*
X493478Y389572D01*
X492602Y389067D01*
X492273Y389024D01*
X492272Y389022D01*
X492270Y389023D01*
X490831Y388331D01*
X490830Y388329D01*
X490828Y388329D01*
X490319Y387908D01*
X489298Y387593D01*
X489297Y387592D01*
X489296Y387592D01*
X488333Y387129D01*
X487673Y387092D01*
X487672Y387091D01*
X487671Y387091D01*
X487670Y387091D01*
X485829Y386524D01*
X485828Y386522D01*
X485826Y386523D01*
X485260Y386182D01*
X484203Y386023D01*
X484203Y386022D01*
X484202Y386023D01*
X483180Y385708D01*
X482522Y385770D01*
X482520Y385769D01*
X482519Y385770D01*
X480614Y385483D01*
X480613Y385482D01*
X480611Y385482D01*
X480000Y385230D01*
X478932Y385230D01*
X478931Y385229D01*
X478930Y385230D01*
X477873Y385071D01*
X477231Y385230D01*
X477230Y385229D01*
X477228Y385231D01*
X475302Y385231D01*
X475300Y385230D01*
X475299Y385231D01*
X474657Y385072D01*
X473601Y385232D01*
X473600Y385231D01*
X473599Y385232D01*
X472530Y385232D01*
X471919Y385485D01*
X471918Y385485D01*
X471917Y385486D01*
X470012Y385774D01*
X470010Y385773D01*
X470009Y385774D01*
X469351Y385712D01*
X468329Y386028D01*
X468328Y386027D01*
X468328Y386028D01*
X467271Y386188D01*
X466705Y386529D01*
X466703Y386529D01*
X466702Y386530D01*
X464861Y387099D01*
X464860Y387098D01*
X464858Y387099D01*
X464199Y387136D01*
X463236Y387601D01*
X463235Y387600D01*
X463234Y387601D01*
X462213Y387917D01*
X461704Y388338D01*
X461702Y388338D01*
X461702Y388340D01*
X459966Y389176D01*
X459964Y389176D01*
X459963Y389177D01*
X459316Y389313D01*
X458434Y389915D01*
X458432Y389915D01*
X458432Y389916D01*
X457469Y390380D01*
X457029Y390873D01*
X457027Y390873D01*
X457027Y390875D01*
X455435Y391961D01*
X455433Y391960D01*
X455433Y391962D01*
X454813Y392192D01*
X454030Y392919D01*
X454028Y392919D01*
X454028Y392920D01*
X453145Y393523D01*
X452784Y394076D01*
X452782Y394076D01*
X452782Y394078D01*
X451370Y395389D01*
X451368Y395389D01*
X451367Y395391D01*
X450789Y395711D01*
X450123Y396546D01*
X450122Y396546D01*
X450122Y396548D01*
X449338Y397275D01*
X449063Y397876D01*
X449061Y397877D01*
X449062Y397878D01*
X447861Y399385D01*
X447859Y399385D01*
X447859Y399387D01*
X447334Y399789D01*
X446800Y400715D01*
X446799Y400716D01*
X446799Y400717D01*
X446133Y401553D01*
X445951Y402188D01*
X445949Y402189D01*
X445949Y402190D01*
X444986Y403859D01*
X444985Y403860D01*
X444985Y403862D01*
X444526Y404338D01*
X444136Y405333D01*
X444135Y405333D01*
X444136Y405334D01*
X443601Y406260D01*
X443515Y406916D01*
X443514Y406917D01*
X443515Y406918D01*
X442811Y408712D01*
X442810Y408713D01*
X442810Y408715D01*
X442428Y409254D01*
X442190Y410296D01*
X442189Y410296D01*
X442190Y410297D01*
X441799Y411293D01*
X441812Y411953D01*
X441811Y411955D01*
X441812Y411956D01*
X441384Y413835D01*
X441382Y413836D01*
X441383Y413837D01*
X441085Y414428D01*
X441005Y415493D01*
X441005Y415494D01*
X441005Y415495D01*
X440768Y416537D01*
X440879Y417189D01*
X440878Y417191D01*
X440879Y417192D01*
X440735Y419113D01*
X440734Y419114D01*
X440735Y419116D01*
X440528Y419744D01*
X440609Y420810D01*
X440608Y420811D01*
X440609Y420811D01*
X440529Y421877D01*
X440736Y422505D01*
X440735Y422507D01*
X440736Y422508D01*
X440881Y424429D01*
X440881Y424430D01*
X440880Y424431D01*
X440881Y424432D01*
X440770Y425084D01*
X441009Y426126D01*
X441008Y426127D01*
X441009Y426127D01*
X441089Y427193D01*
X441387Y427783D01*
X441387Y427784D01*
X441387Y427785D01*
X441388Y427786D01*
X441817Y429664D01*
X441816Y429666D01*
X441818Y429667D01*
X441806Y430328D01*
X442196Y431322D01*
X442196Y431324D01*
X442197Y431324D01*
X442435Y432366D01*
X442818Y432905D01*
X442817Y432907D01*
X442819Y432908D01*
X443524Y434701D01*
X443523Y434703D01*
X443524Y434704D01*
X443528Y434732D01*
X443536Y434791D01*
X443544Y434851D01*
X443552Y434911D01*
X443559Y434970D01*
X443567Y435030D01*
X443575Y435090D01*
X443583Y435149D01*
X443591Y435209D01*
X443596Y435245D01*
X443599Y435269D01*
X443604Y435305D01*
X443607Y435328D01*
X443607Y435329D01*
X443611Y435359D01*
X444145Y436284D01*
X444145Y436286D01*
X444146Y436286D01*
X444537Y437281D01*
X444996Y437757D01*
X444996Y437758D01*
X444997Y437759D01*
X445961Y439427D01*
X445961Y439429D01*
X445962Y439430D01*
X446146Y440065D01*
X446812Y440900D01*
X446812Y440901D01*
X446813Y440902D01*
X447348Y441827D01*
X447872Y442229D01*
X447873Y442231D01*
X447874Y442231D01*
X449076Y443737D01*
X449076Y443739D01*
X449078Y443740D01*
X449354Y444340D01*
X450137Y445067D01*
X450137Y445068D01*
X450139Y445068D01*
X450805Y445904D01*
X451384Y446223D01*
X451384Y446225D01*
X451386Y446225D01*
X452799Y447535D01*
X452799Y447537D01*
X452801Y447537D01*
X453163Y448090D01*
X454046Y448692D01*
X454047Y448693D01*
X454048Y448693D01*
X454831Y449420D01*
X455451Y449649D01*
X455452Y449651D01*
X455454Y449651D01*
X456773Y450550D01*
X456774Y450552D01*
X456776Y450553D01*
X456978Y450815D01*
X457835Y451310D01*
X457840Y451325D01*
X457839Y451325D01*
X457839Y451326D01*
X441888Y478954D01*
X442516Y479251D01*
X442538Y479268D01*
X442565Y479278D01*
X442617Y479327D01*
X442675Y479370D01*
X442689Y479395D01*
X442710Y479414D01*
X442739Y479480D01*
X442775Y479542D01*
X442778Y479570D01*
X442790Y479596D01*
X442791Y479668D01*
X442800Y479739D01*
X442792Y479766D01*
X442793Y479795D01*
X442757Y479890D01*
X442746Y479930D01*
X442739Y479939D01*
X442735Y479951D01*
X433235Y496451D01*
X433183Y496510D01*
X433137Y496572D01*
X433118Y496583D01*
X433103Y496600D01*
X433033Y496634D01*
X432966Y496674D01*
X432942Y496678D01*
X432924Y496686D01*
X432879Y496688D01*
X432802Y496701D01*
X413802Y496701D01*
X413774Y496696D01*
X413746Y496698D01*
X413678Y496676D01*
X413607Y496662D01*
X413584Y496646D01*
X413557Y496637D01*
X413502Y496590D01*
X413443Y496549D01*
X413428Y496525D01*
X413407Y496507D01*
X413375Y496442D01*
X413336Y496382D01*
X413331Y496354D01*
X413319Y496328D01*
X413310Y496227D01*
X413303Y496185D01*
X413305Y496175D01*
X413304Y496162D01*
X413361Y495447D01*
X382014Y495447D01*
X382002Y495437D01*
X382003Y495436D01*
X382002Y495435D01*
X382002Y494665D01*
X381875Y494359D01*
X381876Y494356D01*
X381874Y494355D01*
X381754Y492763D01*
X381755Y492761D01*
X381754Y492760D01*
X381865Y492108D01*
X381626Y491066D01*
X381627Y491065D01*
X381626Y491064D01*
X381546Y489998D01*
X381248Y489409D01*
X381248Y489407D01*
X381247Y489406D01*
X380818Y487528D01*
X380819Y487526D01*
X380817Y487525D01*
X380829Y486864D01*
X380439Y485869D01*
X380439Y485868D01*
X380438Y485867D01*
X380200Y484825D01*
X379817Y484287D01*
X379818Y484285D01*
X379816Y484284D01*
X379111Y482491D01*
X379112Y482489D01*
X379111Y482488D01*
X379109Y482473D01*
X379101Y482413D01*
X379098Y482389D01*
X379090Y482329D01*
X379082Y482270D01*
X379079Y482246D01*
X379071Y482186D01*
X379063Y482127D01*
X379063Y482126D01*
X379055Y482067D01*
X379052Y482043D01*
X379044Y481983D01*
X379036Y481924D01*
X379033Y481900D01*
X379025Y481840D01*
X379024Y481833D01*
X378490Y480907D01*
X378490Y480906D01*
X378489Y480906D01*
X378098Y479911D01*
X377639Y479435D01*
X377639Y479433D01*
X377638Y479433D01*
X376674Y477764D01*
X376674Y477763D01*
X376673Y477762D01*
X376489Y477127D01*
X375823Y476291D01*
X375823Y476290D01*
X375822Y476290D01*
X375287Y475364D01*
X374763Y474962D01*
X374762Y474960D01*
X374761Y474960D01*
X373559Y473454D01*
X373559Y473452D01*
X373557Y473452D01*
X373281Y472851D01*
X372498Y472124D01*
X372498Y472123D01*
X372496Y472123D01*
X371830Y471288D01*
X371251Y470968D01*
X371251Y470966D01*
X371249Y470967D01*
X369836Y469656D01*
X369836Y469654D01*
X369834Y469654D01*
X369725Y469487D01*
X369725Y469486D01*
X369724Y469486D01*
X369725Y469484D01*
X369727Y469471D01*
X369729Y469471D01*
X369730Y469469D01*
X373154Y468051D01*
X384739Y459161D01*
X393629Y447576D01*
X399217Y434086D01*
X401123Y419608D01*
X401115Y419550D01*
X401110Y419514D01*
X401104Y419467D01*
X401099Y419431D01*
X401093Y419383D01*
X401088Y419347D01*
X401077Y419264D01*
X401073Y419228D01*
X401066Y419180D01*
X401062Y419144D01*
X401055Y419097D01*
X401055Y419096D01*
X401051Y419061D01*
X401040Y418977D01*
X401029Y418894D01*
X401024Y418858D01*
X401018Y418810D01*
X401013Y418774D01*
X401007Y418726D01*
X401002Y418691D01*
X400991Y418607D01*
X400986Y418571D01*
X400980Y418524D01*
X400980Y418523D01*
X400975Y418488D01*
X400969Y418440D01*
X400964Y418404D01*
X400953Y418321D01*
X400949Y418285D01*
X400942Y418237D01*
X400938Y418201D01*
X400931Y418153D01*
X400927Y418118D01*
X400916Y418034D01*
X400905Y417951D01*
X400905Y417950D01*
X400900Y417915D01*
X400894Y417867D01*
X400889Y417831D01*
X400883Y417783D01*
X400878Y417748D01*
X400867Y417664D01*
X400862Y417628D01*
X400856Y417580D01*
X400851Y417545D01*
X400845Y417497D01*
X400840Y417461D01*
X400829Y417378D01*
X400829Y417377D01*
X400824Y417342D01*
X400818Y417294D01*
X400813Y417258D01*
X400807Y417210D01*
X400802Y417175D01*
X400791Y417091D01*
X400780Y417007D01*
X400776Y416972D01*
X400769Y416924D01*
X400765Y416888D01*
X400758Y416840D01*
X400754Y416805D01*
X400754Y416804D01*
X400743Y416721D01*
X400738Y416685D01*
X400732Y416637D01*
X400727Y416602D01*
X400721Y416554D01*
X400716Y416518D01*
X400705Y416434D01*
X400700Y416399D01*
X400694Y416351D01*
X400689Y416315D01*
X400683Y416267D01*
X400678Y416232D01*
X400678Y416231D01*
X400667Y416148D01*
X400656Y416064D01*
X400652Y416029D01*
X400651Y416029D01*
X400652Y416029D01*
X400645Y415981D01*
X400641Y415945D01*
X400640Y415945D01*
X400641Y415945D01*
X400634Y415897D01*
X400630Y415861D01*
X400629Y415861D01*
X400630Y415861D01*
X400619Y415778D01*
X400618Y415778D01*
X400619Y415778D01*
X400614Y415742D01*
X400608Y415694D01*
X400607Y415694D01*
X400603Y415659D01*
X400603Y415658D01*
X400597Y415611D01*
X400596Y415611D01*
X400592Y415575D01*
X400581Y415491D01*
X400576Y415456D01*
X400570Y415408D01*
X400565Y415372D01*
X400559Y415324D01*
X400554Y415288D01*
X400543Y415205D01*
X400532Y415121D01*
X400527Y415086D01*
X400527Y415085D01*
X400521Y415038D01*
X400516Y415002D01*
X400510Y414954D01*
X400505Y414918D01*
X400494Y414835D01*
X400490Y414799D01*
X400483Y414751D01*
X400479Y414715D01*
X400472Y414668D01*
X400468Y414632D01*
X400457Y414548D01*
X400452Y414513D01*
X400452Y414512D01*
X400446Y414465D01*
X400441Y414429D01*
X400435Y414381D01*
X400430Y414345D01*
X400419Y414262D01*
X400408Y414178D01*
X400403Y414142D01*
X400397Y414095D01*
X400392Y414059D01*
X400386Y414011D01*
X400381Y413975D01*
X400370Y413892D01*
X400365Y413856D01*
X400359Y413808D01*
X400354Y413772D01*
X400348Y413725D01*
X400343Y413689D01*
X400332Y413605D01*
X400328Y413569D01*
X400321Y413522D01*
X400317Y413486D01*
X400310Y413438D01*
X400306Y413402D01*
X400295Y413319D01*
X400284Y413235D01*
X400279Y413199D01*
X400273Y413152D01*
X400268Y413116D01*
X400262Y413068D01*
X400257Y413032D01*
X400246Y412949D01*
X400241Y412913D01*
X400235Y412865D01*
X400230Y412829D01*
X400224Y412782D01*
X400219Y412746D01*
X400208Y412662D01*
X400204Y412626D01*
X400197Y412579D01*
X400193Y412543D01*
X400186Y412495D01*
X400182Y412459D01*
X400171Y412376D01*
X400160Y412292D01*
X400155Y412256D01*
X400149Y412209D01*
X400144Y412173D01*
X400138Y412125D01*
X400133Y412089D01*
X400122Y412006D01*
X400117Y411970D01*
X400111Y411922D01*
X400106Y411886D01*
X400100Y411839D01*
X400100Y411838D01*
X400095Y411803D01*
X400084Y411719D01*
X400079Y411683D01*
X400073Y411636D01*
X400068Y411600D01*
X400062Y411552D01*
X400057Y411516D01*
X400046Y411433D01*
X400035Y411349D01*
X400031Y411313D01*
X400024Y411266D01*
X400024Y411265D01*
X400020Y411230D01*
X400013Y411182D01*
X400009Y411146D01*
X399998Y411063D01*
X399993Y411027D01*
X399987Y410979D01*
X399982Y410943D01*
X399976Y410895D01*
X399971Y410860D01*
X399960Y410776D01*
X399955Y410740D01*
X399949Y410693D01*
X399949Y410692D01*
X399944Y410657D01*
X399938Y410609D01*
X399933Y410573D01*
X399922Y410490D01*
X399911Y410406D01*
X399907Y410370D01*
X399900Y410322D01*
X399896Y410287D01*
X399889Y410239D01*
X399885Y410203D01*
X399874Y410120D01*
X399874Y410119D01*
X399869Y410084D01*
X399863Y410036D01*
X399858Y410000D01*
X399852Y409952D01*
X399847Y409917D01*
X399836Y409833D01*
X399831Y409797D01*
X399825Y409749D01*
X399820Y409714D01*
X399814Y409666D01*
X399809Y409630D01*
X399798Y409547D01*
X399798Y409546D01*
X399787Y409463D01*
X399782Y409427D01*
X399776Y409379D01*
X399771Y409344D01*
X399765Y409296D01*
X399760Y409260D01*
X399749Y409176D01*
X399745Y409141D01*
X399738Y409093D01*
X399734Y409057D01*
X399727Y409009D01*
X399723Y408974D01*
X399723Y408973D01*
X399712Y408890D01*
X399707Y408854D01*
X399701Y408806D01*
X399696Y408771D01*
X399690Y408723D01*
X399685Y408687D01*
X399674Y408603D01*
X399663Y408520D01*
X399658Y408484D01*
X399652Y408436D01*
X399647Y408401D01*
X399647Y408400D01*
X399641Y408353D01*
X399636Y408317D01*
X399625Y408233D01*
X399621Y408198D01*
X399614Y408150D01*
X399610Y408114D01*
X399603Y408066D01*
X399599Y408030D01*
X399588Y407947D01*
X399583Y407911D01*
X399577Y407863D01*
X399572Y407828D01*
X399572Y407827D01*
X399566Y407780D01*
X399561Y407744D01*
X399550Y407660D01*
X399539Y407577D01*
X399534Y407541D01*
X399528Y407493D01*
X399523Y407457D01*
X399517Y407410D01*
X399512Y407374D01*
X399501Y407290D01*
X399496Y407255D01*
X399496Y407254D01*
X399490Y407207D01*
X399485Y407171D01*
X399479Y407123D01*
X399474Y407087D01*
X399463Y407004D01*
X399459Y406968D01*
X399452Y406920D01*
X399448Y406884D01*
X399441Y406837D01*
X399437Y406801D01*
X399426Y406717D01*
X399415Y406634D01*
X399410Y406598D01*
X399404Y406550D01*
X399399Y406514D01*
X399393Y406467D01*
X399388Y406431D01*
X399377Y406347D01*
X399372Y406311D01*
X399366Y406264D01*
X399361Y406228D01*
X399355Y406180D01*
X399350Y406144D01*
X399339Y406061D01*
X399335Y406025D01*
X399334Y406025D01*
X399335Y406025D01*
X399328Y405977D01*
X399324Y405941D01*
X399323Y405941D01*
X399324Y405941D01*
X399317Y405894D01*
X399313Y405858D01*
X399312Y405858D01*
X399313Y405858D01*
X399302Y405774D01*
X399301Y405774D01*
X399302Y405774D01*
X399291Y405691D01*
X399290Y405691D01*
X399291Y405691D01*
X399286Y405655D01*
X399280Y405607D01*
X399279Y405607D01*
X399275Y405571D01*
X399269Y405524D01*
X399268Y405524D01*
X399264Y405488D01*
X399253Y405404D01*
X399248Y405368D01*
X399242Y405321D01*
X399237Y405285D01*
X399231Y405237D01*
X399226Y405201D01*
X399217Y405130D01*
X393629Y391640D01*
X384739Y380055D01*
X373154Y371165D01*
X359664Y365577D01*
X345186Y363671D01*
X330708Y365577D01*
X317218Y371165D01*
X305633Y380055D01*
X296743Y391640D01*
X291155Y405130D01*
X289249Y419608D01*
X289254Y419643D01*
X289259Y419678D01*
X289265Y419726D01*
X289270Y419762D01*
X289281Y419846D01*
X289285Y419881D01*
X289292Y419929D01*
X289296Y419965D01*
X289303Y420013D01*
X289307Y420048D01*
X289307Y420049D01*
X289318Y420132D01*
X289323Y420168D01*
X289329Y420216D01*
X289334Y420251D01*
X289340Y420299D01*
X289345Y420335D01*
X289356Y420419D01*
X289367Y420502D01*
X289372Y420538D01*
X289378Y420586D01*
X289383Y420621D01*
X289383Y420622D01*
X289394Y420705D01*
X289405Y420789D01*
X289409Y420824D01*
X289416Y420872D01*
X289420Y420908D01*
X289427Y420956D01*
X289431Y420992D01*
X289442Y421075D01*
X289447Y421111D01*
X289453Y421159D01*
X289458Y421194D01*
X289458Y421195D01*
X289464Y421242D01*
X289469Y421278D01*
X289480Y421362D01*
X289485Y421397D01*
X289491Y421445D01*
X289496Y421481D01*
X289502Y421529D01*
X289507Y421565D01*
X289518Y421648D01*
X289529Y421732D01*
X289534Y421767D01*
X289534Y421768D01*
X289540Y421815D01*
X289545Y421851D01*
X289556Y421935D01*
X289567Y422018D01*
X289571Y422054D01*
X289578Y422102D01*
X289582Y422138D01*
X289589Y422185D01*
X289593Y422221D01*
X289604Y422305D01*
X289609Y422340D01*
X289609Y422341D01*
X289615Y422388D01*
X289620Y422424D01*
X289626Y422472D01*
X289631Y422508D01*
X289642Y422591D01*
X289647Y422627D01*
X289653Y422675D01*
X289658Y422711D01*
X289664Y422758D01*
X289669Y422794D01*
X289680Y422878D01*
X289691Y422961D01*
X289695Y422997D01*
X289702Y423045D01*
X289706Y423081D01*
X289713Y423128D01*
X289717Y423164D01*
X289728Y423248D01*
X289733Y423284D01*
X289739Y423331D01*
X289744Y423367D01*
X289750Y423415D01*
X289755Y423451D01*
X289766Y423534D01*
X289771Y423570D01*
X289777Y423618D01*
X289782Y423654D01*
X289788Y423701D01*
X289793Y423737D01*
X289804Y423821D01*
X289809Y423857D01*
X289815Y423904D01*
X289820Y423940D01*
X289826Y423988D01*
X289831Y424024D01*
X289842Y424107D01*
X289853Y424191D01*
X289857Y424227D01*
X289864Y424274D01*
X289868Y424310D01*
X289875Y424358D01*
X289879Y424394D01*
X289890Y424477D01*
X289895Y424513D01*
X289901Y424561D01*
X289906Y424597D01*
X289912Y424644D01*
X289917Y424680D01*
X289928Y424764D01*
X289933Y424800D01*
X289939Y424847D01*
X289944Y424883D01*
X289950Y424931D01*
X289955Y424967D01*
X289966Y425050D01*
X289970Y425086D01*
X289977Y425134D01*
X289981Y425170D01*
X289988Y425217D01*
X289992Y425253D01*
X290003Y425337D01*
X290014Y425420D01*
X290019Y425456D01*
X290025Y425504D01*
X290030Y425540D01*
X290036Y425587D01*
X290036Y425588D01*
X290041Y425623D01*
X290052Y425707D01*
X290057Y425743D01*
X290063Y425790D01*
X290068Y425826D01*
X290074Y425874D01*
X290079Y425910D01*
X290090Y425993D01*
X290095Y426029D01*
X290101Y426077D01*
X290106Y426113D01*
X290112Y426160D01*
X290112Y426161D01*
X290117Y426196D01*
X290128Y426280D01*
X290132Y426316D01*
X290139Y426363D01*
X290143Y426399D01*
X290150Y426447D01*
X290154Y426483D01*
X290165Y426566D01*
X290176Y426650D01*
X290181Y426686D01*
X290187Y426733D01*
X290187Y426734D01*
X290192Y426769D01*
X290198Y426817D01*
X290203Y426853D01*
X290214Y426936D01*
X290219Y426972D01*
X290225Y427020D01*
X290230Y427056D01*
X290236Y427104D01*
X290241Y427139D01*
X290252Y427223D01*
X290256Y427259D01*
X290257Y427259D01*
X290256Y427259D01*
X290263Y427306D01*
X290263Y427307D01*
X290267Y427342D01*
X290268Y427342D01*
X290267Y427342D01*
X290274Y427390D01*
X290278Y427426D01*
X290279Y427426D01*
X290278Y427426D01*
X290289Y427509D01*
X290290Y427509D01*
X290289Y427509D01*
X290300Y427593D01*
X290301Y427593D01*
X290305Y427629D01*
X290311Y427677D01*
X290312Y427677D01*
X290316Y427712D01*
X290327Y427796D01*
X290338Y427879D01*
X290338Y427880D01*
X290343Y427915D01*
X290349Y427963D01*
X290354Y427999D01*
X290360Y428047D01*
X290365Y428082D01*
X290376Y428166D01*
X290381Y428202D01*
X290387Y428250D01*
X290392Y428285D01*
X290398Y428333D01*
X290403Y428369D01*
X290414Y428452D01*
X290414Y428453D01*
X290418Y428488D01*
X290425Y428536D01*
X290429Y428572D01*
X290436Y428620D01*
X290440Y428655D01*
X290451Y428739D01*
X290462Y428823D01*
X290467Y428858D01*
X290473Y428906D01*
X290478Y428942D01*
X290489Y429025D01*
X290489Y429026D01*
X290500Y429109D01*
X290505Y429145D01*
X290511Y429193D01*
X290516Y429228D01*
X290522Y429276D01*
X290527Y429312D01*
X290538Y429396D01*
X290543Y429431D01*
X290549Y429479D01*
X290554Y429515D01*
X290560Y429563D01*
X290565Y429598D01*
X290565Y429599D01*
X290576Y429682D01*
X290580Y429718D01*
X290587Y429766D01*
X290591Y429801D01*
X290598Y429849D01*
X290602Y429885D01*
X290613Y429969D01*
X290624Y430052D01*
X290629Y430088D01*
X290635Y430136D01*
X290640Y430171D01*
X290640Y430172D01*
X290651Y430255D01*
X290662Y430339D01*
X290667Y430374D01*
X290673Y430422D01*
X290678Y430458D01*
X290684Y430506D01*
X290689Y430542D01*
X290700Y430625D01*
X290704Y430661D01*
X290711Y430709D01*
X290715Y430744D01*
X290715Y430745D01*
X290722Y430792D01*
X290726Y430828D01*
X290737Y430912D01*
X290742Y430947D01*
X290748Y430995D01*
X290753Y431031D01*
X290759Y431079D01*
X290764Y431115D01*
X290775Y431198D01*
X290786Y431282D01*
X290791Y431317D01*
X290791Y431318D01*
X290797Y431365D01*
X290802Y431401D01*
X290813Y431485D01*
X290824Y431568D01*
X290829Y431604D01*
X290835Y431652D01*
X290840Y431688D01*
X290846Y431735D01*
X290851Y431771D01*
X290862Y431855D01*
X290866Y431890D01*
X290866Y431891D01*
X290873Y431938D01*
X290877Y431974D01*
X290884Y432022D01*
X290888Y432058D01*
X290899Y432141D01*
X290904Y432177D01*
X290910Y432225D01*
X290915Y432261D01*
X290921Y432308D01*
X290926Y432344D01*
X290937Y432428D01*
X290948Y432511D01*
X290953Y432547D01*
X290959Y432595D01*
X290964Y432631D01*
X290975Y432714D01*
X290986Y432798D01*
X290990Y432834D01*
X290997Y432881D01*
X291001Y432917D01*
X291008Y432965D01*
X291012Y433001D01*
X291023Y433084D01*
X291028Y433120D01*
X291034Y433168D01*
X291039Y433204D01*
X291045Y433251D01*
X291050Y433287D01*
X291061Y433371D01*
X291066Y433407D01*
X291072Y433454D01*
X291077Y433490D01*
X291083Y433538D01*
X291088Y433574D01*
X291099Y433657D01*
X291110Y433741D01*
X291115Y433777D01*
X291121Y433824D01*
X291126Y433860D01*
X291132Y433908D01*
X291137Y433944D01*
X291148Y434027D01*
X291152Y434063D01*
X291155Y434086D01*
X296743Y447576D01*
X305633Y459161D01*
X317218Y468051D01*
X322312Y470161D01*
X322313Y470163D01*
X322315Y470163D01*
X322315Y470167D01*
X322319Y470175D01*
X322315Y470177D01*
X322315Y470180D01*
X321451Y470982D01*
X321450Y470983D01*
X321449Y470984D01*
X320871Y471304D01*
X320205Y472140D01*
X320204Y472140D01*
X320204Y472141D01*
X319420Y472868D01*
X319145Y473469D01*
X319143Y473470D01*
X319143Y473472D01*
X317943Y474978D01*
X317941Y474979D01*
X317941Y474980D01*
X317416Y475383D01*
X316882Y476309D01*
X316881Y476309D01*
X316881Y476310D01*
X316215Y477146D01*
X316032Y477781D01*
X316031Y477782D01*
X316031Y477784D01*
X315068Y479453D01*
X315066Y479453D01*
X315067Y479455D01*
X314608Y479931D01*
X314218Y480926D01*
X314217Y480927D01*
X314217Y480928D01*
X313683Y481854D01*
X313597Y482509D01*
X313596Y482510D01*
X313596Y482512D01*
X312893Y484306D01*
X312891Y484306D01*
X312892Y484308D01*
X312509Y484847D01*
X312272Y485889D01*
X312271Y485890D01*
X312271Y485891D01*
X311881Y486886D01*
X311894Y487547D01*
X311893Y487548D01*
X311894Y487550D01*
X311465Y489428D01*
X311464Y489429D01*
X311464Y489431D01*
X311167Y490021D01*
X311087Y491087D01*
X311086Y491088D01*
X311087Y491089D01*
X310849Y492131D01*
X310960Y492782D01*
X310960Y492783D01*
X310960Y492784D01*
X310961Y492785D01*
X310842Y494378D01*
X310840Y494380D01*
X310841Y494381D01*
X310714Y494688D01*
X310714Y495435D01*
X310704Y495447D01*
X310703Y495446D01*
X310702Y495447D01*
X279043Y495447D01*
X279100Y496162D01*
X279096Y496191D01*
X279101Y496219D01*
X279084Y496288D01*
X279076Y496360D01*
X279062Y496384D01*
X279055Y496412D01*
X279012Y496470D01*
X278977Y496532D01*
X278954Y496549D01*
X278937Y496572D01*
X278875Y496609D01*
X278818Y496652D01*
X278790Y496659D01*
X278766Y496674D01*
X278666Y496690D01*
X278625Y496701D01*
X278615Y496699D01*
X278602Y496701D01*
X259602Y496701D01*
X259526Y496686D01*
X259448Y496677D01*
X259429Y496666D01*
X259407Y496662D01*
X259343Y496618D01*
X259275Y496579D01*
X259259Y496560D01*
X259243Y496549D01*
X259219Y496511D01*
X259169Y496451D01*
X249669Y479951D01*
X249660Y479924D01*
X249644Y479900D01*
X249629Y479830D01*
X249606Y479762D01*
X249609Y479734D01*
X249603Y479706D01*
X249617Y479636D01*
X249622Y479564D01*
X249635Y479539D01*
X249641Y479511D01*
X249681Y479451D01*
X249714Y479388D01*
X249736Y479370D01*
X249752Y479346D01*
X249835Y479288D01*
X249867Y479261D01*
X249878Y479258D01*
X249889Y479251D01*
X250516Y478954D01*
X234419Y451073D01*
X234422Y451058D01*
X234423Y451058D01*
X234424Y451057D01*
X235341Y450527D01*
X235543Y450264D01*
X235545Y450264D01*
X235545Y450262D01*
X236865Y449362D01*
X236867Y449362D01*
X236867Y449360D01*
X237487Y449130D01*
X238270Y448403D01*
X238272Y448403D01*
X238272Y448402D01*
X239154Y447799D01*
X239516Y447246D01*
X239518Y447246D01*
X239518Y447244D01*
X240930Y445933D01*
X240932Y445933D01*
X240933Y445931D01*
X241511Y445612D01*
X242177Y444776D01*
X242178Y444776D01*
X242178Y444775D01*
X242961Y444047D01*
X243237Y443446D01*
X243239Y443446D01*
X243238Y443444D01*
X244439Y441937D01*
X244441Y441937D01*
X244441Y441935D01*
X244965Y441533D01*
X245500Y440607D01*
X245501Y440606D01*
X245501Y440605D01*
X246167Y439770D01*
X246349Y439134D01*
X246351Y439133D01*
X246350Y439132D01*
X247313Y437463D01*
X247315Y437462D01*
X247315Y437460D01*
X247773Y436984D01*
X248164Y435989D01*
X248165Y435989D01*
X248164Y435988D01*
X248699Y435062D01*
X248785Y434407D01*
X248786Y434405D01*
X248785Y434404D01*
X249489Y432610D01*
X249490Y432609D01*
X249490Y432607D01*
X249872Y432068D01*
X250110Y431026D01*
X250111Y431026D01*
X250110Y431025D01*
X250500Y430029D01*
X250488Y429369D01*
X250489Y429367D01*
X250488Y429366D01*
X250916Y427487D01*
X250918Y427486D01*
X250917Y427485D01*
X251215Y426894D01*
X251294Y425829D01*
X251295Y425828D01*
X251295Y425827D01*
X251532Y424785D01*
X251421Y424133D01*
X251422Y424132D01*
X251421Y424130D01*
X251565Y422209D01*
X251566Y422208D01*
X251565Y422206D01*
X251771Y421578D01*
X251691Y420513D01*
X251692Y420512D01*
X251691Y420511D01*
X251771Y419445D01*
X251564Y418817D01*
X251565Y418815D01*
X251563Y418814D01*
X251419Y416893D01*
X251420Y416892D01*
X251419Y416890D01*
X251529Y416239D01*
X251291Y415196D01*
X251292Y415195D01*
X251291Y415195D01*
X251211Y414129D01*
X250913Y413539D01*
X250913Y413537D01*
X250912Y413536D01*
X250482Y411658D01*
X250483Y411656D01*
X250482Y411655D01*
X250494Y410995D01*
X250104Y410000D01*
X250104Y409999D01*
X250103Y409998D01*
X249865Y408956D01*
X249482Y408417D01*
X249482Y408415D01*
X249481Y408415D01*
X248776Y406621D01*
X248777Y406619D01*
X248776Y406618D01*
X248773Y406598D01*
X248770Y406574D01*
X248762Y406514D01*
X248754Y406455D01*
X248746Y406395D01*
X248743Y406371D01*
X248735Y406311D01*
X248727Y406252D01*
X248724Y406228D01*
X248716Y406168D01*
X248708Y406109D01*
X248708Y406108D01*
X248700Y406049D01*
X248697Y406025D01*
X248689Y405965D01*
X248689Y405963D01*
X248155Y405038D01*
X248155Y405037D01*
X248154Y405036D01*
X247763Y404041D01*
X247304Y403565D01*
X247304Y403564D01*
X247302Y403563D01*
X246339Y401895D01*
X246339Y401893D01*
X246337Y401892D01*
X246154Y401257D01*
X245488Y400422D01*
X245488Y400421D01*
X245487Y400420D01*
X244952Y399495D01*
X244427Y399093D01*
X244427Y399091D01*
X244425Y399091D01*
X243224Y397585D01*
X243224Y397583D01*
X243222Y397582D01*
X242946Y396982D01*
X242163Y396255D01*
X242162Y396254D01*
X242161Y396254D01*
X241495Y395418D01*
X240916Y395099D01*
X240916Y395097D01*
X240914Y395097D01*
X239501Y393787D01*
X239501Y393785D01*
X239499Y393785D01*
X239137Y393232D01*
X238254Y392630D01*
X238253Y392629D01*
X238252Y392629D01*
X237469Y391902D01*
X236849Y391673D01*
X236848Y391671D01*
X236846Y391671D01*
X235254Y390586D01*
X235254Y390585D01*
X235252Y390585D01*
X234811Y390092D01*
X233848Y389628D01*
X233848Y389627D01*
X233847Y389627D01*
X232963Y389026D01*
X232316Y388891D01*
X232315Y388889D01*
X232314Y388890D01*
X230577Y388055D01*
X230577Y388053D01*
X230575Y388053D01*
X230066Y387632D01*
X229044Y387317D01*
X229044Y387316D01*
X229043Y387316D01*
X228080Y386853D01*
X227420Y386816D01*
X227418Y386814D01*
X227417Y386815D01*
X225576Y386248D01*
X225575Y386246D01*
X225573Y386247D01*
X225007Y385906D01*
X223950Y385747D01*
X223949Y385746D01*
X223948Y385747D01*
X222927Y385432D01*
X222269Y385494D01*
X222267Y385493D01*
X222266Y385494D01*
X220361Y385207D01*
X220359Y385206D01*
X220358Y385206D01*
X219747Y384954D01*
X219457Y384954D01*
X219360Y384954D01*
X218678Y384954D01*
X218677Y384954D01*
X217619Y384795D01*
X216978Y384954D01*
X216977Y384954D01*
X216976Y384954D01*
X216975Y384955D01*
X215049Y384955D01*
X215047Y384954D01*
X215046Y384955D01*
X214404Y384796D01*
X213347Y384956D01*
X213346Y384955D01*
X213346Y384956D01*
X212277Y384956D01*
X211666Y385209D01*
X211664Y385209D01*
X211663Y385210D01*
X209758Y385498D01*
X209757Y385497D01*
X209755Y385498D01*
X209097Y385436D01*
X208076Y385752D01*
X208075Y385751D01*
X208074Y385752D01*
X207018Y385912D01*
X206452Y386253D01*
X206450Y386253D01*
X206449Y386254D01*
X204608Y386823D01*
X204606Y386822D01*
X204605Y386823D01*
X203945Y386860D01*
X202982Y387325D01*
X202981Y387324D01*
X202981Y387325D01*
X201960Y387641D01*
X201451Y388062D01*
X201449Y388062D01*
X201449Y388064D01*
X200010Y388757D01*
X200007Y388757D01*
X200006Y388758D01*
X199678Y388802D01*
X198781Y389320D01*
X198765Y389317D01*
X198765Y389316D01*
X198764Y389316D01*
X189855Y373883D01*
X189098Y374312D01*
X189091Y374315D01*
X189086Y374319D01*
X188997Y374345D01*
X188909Y374374D01*
X188902Y374373D01*
X188895Y374375D01*
X188804Y374365D01*
X188711Y374357D01*
X188705Y374354D01*
X188697Y374353D01*
X188617Y374307D01*
X188535Y374264D01*
X188531Y374258D01*
X188524Y374255D01*
X188419Y374126D01*
X172569Y346450D01*
X172557Y346414D01*
X172536Y346381D01*
X172526Y346320D01*
X172506Y346261D01*
X172509Y346223D01*
X172503Y346185D01*
X172517Y346125D01*
X172522Y346063D01*
X172540Y346029D01*
X172549Y345992D01*
X172586Y345942D01*
X172615Y345887D01*
X172644Y345863D01*
X172667Y345832D01*
X172720Y345800D01*
X172768Y345761D01*
X172805Y345750D01*
X172838Y345730D01*
X172916Y345717D01*
X172959Y345705D01*
X172978Y345707D01*
X173002Y345703D01*
X207648Y345713D01*
X207690Y345721D01*
X207733Y345720D01*
X207787Y345741D01*
X207843Y345752D01*
X207878Y345777D01*
X207919Y345792D01*
X207960Y345832D01*
X208007Y345865D01*
X208030Y345901D01*
X208061Y345931D01*
X208083Y345984D01*
X208114Y346033D01*
X208121Y346075D01*
X208138Y346115D01*
X208140Y346186D01*
X208147Y346229D01*
X208142Y346251D01*
X208142Y346281D01*
X208048Y346957D01*
X484854Y346957D01*
X484769Y346274D01*
X484772Y346234D01*
X484765Y346196D01*
X484779Y346136D01*
X484784Y346075D01*
X484802Y346040D01*
X484811Y346002D01*
X484847Y345953D01*
X484875Y345899D01*
X484906Y345874D01*
X484929Y345842D01*
X484981Y345811D01*
X485028Y345772D01*
X485066Y345761D01*
X485100Y345741D01*
X485176Y345728D01*
X485219Y345715D01*
X485239Y345717D01*
X485264Y345713D01*
X519402Y345703D01*
X519442Y345711D01*
G37*
G36*
X348400Y468960D02*
X348400Y468960D01*
X348443Y468959D01*
X352436Y469559D01*
X352466Y469570D01*
X352508Y469576D01*
X356367Y470765D01*
X356395Y470780D01*
X356437Y470792D01*
X360075Y472543D01*
X360100Y472562D01*
X360140Y472580D01*
X363476Y474853D01*
X363499Y474876D01*
X363535Y474900D01*
X366495Y477645D01*
X366514Y477671D01*
X366546Y477700D01*
X369065Y480856D01*
X369079Y480884D01*
X369107Y480918D01*
X371127Y484414D01*
X371137Y484444D01*
X371159Y484481D01*
X372635Y488239D01*
X372636Y488243D01*
X372637Y488244D01*
X372642Y488273D01*
X372657Y488310D01*
X373557Y492246D01*
X373558Y492278D01*
X373568Y492320D01*
X373871Y496346D01*
X373868Y496373D01*
X373872Y496400D01*
X373856Y496471D01*
X373846Y496544D01*
X373833Y496567D01*
X373826Y496594D01*
X373783Y496653D01*
X373747Y496716D01*
X373725Y496732D01*
X373709Y496754D01*
X373646Y496791D01*
X373587Y496835D01*
X373561Y496841D01*
X373538Y496855D01*
X373434Y496873D01*
X373394Y496883D01*
X373385Y496881D01*
X373374Y496883D01*
X319344Y496900D01*
X319317Y496895D01*
X319290Y496898D01*
X319220Y496875D01*
X319149Y496861D01*
X319126Y496845D01*
X319100Y496837D01*
X319045Y496790D01*
X318985Y496748D01*
X318970Y496725D01*
X318949Y496708D01*
X318917Y496642D01*
X318878Y496581D01*
X318873Y496554D01*
X318861Y496530D01*
X318851Y496425D01*
X318844Y496385D01*
X318847Y496376D01*
X318846Y496364D01*
X319146Y492338D01*
X319155Y492307D01*
X319157Y492264D01*
X320054Y488327D01*
X320067Y488298D01*
X320076Y488256D01*
X321550Y484497D01*
X321568Y484470D01*
X321583Y484429D01*
X323600Y480932D01*
X323621Y480908D01*
X323642Y480870D01*
X326159Y477713D01*
X326183Y477692D01*
X326209Y477658D01*
X329168Y474911D01*
X329196Y474894D01*
X329227Y474864D01*
X332562Y472589D01*
X332591Y472576D01*
X332627Y472551D01*
X336264Y470798D01*
X336295Y470791D01*
X336333Y470771D01*
X340191Y469580D01*
X340223Y469577D01*
X340264Y469563D01*
X344256Y468960D01*
X344288Y468962D01*
X344331Y468954D01*
X348368Y468953D01*
X348400Y468960D01*
G37*
G36*
X478318Y393366D02*
X478318Y393366D01*
X478361Y393365D01*
X482354Y393966D01*
X482384Y393977D01*
X482427Y393982D01*
X486285Y395171D01*
X486313Y395186D01*
X486355Y395198D01*
X489993Y396949D01*
X490015Y396966D01*
X490040Y396975D01*
X490093Y397025D01*
X490152Y397069D01*
X490165Y397093D01*
X490185Y397112D01*
X490214Y397179D01*
X490250Y397242D01*
X490254Y397269D01*
X490265Y397294D01*
X490266Y397367D01*
X490274Y397439D01*
X490267Y397465D01*
X490267Y397493D01*
X490230Y397591D01*
X490219Y397630D01*
X490213Y397638D01*
X490209Y397649D01*
X463209Y444449D01*
X463191Y444469D01*
X463180Y444494D01*
X463126Y444543D01*
X463077Y444598D01*
X463053Y444609D01*
X463033Y444628D01*
X462964Y444652D01*
X462898Y444683D01*
X462871Y444685D01*
X462845Y444694D01*
X462772Y444689D01*
X462699Y444692D01*
X462674Y444683D01*
X462647Y444681D01*
X462551Y444637D01*
X462513Y444623D01*
X462506Y444616D01*
X462496Y444612D01*
X459159Y442338D01*
X459136Y442315D01*
X459100Y442292D01*
X456140Y439546D01*
X456121Y439520D01*
X456089Y439492D01*
X453570Y436336D01*
X453556Y436307D01*
X453528Y436274D01*
X451508Y432778D01*
X451498Y432748D01*
X451476Y432711D01*
X450000Y428953D01*
X449994Y428921D01*
X449978Y428881D01*
X449078Y424945D01*
X449077Y424913D01*
X449067Y424871D01*
X448764Y420845D01*
X448767Y420821D01*
X448763Y420802D01*
X448766Y420792D01*
X448764Y420771D01*
X449064Y416744D01*
X449073Y416713D01*
X449075Y416670D01*
X449972Y412734D01*
X449986Y412705D01*
X449994Y412662D01*
X451468Y408903D01*
X451486Y408876D01*
X451501Y408836D01*
X453518Y405339D01*
X453540Y405315D01*
X453560Y405277D01*
X456077Y402119D01*
X456101Y402099D01*
X456128Y402065D01*
X459087Y399317D01*
X459114Y399301D01*
X459145Y399271D01*
X462480Y396995D01*
X462510Y396983D01*
X462545Y396958D01*
X466182Y395205D01*
X466213Y395197D01*
X466252Y395178D01*
X470109Y393986D01*
X470141Y393983D01*
X470182Y393970D01*
X474175Y393367D01*
X474206Y393368D01*
X474249Y393361D01*
X478287Y393360D01*
X478318Y393366D01*
G37*
G36*
X218065Y393090D02*
X218065Y393090D01*
X218108Y393089D01*
X222101Y393690D01*
X222130Y393701D01*
X222173Y393706D01*
X226032Y394895D01*
X226060Y394910D01*
X226101Y394922D01*
X229740Y396673D01*
X229765Y396692D01*
X229804Y396710D01*
X233141Y398984D01*
X233163Y399007D01*
X233200Y399030D01*
X236160Y401776D01*
X236179Y401802D01*
X236211Y401830D01*
X238729Y404986D01*
X238744Y405015D01*
X238772Y405048D01*
X240792Y408544D01*
X240802Y408574D01*
X240824Y408611D01*
X242300Y412369D01*
X242301Y412373D01*
X242302Y412375D01*
X242307Y412403D01*
X242322Y412441D01*
X243222Y416377D01*
X243223Y416409D01*
X243233Y416451D01*
X243536Y420477D01*
X243532Y420508D01*
X243536Y420552D01*
X243236Y424578D01*
X243227Y424609D01*
X243225Y424652D01*
X242327Y428589D01*
X242314Y428618D01*
X242305Y428660D01*
X240832Y432419D01*
X240814Y432446D01*
X240799Y432486D01*
X238781Y435983D01*
X238760Y436007D01*
X238739Y436045D01*
X236223Y439203D01*
X236199Y439223D01*
X236172Y439257D01*
X233213Y442005D01*
X233186Y442021D01*
X233155Y442051D01*
X229820Y444327D01*
X229795Y444337D01*
X229774Y444355D01*
X229704Y444376D01*
X229636Y444404D01*
X229609Y444404D01*
X229583Y444412D01*
X229510Y444404D01*
X229438Y444403D01*
X229413Y444393D01*
X229385Y444390D01*
X229322Y444354D01*
X229255Y444325D01*
X229236Y444306D01*
X229212Y444292D01*
X229145Y444211D01*
X229117Y444182D01*
X229113Y444173D01*
X229106Y444164D01*
X202076Y397381D01*
X202067Y397356D01*
X202052Y397333D01*
X202036Y397262D01*
X202013Y397193D01*
X202015Y397166D01*
X202009Y397139D01*
X202023Y397068D01*
X202028Y396995D01*
X202041Y396970D01*
X202046Y396944D01*
X202086Y396883D01*
X202120Y396818D01*
X202141Y396801D01*
X202156Y396778D01*
X202242Y396717D01*
X202273Y396691D01*
X202282Y396689D01*
X202292Y396682D01*
X205929Y394929D01*
X205960Y394921D01*
X205998Y394902D01*
X209856Y393710D01*
X209888Y393707D01*
X209929Y393694D01*
X213921Y393091D01*
X213953Y393092D01*
X213996Y393085D01*
X218033Y393084D01*
X218065Y393090D01*
G37*
D10*
X428802Y489302D03*
X507846Y352806D03*
X184050Y352806D03*
X263602Y489302D03*
X470102Y417702D03*
X222302Y417702D03*
X346202Y489302D03*
M02*
