G04 EAGLE Gerber RS-274X export*
G75*
%MOMM*%
%FSLAX34Y34*%
%LPD*%
%INBottom Copper*%
%IPPOS*%
%AMOC8*
5,1,8,0,0,1.08239X$1,22.5*%
G01*
%ADD10C,1.000000*%

G36*
X519439Y345710D02*
X519439Y345710D01*
X519478Y345709D01*
X519536Y345730D01*
X519597Y345742D01*
X519628Y345764D01*
X519664Y345777D01*
X519710Y345820D01*
X519761Y345855D01*
X519781Y345887D01*
X519809Y345913D01*
X519834Y345970D01*
X519868Y346022D01*
X519874Y346060D01*
X519890Y346095D01*
X519891Y346157D01*
X519901Y346218D01*
X519892Y346256D01*
X519893Y346294D01*
X519865Y346368D01*
X519855Y346412D01*
X519844Y346427D01*
X519835Y346450D01*
X503985Y374126D01*
X503978Y374134D01*
X503975Y374144D01*
X503913Y374209D01*
X503854Y374276D01*
X503845Y374280D01*
X503837Y374288D01*
X503755Y374323D01*
X503675Y374362D01*
X503664Y374362D01*
X503655Y374367D01*
X503565Y374367D01*
X503476Y374371D01*
X503466Y374368D01*
X503456Y374368D01*
X503300Y374309D01*
X502555Y373874D01*
X493552Y389467D01*
X493537Y389472D01*
X493537Y389471D01*
X493536Y389472D01*
X492773Y389030D01*
X492445Y388987D01*
X492443Y388985D01*
X492441Y388985D01*
X490990Y388285D01*
X490989Y388283D01*
X490988Y388283D01*
X490479Y387861D01*
X489458Y387545D01*
X489457Y387544D01*
X489456Y387544D01*
X488494Y387080D01*
X487834Y387042D01*
X487833Y387040D01*
X487831Y387041D01*
X485977Y386467D01*
X485976Y386465D01*
X485975Y386466D01*
X485409Y386124D01*
X484352Y385964D01*
X484351Y385963D01*
X484350Y385963D01*
X483330Y385647D01*
X482671Y385708D01*
X482670Y385707D01*
X482669Y385708D01*
X480750Y385417D01*
X480748Y385415D01*
X480747Y385416D01*
X480137Y385163D01*
X479068Y385161D01*
X479067Y385161D01*
X479066Y385161D01*
X478009Y385001D01*
X477368Y385159D01*
X477366Y385158D01*
X477365Y385160D01*
X475424Y385157D01*
X475423Y385157D01*
X475422Y385157D01*
X475421Y385157D01*
X474780Y384997D01*
X473723Y385156D01*
X473722Y385155D01*
X473721Y385156D01*
X472652Y385154D01*
X472041Y385407D01*
X472039Y385406D01*
X472039Y385408D01*
X470119Y385695D01*
X470118Y385694D01*
X470117Y385694D01*
X470116Y385695D01*
X469458Y385632D01*
X468436Y385946D01*
X468435Y385946D01*
X468435Y385947D01*
X467378Y386105D01*
X466811Y386445D01*
X466809Y386445D01*
X466808Y386447D01*
X464953Y387017D01*
X464952Y387016D01*
X464950Y387017D01*
X464291Y387054D01*
X463327Y387516D01*
X463326Y387516D01*
X463325Y387517D01*
X462304Y387831D01*
X461794Y388252D01*
X461792Y388252D01*
X461792Y388254D01*
X460042Y389094D01*
X460040Y389093D01*
X460040Y389095D01*
X459392Y389229D01*
X458509Y389830D01*
X458508Y389830D01*
X458507Y389831D01*
X457544Y390294D01*
X457103Y390786D01*
X457101Y390786D01*
X457101Y390788D01*
X455496Y391880D01*
X455494Y391879D01*
X455493Y391881D01*
X454873Y392110D01*
X454089Y392836D01*
X454088Y392836D01*
X454088Y392837D01*
X453204Y393438D01*
X452841Y393991D01*
X452839Y393992D01*
X452840Y393993D01*
X451415Y395312D01*
X451413Y395312D01*
X451413Y395313D01*
X450834Y395633D01*
X450167Y396468D01*
X450166Y396468D01*
X450166Y396469D01*
X449381Y397195D01*
X449105Y397795D01*
X449103Y397796D01*
X449104Y397798D01*
X447892Y399314D01*
X447890Y399314D01*
X447890Y399316D01*
X447365Y399718D01*
X446830Y400643D01*
X446829Y400643D01*
X446829Y400644D01*
X446161Y401479D01*
X445978Y402114D01*
X445976Y402115D01*
X445977Y402117D01*
X445004Y403797D01*
X445003Y403797D01*
X445003Y403799D01*
X444544Y404274D01*
X444152Y405269D01*
X444151Y405269D01*
X444151Y405270D01*
X443616Y406196D01*
X443529Y406851D01*
X443527Y406852D01*
X443528Y406853D01*
X442817Y408659D01*
X442816Y408660D01*
X442816Y408662D01*
X442433Y409200D01*
X442194Y410242D01*
X442193Y410243D01*
X442193Y410244D01*
X441802Y411238D01*
X441813Y411899D01*
X441812Y411901D01*
X441813Y411902D01*
X441379Y413794D01*
X441378Y413795D01*
X441378Y413796D01*
X441080Y414386D01*
X440999Y415452D01*
X440998Y415453D01*
X440998Y415454D01*
X440760Y416495D01*
X440870Y417147D01*
X440869Y417147D01*
X440870Y417148D01*
X440869Y417149D01*
X440870Y417150D01*
X440723Y419085D01*
X440721Y419087D01*
X440722Y419088D01*
X440515Y419716D01*
X440593Y420782D01*
X440593Y420783D01*
X440593Y420784D01*
X440512Y421849D01*
X440718Y422477D01*
X440718Y422479D01*
X440719Y422480D01*
X440862Y424416D01*
X440861Y424417D01*
X440861Y424418D01*
X440862Y424419D01*
X440750Y425070D01*
X440987Y426112D01*
X440987Y426113D01*
X440987Y426114D01*
X441066Y427180D01*
X441363Y427770D01*
X441363Y427772D01*
X441364Y427773D01*
X441794Y429666D01*
X441793Y429667D01*
X441794Y429668D01*
X441781Y430329D01*
X442171Y431325D01*
X442170Y431326D01*
X442171Y431326D01*
X442408Y432369D01*
X442790Y432908D01*
X442790Y432910D01*
X442791Y432911D01*
X443498Y434718D01*
X443498Y434719D01*
X443499Y434720D01*
X443498Y434720D01*
X443499Y434721D01*
X443500Y434732D01*
X443511Y434815D01*
X443513Y434827D01*
X443524Y434911D01*
X443525Y434923D01*
X443536Y435006D01*
X443538Y435018D01*
X443549Y435102D01*
X443550Y435114D01*
X443561Y435197D01*
X443563Y435209D01*
X443574Y435293D01*
X443575Y435305D01*
X443585Y435376D01*
X444118Y436302D01*
X444118Y436304D01*
X444119Y436304D01*
X444508Y437299D01*
X444966Y437776D01*
X444966Y437778D01*
X444968Y437778D01*
X445937Y439460D01*
X445936Y439462D01*
X445938Y439463D01*
X446120Y440098D01*
X446785Y440934D01*
X446785Y440935D01*
X446786Y440936D01*
X447320Y441862D01*
X447844Y442265D01*
X447844Y442267D01*
X447846Y442267D01*
X449054Y443786D01*
X449054Y443788D01*
X449056Y443788D01*
X449331Y444389D01*
X450114Y445117D01*
X450114Y445118D01*
X450115Y445118D01*
X450780Y445954D01*
X451358Y446275D01*
X451359Y446277D01*
X451361Y446277D01*
X452782Y447598D01*
X452782Y447600D01*
X452784Y447600D01*
X453145Y448154D01*
X454028Y448757D01*
X454028Y448758D01*
X454029Y448758D01*
X454812Y449486D01*
X455431Y449716D01*
X455432Y449718D01*
X455434Y449718D01*
X456764Y450627D01*
X456765Y450629D01*
X456767Y450629D01*
X456968Y450892D01*
X457798Y451373D01*
X457802Y451384D01*
X457802Y451385D01*
X457803Y451388D01*
X457802Y451388D01*
X457803Y451389D01*
X441888Y478954D01*
X442516Y479251D01*
X442538Y479268D01*
X442565Y479278D01*
X442617Y479327D01*
X442675Y479370D01*
X442689Y479395D01*
X442710Y479414D01*
X442739Y479480D01*
X442775Y479542D01*
X442778Y479570D01*
X442790Y479596D01*
X442791Y479668D01*
X442800Y479739D01*
X442792Y479766D01*
X442793Y479795D01*
X442757Y479890D01*
X442746Y479930D01*
X442739Y479939D01*
X442735Y479951D01*
X433235Y496451D01*
X433183Y496510D01*
X433137Y496572D01*
X433118Y496583D01*
X433103Y496600D01*
X433033Y496634D01*
X432966Y496674D01*
X432942Y496678D01*
X432924Y496686D01*
X432879Y496688D01*
X432802Y496701D01*
X413802Y496701D01*
X413774Y496696D01*
X413746Y496698D01*
X413678Y496676D01*
X413607Y496662D01*
X413584Y496646D01*
X413557Y496637D01*
X413502Y496590D01*
X413443Y496549D01*
X413428Y496525D01*
X413407Y496507D01*
X413375Y496442D01*
X413336Y496382D01*
X413331Y496354D01*
X413319Y496328D01*
X413310Y496227D01*
X413303Y496185D01*
X413305Y496175D01*
X413304Y496162D01*
X413361Y495447D01*
X382008Y495447D01*
X381996Y495437D01*
X381996Y495436D01*
X381996Y495435D01*
X381999Y494780D01*
X381873Y494473D01*
X381874Y494471D01*
X381872Y494470D01*
X381873Y494470D01*
X381872Y494470D01*
X381759Y492855D01*
X381760Y492853D01*
X381759Y492852D01*
X381873Y492201D01*
X381640Y491158D01*
X381641Y491157D01*
X381640Y491156D01*
X381565Y490090D01*
X381270Y489499D01*
X381270Y489497D01*
X381269Y489496D01*
X380844Y487594D01*
X380845Y487593D01*
X380845Y487592D01*
X380844Y487591D01*
X380859Y486931D01*
X380473Y485934D01*
X380474Y485933D01*
X380473Y485932D01*
X380240Y484889D01*
X379860Y484348D01*
X379860Y484346D01*
X379859Y484346D01*
X379155Y482529D01*
X379156Y482527D01*
X379155Y482526D01*
X379152Y482509D01*
X379152Y482508D01*
X379149Y482485D01*
X379146Y482461D01*
X379143Y482437D01*
X379142Y482425D01*
X379139Y482401D01*
X379136Y482377D01*
X379133Y482353D01*
X379130Y482329D01*
X379127Y482306D01*
X379124Y482282D01*
X379122Y482270D01*
X379119Y482246D01*
X379116Y482222D01*
X379113Y482198D01*
X379110Y482174D01*
X379107Y482150D01*
X379102Y482115D01*
X379099Y482091D01*
X379096Y482067D01*
X379093Y482043D01*
X379090Y482019D01*
X379087Y481995D01*
X379083Y481959D01*
X379080Y481936D01*
X379080Y481935D01*
X379077Y481912D01*
X379074Y481888D01*
X379071Y481870D01*
X378541Y480942D01*
X378542Y480941D01*
X378541Y480940D01*
X378155Y479944D01*
X377698Y479466D01*
X377698Y479464D01*
X377697Y479463D01*
X376730Y477771D01*
X376731Y477770D01*
X376730Y477769D01*
X376729Y477769D01*
X376549Y477133D01*
X375887Y476294D01*
X375887Y476293D01*
X375886Y476292D01*
X375356Y475364D01*
X374833Y474960D01*
X374833Y474958D01*
X374831Y474958D01*
X373624Y473429D01*
X373624Y473427D01*
X373622Y473426D01*
X373349Y472824D01*
X372569Y472093D01*
X372569Y472092D01*
X372568Y472092D01*
X371906Y471253D01*
X371329Y470931D01*
X371328Y470929D01*
X371326Y470929D01*
X369904Y469597D01*
X369904Y469595D01*
X369902Y469595D01*
X369863Y469534D01*
X369863Y469532D01*
X369865Y469519D01*
X369868Y469519D01*
X369868Y469517D01*
X373408Y468051D01*
X384993Y459161D01*
X393883Y447576D01*
X399471Y434086D01*
X401377Y419608D01*
X401369Y419550D01*
X401364Y419514D01*
X401358Y419467D01*
X401353Y419431D01*
X401347Y419383D01*
X401342Y419347D01*
X401331Y419264D01*
X401327Y419228D01*
X401320Y419180D01*
X401316Y419144D01*
X401309Y419097D01*
X401309Y419096D01*
X401305Y419061D01*
X401294Y418977D01*
X401283Y418894D01*
X401278Y418858D01*
X401272Y418810D01*
X401267Y418774D01*
X401261Y418726D01*
X401256Y418691D01*
X401245Y418607D01*
X401240Y418571D01*
X401234Y418524D01*
X401234Y418523D01*
X401229Y418488D01*
X401223Y418440D01*
X401218Y418404D01*
X401207Y418321D01*
X401203Y418285D01*
X401196Y418237D01*
X401192Y418201D01*
X401185Y418153D01*
X401181Y418118D01*
X401170Y418034D01*
X401159Y417951D01*
X401159Y417950D01*
X401154Y417915D01*
X401148Y417867D01*
X401143Y417831D01*
X401137Y417783D01*
X401132Y417748D01*
X401121Y417664D01*
X401116Y417628D01*
X401110Y417580D01*
X401105Y417545D01*
X401099Y417497D01*
X401094Y417461D01*
X401083Y417378D01*
X401083Y417377D01*
X401078Y417342D01*
X401072Y417294D01*
X401067Y417258D01*
X401061Y417210D01*
X401056Y417175D01*
X401045Y417091D01*
X401034Y417007D01*
X401030Y416972D01*
X401023Y416924D01*
X401019Y416888D01*
X401012Y416840D01*
X401008Y416805D01*
X401008Y416804D01*
X400997Y416721D01*
X400992Y416685D01*
X400986Y416637D01*
X400981Y416602D01*
X400975Y416554D01*
X400970Y416518D01*
X400959Y416434D01*
X400954Y416399D01*
X400948Y416351D01*
X400943Y416315D01*
X400937Y416267D01*
X400932Y416232D01*
X400932Y416231D01*
X400921Y416148D01*
X400910Y416064D01*
X400906Y416029D01*
X400905Y416029D01*
X400906Y416029D01*
X400899Y415981D01*
X400895Y415945D01*
X400894Y415945D01*
X400895Y415945D01*
X400888Y415897D01*
X400884Y415861D01*
X400883Y415861D01*
X400884Y415861D01*
X400873Y415778D01*
X400872Y415778D01*
X400873Y415778D01*
X400868Y415742D01*
X400862Y415694D01*
X400861Y415694D01*
X400857Y415659D01*
X400857Y415658D01*
X400851Y415611D01*
X400850Y415611D01*
X400846Y415575D01*
X400835Y415491D01*
X400830Y415456D01*
X400824Y415408D01*
X400819Y415372D01*
X400813Y415324D01*
X400808Y415288D01*
X400797Y415205D01*
X400786Y415121D01*
X400781Y415086D01*
X400781Y415085D01*
X400775Y415038D01*
X400770Y415002D01*
X400764Y414954D01*
X400759Y414918D01*
X400748Y414835D01*
X400744Y414799D01*
X400737Y414751D01*
X400733Y414715D01*
X400726Y414668D01*
X400722Y414632D01*
X400711Y414548D01*
X400706Y414513D01*
X400706Y414512D01*
X400700Y414465D01*
X400695Y414429D01*
X400689Y414381D01*
X400684Y414345D01*
X400673Y414262D01*
X400662Y414178D01*
X400657Y414142D01*
X400651Y414095D01*
X400646Y414059D01*
X400640Y414011D01*
X400635Y413975D01*
X400624Y413892D01*
X400619Y413856D01*
X400613Y413808D01*
X400608Y413772D01*
X400602Y413725D01*
X400597Y413689D01*
X400586Y413605D01*
X400582Y413569D01*
X400575Y413522D01*
X400571Y413486D01*
X400564Y413438D01*
X400560Y413402D01*
X400549Y413319D01*
X400538Y413235D01*
X400533Y413199D01*
X400527Y413152D01*
X400522Y413116D01*
X400516Y413068D01*
X400511Y413032D01*
X400500Y412949D01*
X400495Y412913D01*
X400489Y412865D01*
X400484Y412829D01*
X400478Y412782D01*
X400473Y412746D01*
X400462Y412662D01*
X400458Y412626D01*
X400451Y412579D01*
X400447Y412543D01*
X400440Y412495D01*
X400436Y412459D01*
X400425Y412376D01*
X400414Y412292D01*
X400409Y412256D01*
X400403Y412209D01*
X400398Y412173D01*
X400392Y412125D01*
X400387Y412089D01*
X400376Y412006D01*
X400371Y411970D01*
X400365Y411922D01*
X400360Y411886D01*
X400354Y411839D01*
X400354Y411838D01*
X400349Y411803D01*
X400338Y411719D01*
X400333Y411683D01*
X400327Y411636D01*
X400322Y411600D01*
X400316Y411552D01*
X400311Y411516D01*
X400300Y411433D01*
X400289Y411349D01*
X400285Y411313D01*
X400278Y411266D01*
X400278Y411265D01*
X400274Y411230D01*
X400267Y411182D01*
X400263Y411146D01*
X400252Y411063D01*
X400247Y411027D01*
X400241Y410979D01*
X400236Y410943D01*
X400230Y410895D01*
X400225Y410860D01*
X400214Y410776D01*
X400209Y410740D01*
X400203Y410693D01*
X400203Y410692D01*
X400198Y410657D01*
X400192Y410609D01*
X400187Y410573D01*
X400176Y410490D01*
X400165Y410406D01*
X400161Y410370D01*
X400154Y410322D01*
X400150Y410287D01*
X400143Y410239D01*
X400139Y410203D01*
X400128Y410120D01*
X400128Y410119D01*
X400123Y410084D01*
X400117Y410036D01*
X400112Y410000D01*
X400106Y409952D01*
X400101Y409917D01*
X400090Y409833D01*
X400085Y409797D01*
X400079Y409749D01*
X400074Y409714D01*
X400068Y409666D01*
X400063Y409630D01*
X400052Y409547D01*
X400052Y409546D01*
X400041Y409463D01*
X400036Y409427D01*
X400030Y409379D01*
X400025Y409344D01*
X400019Y409296D01*
X400014Y409260D01*
X400003Y409176D01*
X399999Y409141D01*
X399992Y409093D01*
X399988Y409057D01*
X399981Y409009D01*
X399977Y408974D01*
X399977Y408973D01*
X399966Y408890D01*
X399961Y408854D01*
X399955Y408806D01*
X399950Y408771D01*
X399944Y408723D01*
X399939Y408687D01*
X399928Y408603D01*
X399917Y408520D01*
X399912Y408484D01*
X399906Y408436D01*
X399901Y408401D01*
X399901Y408400D01*
X399895Y408353D01*
X399890Y408317D01*
X399879Y408233D01*
X399875Y408198D01*
X399868Y408150D01*
X399864Y408114D01*
X399857Y408066D01*
X399853Y408030D01*
X399842Y407947D01*
X399837Y407911D01*
X399831Y407863D01*
X399826Y407828D01*
X399826Y407827D01*
X399820Y407780D01*
X399815Y407744D01*
X399804Y407660D01*
X399793Y407577D01*
X399788Y407541D01*
X399782Y407493D01*
X399777Y407457D01*
X399771Y407410D01*
X399766Y407374D01*
X399755Y407290D01*
X399750Y407255D01*
X399750Y407254D01*
X399744Y407207D01*
X399739Y407171D01*
X399733Y407123D01*
X399728Y407087D01*
X399717Y407004D01*
X399713Y406968D01*
X399706Y406920D01*
X399702Y406884D01*
X399695Y406837D01*
X399691Y406801D01*
X399680Y406717D01*
X399669Y406634D01*
X399664Y406598D01*
X399658Y406550D01*
X399653Y406514D01*
X399647Y406467D01*
X399642Y406431D01*
X399631Y406347D01*
X399626Y406311D01*
X399620Y406264D01*
X399615Y406228D01*
X399609Y406180D01*
X399604Y406144D01*
X399593Y406061D01*
X399589Y406025D01*
X399588Y406025D01*
X399589Y406025D01*
X399582Y405977D01*
X399578Y405941D01*
X399577Y405941D01*
X399578Y405941D01*
X399571Y405894D01*
X399567Y405858D01*
X399566Y405858D01*
X399567Y405858D01*
X399556Y405774D01*
X399555Y405774D01*
X399556Y405774D01*
X399545Y405691D01*
X399544Y405691D01*
X399545Y405691D01*
X399540Y405655D01*
X399534Y405607D01*
X399533Y405607D01*
X399529Y405571D01*
X399523Y405524D01*
X399522Y405524D01*
X399518Y405488D01*
X399507Y405404D01*
X399502Y405368D01*
X399496Y405321D01*
X399491Y405285D01*
X399485Y405237D01*
X399480Y405201D01*
X399471Y405130D01*
X393883Y391640D01*
X384993Y380055D01*
X373408Y371165D01*
X359918Y365577D01*
X345440Y363671D01*
X330962Y365577D01*
X317472Y371165D01*
X305887Y380055D01*
X296997Y391640D01*
X291409Y405130D01*
X289503Y419608D01*
X289508Y419643D01*
X289513Y419678D01*
X289519Y419726D01*
X289524Y419762D01*
X289535Y419846D01*
X289539Y419881D01*
X289546Y419929D01*
X289550Y419965D01*
X289557Y420013D01*
X289561Y420048D01*
X289561Y420049D01*
X289572Y420132D01*
X289577Y420168D01*
X289583Y420216D01*
X289588Y420251D01*
X289594Y420299D01*
X289599Y420335D01*
X289610Y420419D01*
X289621Y420502D01*
X289626Y420538D01*
X289632Y420586D01*
X289637Y420621D01*
X289637Y420622D01*
X289648Y420705D01*
X289659Y420789D01*
X289663Y420824D01*
X289670Y420872D01*
X289674Y420908D01*
X289681Y420956D01*
X289685Y420992D01*
X289696Y421075D01*
X289701Y421111D01*
X289707Y421159D01*
X289712Y421194D01*
X289712Y421195D01*
X289718Y421242D01*
X289723Y421278D01*
X289734Y421362D01*
X289739Y421397D01*
X289745Y421445D01*
X289750Y421481D01*
X289756Y421529D01*
X289761Y421565D01*
X289772Y421648D01*
X289783Y421732D01*
X289788Y421767D01*
X289788Y421768D01*
X289794Y421815D01*
X289799Y421851D01*
X289810Y421935D01*
X289821Y422018D01*
X289825Y422054D01*
X289832Y422102D01*
X289836Y422138D01*
X289843Y422185D01*
X289847Y422221D01*
X289858Y422305D01*
X289863Y422340D01*
X289863Y422341D01*
X289869Y422388D01*
X289874Y422424D01*
X289880Y422472D01*
X289885Y422508D01*
X289896Y422591D01*
X289901Y422627D01*
X289907Y422675D01*
X289912Y422711D01*
X289918Y422758D01*
X289923Y422794D01*
X289934Y422878D01*
X289945Y422961D01*
X289949Y422997D01*
X289956Y423045D01*
X289960Y423081D01*
X289967Y423128D01*
X289971Y423164D01*
X289982Y423248D01*
X289987Y423284D01*
X289993Y423331D01*
X289998Y423367D01*
X290004Y423415D01*
X290009Y423451D01*
X290020Y423534D01*
X290025Y423570D01*
X290031Y423618D01*
X290036Y423654D01*
X290042Y423701D01*
X290047Y423737D01*
X290058Y423821D01*
X290063Y423857D01*
X290069Y423904D01*
X290074Y423940D01*
X290080Y423988D01*
X290085Y424024D01*
X290096Y424107D01*
X290107Y424191D01*
X290111Y424227D01*
X290118Y424274D01*
X290122Y424310D01*
X290129Y424358D01*
X290133Y424394D01*
X290144Y424477D01*
X290149Y424513D01*
X290155Y424561D01*
X290160Y424597D01*
X290166Y424644D01*
X290171Y424680D01*
X290182Y424764D01*
X290187Y424800D01*
X290193Y424847D01*
X290198Y424883D01*
X290204Y424931D01*
X290209Y424967D01*
X290220Y425050D01*
X290224Y425086D01*
X290231Y425134D01*
X290235Y425170D01*
X290242Y425217D01*
X290246Y425253D01*
X290257Y425337D01*
X290268Y425420D01*
X290273Y425456D01*
X290279Y425504D01*
X290284Y425540D01*
X290290Y425587D01*
X290290Y425588D01*
X290295Y425623D01*
X290306Y425707D01*
X290311Y425743D01*
X290317Y425790D01*
X290322Y425826D01*
X290328Y425874D01*
X290333Y425910D01*
X290344Y425993D01*
X290349Y426029D01*
X290355Y426077D01*
X290360Y426113D01*
X290366Y426160D01*
X290366Y426161D01*
X290371Y426196D01*
X290382Y426280D01*
X290386Y426316D01*
X290393Y426363D01*
X290397Y426399D01*
X290404Y426447D01*
X290408Y426483D01*
X290419Y426566D01*
X290430Y426650D01*
X290435Y426686D01*
X290441Y426733D01*
X290441Y426734D01*
X290446Y426769D01*
X290452Y426817D01*
X290457Y426853D01*
X290468Y426936D01*
X290473Y426972D01*
X290479Y427020D01*
X290484Y427056D01*
X290490Y427104D01*
X290495Y427139D01*
X290506Y427223D01*
X290510Y427259D01*
X290511Y427259D01*
X290510Y427259D01*
X290517Y427306D01*
X290517Y427307D01*
X290521Y427342D01*
X290522Y427342D01*
X290521Y427342D01*
X290528Y427390D01*
X290532Y427426D01*
X290533Y427426D01*
X290532Y427426D01*
X290543Y427509D01*
X290544Y427509D01*
X290543Y427509D01*
X290554Y427593D01*
X290555Y427593D01*
X290559Y427629D01*
X290565Y427677D01*
X290566Y427677D01*
X290570Y427712D01*
X290581Y427796D01*
X290592Y427879D01*
X290592Y427880D01*
X290597Y427915D01*
X290603Y427963D01*
X290608Y427999D01*
X290614Y428047D01*
X290619Y428082D01*
X290630Y428166D01*
X290635Y428202D01*
X290641Y428250D01*
X290646Y428285D01*
X290652Y428333D01*
X290657Y428369D01*
X290668Y428452D01*
X290668Y428453D01*
X290672Y428488D01*
X290679Y428536D01*
X290683Y428572D01*
X290690Y428620D01*
X290694Y428655D01*
X290705Y428739D01*
X290716Y428823D01*
X290721Y428858D01*
X290727Y428906D01*
X290732Y428942D01*
X290743Y429025D01*
X290743Y429026D01*
X290754Y429109D01*
X290759Y429145D01*
X290765Y429193D01*
X290770Y429228D01*
X290776Y429276D01*
X290781Y429312D01*
X290792Y429396D01*
X290797Y429431D01*
X290803Y429479D01*
X290808Y429515D01*
X290814Y429563D01*
X290819Y429598D01*
X290819Y429599D01*
X290830Y429682D01*
X290834Y429718D01*
X290841Y429766D01*
X290845Y429801D01*
X290852Y429849D01*
X290856Y429885D01*
X290867Y429969D01*
X290878Y430052D01*
X290883Y430088D01*
X290889Y430136D01*
X290894Y430171D01*
X290894Y430172D01*
X290905Y430255D01*
X290916Y430339D01*
X290921Y430374D01*
X290927Y430422D01*
X290932Y430458D01*
X290938Y430506D01*
X290943Y430542D01*
X290954Y430625D01*
X290958Y430661D01*
X290965Y430709D01*
X290969Y430744D01*
X290969Y430745D01*
X290976Y430792D01*
X290980Y430828D01*
X290991Y430912D01*
X290996Y430947D01*
X291002Y430995D01*
X291007Y431031D01*
X291013Y431079D01*
X291018Y431115D01*
X291029Y431198D01*
X291040Y431282D01*
X291045Y431317D01*
X291045Y431318D01*
X291051Y431365D01*
X291056Y431401D01*
X291067Y431485D01*
X291078Y431568D01*
X291083Y431604D01*
X291089Y431652D01*
X291094Y431688D01*
X291100Y431735D01*
X291105Y431771D01*
X291116Y431855D01*
X291120Y431890D01*
X291120Y431891D01*
X291127Y431938D01*
X291131Y431974D01*
X291138Y432022D01*
X291142Y432058D01*
X291153Y432141D01*
X291158Y432177D01*
X291164Y432225D01*
X291169Y432261D01*
X291175Y432308D01*
X291180Y432344D01*
X291191Y432428D01*
X291202Y432511D01*
X291207Y432547D01*
X291213Y432595D01*
X291218Y432631D01*
X291229Y432714D01*
X291240Y432798D01*
X291244Y432834D01*
X291251Y432881D01*
X291255Y432917D01*
X291262Y432965D01*
X291266Y433001D01*
X291277Y433084D01*
X291282Y433120D01*
X291288Y433168D01*
X291293Y433204D01*
X291299Y433251D01*
X291304Y433287D01*
X291315Y433371D01*
X291320Y433407D01*
X291326Y433454D01*
X291331Y433490D01*
X291337Y433538D01*
X291342Y433574D01*
X291353Y433657D01*
X291364Y433741D01*
X291369Y433777D01*
X291375Y433824D01*
X291380Y433860D01*
X291386Y433908D01*
X291391Y433944D01*
X291402Y434027D01*
X291406Y434063D01*
X291409Y434086D01*
X296997Y447576D01*
X305887Y459161D01*
X317472Y468051D01*
X322088Y469963D01*
X322089Y469965D01*
X322091Y469965D01*
X322092Y469970D01*
X322092Y469971D01*
X322095Y469977D01*
X322092Y469979D01*
X322092Y469983D01*
X321316Y470695D01*
X321314Y470695D01*
X321314Y470697D01*
X320734Y471014D01*
X320064Y471847D01*
X320062Y471847D01*
X320063Y471848D01*
X319276Y472571D01*
X318997Y473171D01*
X318996Y473171D01*
X318996Y473173D01*
X317774Y474691D01*
X317772Y474691D01*
X317772Y474693D01*
X317246Y475093D01*
X316707Y476016D01*
X316706Y476016D01*
X316706Y476017D01*
X316036Y476850D01*
X315850Y477484D01*
X315848Y477485D01*
X315848Y477487D01*
X314866Y479169D01*
X314865Y479170D01*
X314865Y479172D01*
X314404Y479646D01*
X314009Y480639D01*
X314008Y480639D01*
X314008Y480640D01*
X313469Y481563D01*
X313380Y482218D01*
X313378Y482220D01*
X313379Y482221D01*
X312659Y484031D01*
X312657Y484032D01*
X312657Y484034D01*
X312273Y484571D01*
X312030Y485612D01*
X312029Y485613D01*
X312029Y485614D01*
X311634Y486607D01*
X311643Y487268D01*
X311643Y487269D01*
X311642Y487269D01*
X311643Y487271D01*
X311201Y489168D01*
X311199Y489169D01*
X311200Y489171D01*
X310899Y489759D01*
X310814Y490825D01*
X310813Y490826D01*
X310814Y490827D01*
X310571Y491868D01*
X310579Y491912D01*
X310581Y491924D01*
X310600Y492044D01*
X310602Y492055D01*
X310602Y492056D01*
X310604Y492067D01*
X310624Y492187D01*
X310626Y492199D01*
X310648Y492330D01*
X310650Y492342D01*
X310669Y492461D01*
X310671Y492473D01*
X310679Y492520D01*
X310678Y492521D01*
X310679Y492521D01*
X310678Y492522D01*
X310679Y492522D01*
X310550Y494136D01*
X310549Y494138D01*
X310550Y494140D01*
X310421Y494445D01*
X310417Y495435D01*
X310406Y495447D01*
X310405Y495447D01*
X279043Y495447D01*
X279100Y496162D01*
X279096Y496191D01*
X279101Y496219D01*
X279084Y496288D01*
X279076Y496360D01*
X279062Y496384D01*
X279055Y496412D01*
X279012Y496470D01*
X278977Y496532D01*
X278954Y496549D01*
X278937Y496572D01*
X278875Y496609D01*
X278818Y496652D01*
X278790Y496659D01*
X278766Y496674D01*
X278666Y496690D01*
X278625Y496701D01*
X278615Y496699D01*
X278602Y496701D01*
X259602Y496701D01*
X259526Y496686D01*
X259448Y496677D01*
X259429Y496666D01*
X259407Y496662D01*
X259343Y496618D01*
X259275Y496579D01*
X259259Y496560D01*
X259243Y496549D01*
X259219Y496511D01*
X259169Y496451D01*
X249669Y479951D01*
X249660Y479924D01*
X249644Y479900D01*
X249629Y479830D01*
X249606Y479762D01*
X249609Y479734D01*
X249603Y479706D01*
X249617Y479636D01*
X249622Y479564D01*
X249635Y479539D01*
X249641Y479511D01*
X249681Y479451D01*
X249714Y479388D01*
X249736Y479370D01*
X249752Y479346D01*
X249835Y479288D01*
X249867Y479261D01*
X249878Y479258D01*
X249889Y479251D01*
X250516Y478954D01*
X234429Y451090D01*
X234432Y451075D01*
X234433Y451075D01*
X234433Y451074D01*
X235166Y450652D01*
X235368Y450389D01*
X235371Y450389D01*
X235371Y450387D01*
X236717Y449472D01*
X236719Y449472D01*
X236720Y449470D01*
X237340Y449241D01*
X238124Y448515D01*
X238125Y448515D01*
X238125Y448514D01*
X239009Y447913D01*
X239372Y447360D01*
X239374Y447360D01*
X239374Y447358D01*
X240810Y446029D01*
X240812Y446029D01*
X240813Y446027D01*
X241392Y445708D01*
X242059Y444873D01*
X242060Y444873D01*
X242060Y444872D01*
X242845Y444146D01*
X243121Y443546D01*
X243123Y443545D01*
X243122Y443543D01*
X244345Y442014D01*
X244347Y442014D01*
X244347Y442012D01*
X244872Y441611D01*
X245407Y440686D01*
X245408Y440686D01*
X245408Y440684D01*
X246076Y439850D01*
X246259Y439215D01*
X246261Y439214D01*
X246261Y439212D01*
X247241Y437518D01*
X247243Y437518D01*
X247243Y437516D01*
X247702Y437041D01*
X248094Y436046D01*
X248095Y436046D01*
X248095Y436044D01*
X248630Y435120D01*
X248717Y434464D01*
X248719Y434463D01*
X248718Y434462D01*
X249436Y432641D01*
X249437Y432640D01*
X249437Y432638D01*
X249820Y432099D01*
X250059Y431058D01*
X250060Y431057D01*
X250060Y431056D01*
X250451Y430062D01*
X250440Y429401D01*
X250441Y429399D01*
X250440Y429398D01*
X250878Y427490D01*
X250880Y427489D01*
X250879Y427487D01*
X251178Y426898D01*
X251259Y425832D01*
X251260Y425831D01*
X251259Y425830D01*
X251498Y424789D01*
X251388Y424137D01*
X251390Y424135D01*
X251388Y424134D01*
X251537Y422182D01*
X251539Y422181D01*
X251538Y422180D01*
X251745Y421552D01*
X251666Y420486D01*
X251667Y420485D01*
X251666Y420485D01*
X251748Y419419D01*
X251542Y418791D01*
X251543Y418789D01*
X251541Y418788D01*
X251398Y416836D01*
X251399Y416834D01*
X251398Y416833D01*
X251509Y416181D01*
X251273Y415139D01*
X251273Y415138D01*
X251272Y415137D01*
X251194Y414072D01*
X250897Y413481D01*
X250897Y413479D01*
X250896Y413478D01*
X250463Y411570D01*
X250464Y411568D01*
X250462Y411567D01*
X250476Y410906D01*
X250086Y409911D01*
X250087Y409909D01*
X250086Y409909D01*
X249849Y408866D01*
X249468Y408327D01*
X249468Y408325D01*
X249466Y408324D01*
X248753Y406501D01*
X248754Y406500D01*
X248753Y406499D01*
X248747Y406455D01*
X248745Y406443D01*
X248739Y406395D01*
X248733Y406347D01*
X248731Y406335D01*
X248725Y406288D01*
X248724Y406276D01*
X248717Y406228D01*
X248711Y406180D01*
X248710Y406168D01*
X248703Y406120D01*
X248702Y406109D01*
X248702Y406108D01*
X248696Y406061D01*
X248694Y406049D01*
X248688Y406001D01*
X248682Y405953D01*
X248680Y405941D01*
X248674Y405894D01*
X248672Y405882D01*
X248667Y405843D01*
X248134Y404917D01*
X248134Y404916D01*
X248133Y404916D01*
X247744Y403920D01*
X247286Y403443D01*
X247286Y403442D01*
X247284Y403441D01*
X246308Y401745D01*
X246308Y401743D01*
X246307Y401742D01*
X246125Y401107D01*
X245459Y400271D01*
X245459Y400269D01*
X245458Y400269D01*
X244925Y399343D01*
X244401Y398940D01*
X244401Y398938D01*
X244399Y398938D01*
X243181Y397406D01*
X243181Y397404D01*
X243179Y397403D01*
X242904Y396802D01*
X242122Y396074D01*
X242122Y396073D01*
X242121Y396073D01*
X241455Y395237D01*
X240877Y394916D01*
X240877Y394914D01*
X240875Y394914D01*
X239442Y393581D01*
X239442Y393579D01*
X239440Y393579D01*
X239079Y393026D01*
X238196Y392423D01*
X238196Y392421D01*
X238195Y392421D01*
X237412Y391693D01*
X236793Y391463D01*
X236792Y391461D01*
X236790Y391461D01*
X235175Y390357D01*
X235174Y390355D01*
X235172Y390355D01*
X234733Y389861D01*
X233770Y389397D01*
X233770Y389395D01*
X233769Y389396D01*
X232886Y388792D01*
X232240Y388657D01*
X232238Y388655D01*
X232237Y388656D01*
X230474Y387804D01*
X230474Y387802D01*
X230472Y387803D01*
X229964Y387380D01*
X228943Y387064D01*
X228942Y387063D01*
X228941Y387063D01*
X227979Y386598D01*
X227319Y386561D01*
X227317Y386559D01*
X227316Y386560D01*
X225446Y385981D01*
X225445Y385979D01*
X225444Y385980D01*
X224878Y385638D01*
X223821Y385477D01*
X223821Y385476D01*
X223820Y385477D01*
X222799Y385160D01*
X222141Y385221D01*
X222139Y385220D01*
X222138Y385221D01*
X220203Y384927D01*
X220201Y384926D01*
X220200Y384926D01*
X219590Y384673D01*
X218521Y384671D01*
X218520Y384670D01*
X218519Y384671D01*
X217462Y384510D01*
X216821Y384669D01*
X216819Y384668D01*
X216818Y384669D01*
X215381Y384667D01*
X215356Y384667D01*
X214861Y384667D01*
X214859Y384665D01*
X214858Y384666D01*
X214216Y384506D01*
X213159Y384664D01*
X213158Y384664D01*
X213157Y384664D01*
X212089Y384663D01*
X211478Y384915D01*
X211476Y384915D01*
X211475Y384916D01*
X209539Y385205D01*
X209538Y385204D01*
X209537Y385204D01*
X209536Y385205D01*
X208878Y385143D01*
X207857Y385457D01*
X207855Y385456D01*
X207855Y385457D01*
X206798Y385615D01*
X206231Y385955D01*
X206229Y385955D01*
X206229Y385957D01*
X204358Y386531D01*
X204356Y386530D01*
X204355Y386532D01*
X203695Y386568D01*
X202731Y387030D01*
X202730Y387030D01*
X202730Y387031D01*
X201708Y387345D01*
X201198Y387766D01*
X201197Y387766D01*
X201196Y387767D01*
X199729Y388472D01*
X199726Y388471D01*
X199725Y388473D01*
X199397Y388516D01*
X198586Y388982D01*
X198570Y388979D01*
X198570Y388978D01*
X198569Y388978D01*
X189852Y373879D01*
X189101Y374311D01*
X189093Y374314D01*
X189086Y374319D01*
X188998Y374345D01*
X188912Y374374D01*
X188903Y374373D01*
X188895Y374375D01*
X188805Y374365D01*
X188714Y374358D01*
X188706Y374354D01*
X188697Y374353D01*
X188618Y374308D01*
X188538Y374266D01*
X188532Y374259D01*
X188524Y374255D01*
X188419Y374126D01*
X172569Y346450D01*
X172557Y346414D01*
X172536Y346381D01*
X172526Y346320D01*
X172506Y346261D01*
X172509Y346223D01*
X172503Y346185D01*
X172517Y346125D01*
X172522Y346063D01*
X172540Y346029D01*
X172549Y345992D01*
X172586Y345942D01*
X172615Y345887D01*
X172644Y345863D01*
X172667Y345832D01*
X172720Y345800D01*
X172768Y345761D01*
X172805Y345750D01*
X172838Y345730D01*
X172916Y345717D01*
X172959Y345705D01*
X172978Y345707D01*
X173002Y345703D01*
X207394Y345713D01*
X207435Y345721D01*
X207476Y345720D01*
X207531Y345741D01*
X207589Y345752D01*
X207623Y345776D01*
X207662Y345791D01*
X207704Y345832D01*
X207753Y345865D01*
X207775Y345900D01*
X207805Y345929D01*
X207828Y345983D01*
X207860Y346033D01*
X207867Y346073D01*
X207883Y346112D01*
X207886Y346185D01*
X207893Y346229D01*
X207888Y346250D01*
X207889Y346278D01*
X207799Y346957D01*
X484855Y346957D01*
X484769Y346275D01*
X484772Y346235D01*
X484765Y346196D01*
X484779Y346137D01*
X484784Y346076D01*
X484802Y346041D01*
X484811Y346002D01*
X484847Y345954D01*
X484875Y345900D01*
X484905Y345874D01*
X484929Y345842D01*
X484981Y345811D01*
X485027Y345772D01*
X485066Y345761D01*
X485100Y345741D01*
X485175Y345728D01*
X485218Y345715D01*
X485238Y345717D01*
X485264Y345713D01*
X519402Y345703D01*
X519439Y345710D01*
G37*
G36*
X217863Y392800D02*
X217863Y392800D01*
X217894Y392806D01*
X217937Y392806D01*
X221959Y393417D01*
X221989Y393428D01*
X222032Y393434D01*
X225918Y394638D01*
X225946Y394653D01*
X225988Y394665D01*
X229651Y396435D01*
X229676Y396454D01*
X229715Y396472D01*
X233074Y398768D01*
X233096Y398791D01*
X233132Y398815D01*
X236111Y401586D01*
X236129Y401612D01*
X236161Y401640D01*
X238694Y404824D01*
X238708Y404853D01*
X238736Y404886D01*
X240766Y408412D01*
X240776Y408442D01*
X240798Y408479D01*
X240842Y408591D01*
X241623Y410588D01*
X241818Y411087D01*
X241818Y411088D01*
X242279Y412268D01*
X242285Y412299D01*
X242301Y412339D01*
X243202Y416307D01*
X243202Y416338D01*
X243213Y416380D01*
X243511Y420438D01*
X243507Y420469D01*
X243511Y420512D01*
X243202Y424569D01*
X243194Y424599D01*
X243191Y424643D01*
X242281Y428608D01*
X242268Y428637D01*
X242259Y428679D01*
X240768Y432464D01*
X240750Y432491D01*
X240735Y432531D01*
X238697Y436052D01*
X238675Y436076D01*
X238654Y436114D01*
X236114Y439291D01*
X236089Y439311D01*
X236063Y439346D01*
X233077Y442109D01*
X233050Y442126D01*
X233019Y442155D01*
X229655Y444443D01*
X229630Y444453D01*
X229609Y444471D01*
X229539Y444491D01*
X229471Y444520D01*
X229444Y444520D01*
X229418Y444527D01*
X229345Y444519D01*
X229272Y444519D01*
X229247Y444508D01*
X229220Y444505D01*
X229157Y444469D01*
X229090Y444440D01*
X229071Y444421D01*
X229047Y444407D01*
X228980Y444326D01*
X228952Y444297D01*
X228949Y444288D01*
X228941Y444279D01*
X201781Y397099D01*
X201773Y397073D01*
X201757Y397051D01*
X201742Y396980D01*
X201718Y396910D01*
X201721Y396883D01*
X201715Y396857D01*
X201728Y396785D01*
X201734Y396712D01*
X201747Y396688D01*
X201752Y396661D01*
X201792Y396601D01*
X201826Y396536D01*
X201847Y396519D01*
X201862Y396496D01*
X201948Y396435D01*
X201979Y396409D01*
X201988Y396407D01*
X201998Y396400D01*
X205666Y394639D01*
X205697Y394632D01*
X205735Y394612D01*
X209624Y393418D01*
X209656Y393415D01*
X209697Y393401D01*
X213720Y392800D01*
X213752Y392802D01*
X213795Y392795D01*
X217863Y392800D01*
G37*
G36*
X348361Y468755D02*
X348361Y468755D01*
X348392Y468762D01*
X348435Y468761D01*
X352446Y469385D01*
X352476Y469396D01*
X352519Y469402D01*
X356392Y470617D01*
X356420Y470632D01*
X356462Y470644D01*
X360111Y472422D01*
X360136Y472442D01*
X360175Y472460D01*
X363518Y474762D01*
X363541Y474785D01*
X363577Y474809D01*
X366539Y477584D01*
X366558Y477610D01*
X366590Y477639D01*
X369106Y480825D01*
X369120Y480853D01*
X369148Y480887D01*
X371161Y484412D01*
X371171Y484442D01*
X371193Y484479D01*
X371214Y484533D01*
X371407Y485032D01*
X372658Y488265D01*
X372664Y488296D01*
X372680Y488336D01*
X373565Y492298D01*
X373565Y492330D01*
X373576Y492372D01*
X373860Y496421D01*
X373857Y496448D01*
X373861Y496475D01*
X373844Y496546D01*
X373834Y496618D01*
X373820Y496642D01*
X373814Y496668D01*
X373771Y496727D01*
X373733Y496790D01*
X373712Y496806D01*
X373695Y496828D01*
X373633Y496865D01*
X373574Y496908D01*
X373547Y496915D01*
X373524Y496928D01*
X373420Y496945D01*
X373381Y496955D01*
X373371Y496953D01*
X373360Y496955D01*
X319040Y496701D01*
X319013Y496696D01*
X318986Y496698D01*
X318917Y496676D01*
X318845Y496661D01*
X318823Y496645D01*
X318797Y496637D01*
X318742Y496589D01*
X318682Y496547D01*
X318667Y496524D01*
X318646Y496507D01*
X318614Y496441D01*
X318575Y496379D01*
X318571Y496353D01*
X318559Y496328D01*
X318550Y496223D01*
X318543Y496183D01*
X318544Y496180D01*
X318544Y496178D01*
X318545Y496172D01*
X318544Y496162D01*
X318867Y492116D01*
X318875Y492085D01*
X318878Y492042D01*
X319800Y488089D01*
X319813Y488060D01*
X319822Y488018D01*
X321323Y484246D01*
X321340Y484219D01*
X321356Y484179D01*
X323402Y480673D01*
X323423Y480649D01*
X323444Y480611D01*
X325990Y477449D01*
X326014Y477429D01*
X326041Y477395D01*
X329029Y474648D01*
X329057Y474631D01*
X329088Y474601D01*
X332453Y472330D01*
X332482Y472318D01*
X332518Y472293D01*
X336183Y470549D01*
X336214Y470542D01*
X336253Y470522D01*
X340137Y469344D01*
X340169Y469341D01*
X340210Y469328D01*
X344227Y468741D01*
X344259Y468743D01*
X344301Y468736D01*
X348361Y468755D01*
G37*
G36*
X478411Y393290D02*
X478411Y393290D01*
X478443Y393297D01*
X478486Y393296D01*
X482492Y393904D01*
X482522Y393915D01*
X482565Y393921D01*
X486435Y395119D01*
X486463Y395134D01*
X486504Y395147D01*
X490153Y396908D01*
X490175Y396925D01*
X490200Y396934D01*
X490253Y396985D01*
X490311Y397029D01*
X490325Y397052D01*
X490345Y397071D01*
X490374Y397138D01*
X490410Y397201D01*
X490413Y397229D01*
X490424Y397253D01*
X490425Y397326D01*
X490434Y397399D01*
X490426Y397425D01*
X490426Y397452D01*
X490390Y397551D01*
X490378Y397590D01*
X490372Y397597D01*
X490368Y397608D01*
X463208Y444534D01*
X463190Y444554D01*
X463179Y444579D01*
X463125Y444628D01*
X463076Y444683D01*
X463052Y444695D01*
X463032Y444713D01*
X462963Y444737D01*
X462897Y444768D01*
X462870Y444770D01*
X462844Y444779D01*
X462771Y444774D01*
X462698Y444777D01*
X462673Y444768D01*
X462645Y444766D01*
X462550Y444722D01*
X462512Y444708D01*
X462505Y444701D01*
X462494Y444696D01*
X459149Y442410D01*
X459127Y442387D01*
X459091Y442364D01*
X456124Y439604D01*
X456105Y439579D01*
X456094Y439569D01*
X456087Y439564D01*
X456085Y439561D01*
X456073Y439550D01*
X453550Y436379D01*
X453536Y436351D01*
X453508Y436317D01*
X451486Y432806D01*
X451476Y432776D01*
X451454Y432739D01*
X449977Y428966D01*
X449972Y428934D01*
X449955Y428894D01*
X449058Y424943D01*
X449057Y424911D01*
X449047Y424869D01*
X448749Y420829D01*
X448753Y420797D01*
X448749Y420754D01*
X449056Y416714D01*
X449064Y416683D01*
X449067Y416640D01*
X449973Y412691D01*
X449986Y412662D01*
X449995Y412620D01*
X451479Y408849D01*
X451497Y408823D01*
X451512Y408782D01*
X453541Y405276D01*
X453563Y405252D01*
X453583Y405214D01*
X456113Y402049D01*
X456138Y402028D01*
X456164Y401994D01*
X459137Y399241D01*
X459164Y399225D01*
X459195Y399195D01*
X462546Y396916D01*
X462575Y396904D01*
X462610Y396879D01*
X466263Y395125D01*
X466294Y395117D01*
X466332Y395098D01*
X470205Y393907D01*
X470237Y393904D01*
X470278Y393891D01*
X474285Y393291D01*
X474317Y393293D01*
X474360Y393286D01*
X478411Y393290D01*
G37*
D10*
X428802Y489302D03*
X508100Y352552D03*
X184050Y352806D03*
X263602Y489302D03*
X470102Y417702D03*
X222302Y417702D03*
X346202Y489302D03*
M02*
